<?xml version="1.0" encoding="utf-8"?>
<!-- Generator: Adobe Illustrator 26.2.1, SVG Export Plug-In . SVG Version: 6.00 Build 0)  -->
<svg version="1.1" id="Capa_1" xmlns="http://www.w3.org/2000/svg" xmlns:xlink="http://www.w3.org/1999/xlink" x="0px" y="0px"
	 viewBox="0 0 14 14" style="enable-background:new 0 0 14 14;" xml:space="preserve">
<style type="text/css">
	.st0{fill:#808080;}
</style>
<path id="Path_3301" class="st0" d="M13.7,12.2c0.4,0.4,0.4,1.1,0,1.5c-0.4,0.4-1,0.4-1.4,0L7,8.5l-5.2,5.2c-0.4,0.4-1.1,0.4-1.5,0
	c-0.4-0.4-0.4-1.1,0-1.5c0,0,0,0,0,0L5.5,7L0.3,1.8c-0.4-0.4-0.4-1.1,0-1.5c0,0,0,0,0,0c0.4-0.4,1.1-0.4,1.5,0L7,5.5l5.2-5.2
	c0.4-0.4,1.1-0.4,1.5,0c0.4,0.4,0.4,1.1,0,1.5c0,0,0,0,0,0L8.5,7L13.7,12.2z"/>
</svg>
