<svg xmlns="http://www.w3.org/2000/svg" width="16" height="16" viewBox="0 0 16 16">
  <path id="Path_6433" data-name="Path 6433" d="M8-6a1,1,0,0,0-.6-.92L4.912-8,7.4-9.081A1,1,0,0,0,8-10a1,1,0,0,0-.6-.919L.583-13.878a1.461,1.461,0,0,0-1.165,0L-7.4-10.92A1,1,0,0,0-8-10a1,1,0,0,0,.6.919L-4.912-8-7.4-6.92A1,1,0,0,0-8-6a1,1,0,0,0,.6.919L-4.912-4-7.4-2.92A1,1,0,0,0-8-2a1,1,0,0,0,.6.919L-.581,1.879A1.73,1.73,0,0,0,0,2a1.472,1.472,0,0,0,.581-.121L7.4-1.08A1,1,0,0,0,8-2a1,1,0,0,0-.6-.92L4.912-4,7.4-5.08A1,1,0,0,0,8-6ZM-.016-12.5h0ZM0-12.5,5.755-10,.017-7.5-5.753-10ZM5.756-2,.017.5-5.753-2l2.725-1.182L-.581-2.121A1.73,1.73,0,0,0,0-2a1.472,1.472,0,0,0,.581-.121L3.027-3.182ZM.017-3.5-5.753-6l2.726-1.182L-.581-6.122A1.731,1.731,0,0,0,0-6a1.472,1.472,0,0,0,.581-.121L3.027-7.182,5.756-6Z" transform="translate(8 14)" fill="#fff"/>
</svg>
