<svg xmlns="http://www.w3.org/2000/svg" width="21" height="21" viewBox="0 0 21 21">
  <path id="Path_6432" data-name="Path 6432" d="M19.5,1.5H1.5A1.506,1.506,0,0,0,0,3.014V20.986A1.506,1.506,0,0,0,1.5,22.5h18A1.51,1.51,0,0,0,21,20.986V3.014A1.51,1.51,0,0,0,19.5,1.5ZM6.347,19.5H3.234V9.478H6.352V19.5ZM4.791,8.109A1.8,1.8,0,1,1,6.6,6.3a1.805,1.805,0,0,1-1.8,1.8ZM18.014,19.5H14.9V14.625c0-1.162-.023-2.658-1.617-2.658-1.622,0-1.87,1.266-1.87,2.573V19.5H8.3V9.478h2.986v1.369h.042A3.278,3.278,0,0,1,14.278,9.23c3.15,0,3.736,2.077,3.736,4.777Z" transform="translate(0 -1.5)" fill="#4f4d77"/>
</svg>
