<svg xmlns="http://www.w3.org/2000/svg" width="24" height="24" viewBox="0 0 24 24">
  <g id="Group_138" data-name="Group 138" transform="translate(-37 -2012)">
    <path id="Path_6435" data-name="Path 6435" d="M12,21.75q.281.047.891-.422A5.331,5.331,0,0,0,14.25,19.5a15.248,15.248,0,0,0,1.031-3H8.719a15.248,15.248,0,0,0,1.031,3,5.331,5.331,0,0,0,1.359,1.828Q11.719,21.8,12,21.75Zm-3.609-7.5h7.266q.094-1.078.094-2.25t-.094-2.25H8.391a18.07,18.07,0,0,0,0,4.5ZM8.719,7.5h6.563a15.248,15.248,0,0,0-1.031-3,5.331,5.331,0,0,0-1.359-1.828Q12.281,2.2,12,2.25q-.281-.047-.891.422A5.331,5.331,0,0,0,9.75,4.5,15.248,15.248,0,0,0,8.719,7.5Zm9.188,2.25Q18,10.828,18,12t-.094,2.25h3.563a9.141,9.141,0,0,0,0-4.5ZM20.672,7.5a9.816,9.816,0,0,0-4.641-4.359A16.935,16.935,0,0,1,17.578,7.5Zm-14.25,0A14.886,14.886,0,0,1,7.969,3.141,9.816,9.816,0,0,0,3.328,7.5ZM2.531,9.75a9.141,9.141,0,0,0,0,4.5H6.094Q6,13.172,6,12t.094-2.25Zm13.5,11.109A9.816,9.816,0,0,0,20.672,16.5H17.578A14.886,14.886,0,0,1,16.031,20.859Zm-8.062,0A16.935,16.935,0,0,1,6.422,16.5H3.328A9.816,9.816,0,0,0,7.969,20.859ZM12,24a12.285,12.285,0,0,1-6-1.594A12.4,12.4,0,0,1,1.594,18a12.091,12.091,0,0,1,0-12A12.4,12.4,0,0,1,6,1.594a12.091,12.091,0,0,1,12,0A12.4,12.4,0,0,1,22.406,6a12.091,12.091,0,0,1,0,12A12.4,12.4,0,0,1,18,22.406,12.285,12.285,0,0,1,12,24Z" transform="translate(37 2012)" fill="#4f4d77"/>
  </g>
</svg>
