<svg xmlns="http://www.w3.org/2000/svg" width="384" height="375.946" viewBox="0 0 384 375.946">
  <g id="Group_3970" data-name="Group 3970" transform="translate(0 0)">
    <g id="Shadows" transform="translate(169.194 341.277)">
      <path id="Path_3610" data-name="Path 3610" d="M620.868,1951.82c0-5.942-35.11-10.759-78.419-10.759s-78.419,4.816-78.419,10.759,35.109,10.759,78.419,10.759S620.868,1957.762,620.868,1951.82Z" transform="translate(-464.029 -1941.061)" fill="#e9edf7"/>
    </g>
    <g id="Plants" transform="translate(0 0)">
      <g id="Group_3927" data-name="Group 3927" transform="translate(162.072)">
        <g id="Group_3920" data-name="Group 3920" transform="translate(0 8.739)">
          <path id="Path_3611" data-name="Path 3611" d="M1132.757,288.3c3.287,0,8.222-1.759,13.779-9.671a.6.6,0,1,0-.976-.686c-5.494,7.822-10.2,9.3-13.177,9.155a7.44,7.44,0,0,1-6.085-3.673.6.6,0,0,0-.718-.267,8.367,8.367,0,0,1-7.719-1.267c-3.4-2.43-5.314-7-5.251-12.552a.6.6,0,0,0-.59-.6h-.007a.6.6,0,0,0-.6.59c-.067,5.942,2.029,10.876,5.751,13.536a9.736,9.736,0,0,0,8.35,1.57,8.656,8.656,0,0,0,6.809,3.858C1132.466,288.3,1132.61,288.3,1132.757,288.3Z" transform="translate(-1111.414 -268.735)" fill="#e9edf7"/>
        </g>
        <g id="Group_3921" data-name="Group 3921" transform="translate(3.282 4.165)">
          <path id="Path_3612" data-name="Path 3612" d="M1138.652,266.7a10.436,10.436,0,0,0,3.516-.626c4.621-1.654,8.291-6.13,10.068-12.28a.6.6,0,0,0-1.146-.331c-2.371,8.205-7.31,10.767-9.324,11.488a8.218,8.218,0,0,1-7.609-.815.6.6,0,0,0-.362-.1,9.018,9.018,0,0,1-6.715-3.348c-2.942-3.358-4.005-8.42-2.994-14.253a.6.6,0,0,0-1.176-.2c-1.074,6.2.088,11.609,3.272,15.243a10.31,10.31,0,0,0,7.461,3.759A9.082,9.082,0,0,0,1138.652,266.7Z" transform="translate(-1122.52 -245.734)" fill="#e9edf7"/>
        </g>
        <g id="Group_3922" data-name="Group 3922" transform="translate(6.625 0.675)">
          <path id="Path_3613" data-name="Path 3613" d="M1159.686,250.57a7.027,7.027,0,0,0,4.78-1.965c4.62-4.151,6.261-13.642,5.686-16.374a.6.6,0,0,0-1.167.246c.477,2.262-.962,11.329-5.316,15.24a5.812,5.812,0,0,1-6.024,1.315.589.589,0,0,0-.231-.027c-1.136.09-2.385-.636-3.52-2.043-2.849-3.532-4.749-11.044-2.658-18.011a.6.6,0,1,0-1.143-.343c-2.209,7.358-.169,15.334,2.872,19.1,1.373,1.7,2.9,2.562,4.421,2.491A7.714,7.714,0,0,0,1159.686,250.57Z" transform="translate(-1149.164 -228.183)" fill="#e9edf7"/>
        </g>
        <g id="Group_3923" data-name="Group 3923" transform="translate(8.977 6.152)">
          <path id="Path_3614" data-name="Path 3614" d="M1178.118,272.263a.6.6,0,0,0,.376-.133c3.878-3.145,7.727-11.43,7.851-14.644a.6.6,0,0,0-1.192-.046c-.105,2.73-3.53,10.14-6.9,13.313-2.681-4.529-5.007-12.2-4.886-14.4a.6.6,0,1,0-1.191-.066,24.636,24.636,0,0,0,1.563,7.109,40.919,40.919,0,0,0,3.873,8.589.6.6,0,0,0,.408.267A.6.6,0,0,0,1178.118,272.263Z" transform="translate(-1172.174 -255.727)" fill="#e9edf7"/>
        </g>
        <g id="Group_3924" data-name="Group 3924" transform="translate(12.201 2.676)">
          <path id="Path_3615" data-name="Path 3615" d="M1213.264,258.258a.6.6,0,0,0,.576-.755c-1.321-4.794-2.818-10.227-1.719-18.583a.6.6,0,0,0-1.183-.156c-1.13,8.6.4,14.152,1.752,19.055A.6.6,0,0,0,1213.264,258.258Z" transform="translate(-1210.545 -238.246)" fill="#e9edf7"/>
        </g>
        <g id="Group_3925" data-name="Group 3925" transform="translate(13.989)">
          <path id="Path_3616" data-name="Path 3616" d="M1195.959,246.248a.6.6,0,0,0,.516-.3c2.51-4.309,4.284-16.519,3.015-20.738a.6.6,0,0,0-1.143.344c1.153,3.832-.61,15.857-2.9,19.794a.6.6,0,0,0,.515.9Z" transform="translate(-1195.363 -224.788)" fill="#e9edf7"/>
        </g>
        <g id="Group_3926" data-name="Group 3926" transform="translate(2.251 23.127)">
          <path id="Path_3617" data-name="Path 3617" d="M1213.941,381.4a.6.6,0,0,0,.541-.345c4.373-9.394,11.407-34.789,11.573-39.345a.6.6,0,0,0-1.192-.043c-.147,4.034-6.866,29.013-11.462,38.885a.6.6,0,0,0,.54.848Z" transform="translate(-1213.345 -341.092)" fill="#e9edf7"/>
        </g>
      </g>
      <g id="Group_3929" data-name="Group 3929" transform="translate(5.024 152.551)">
        <path id="Path_3618" data-name="Path 3618" d="M1902.74,999.476c-13.454-13.179-30.415-8.392-43.593,9.45C1873.666,1018.395,1895.9,1018.9,1902.74,999.476Z" transform="translate(-1859.147 -991.963)" fill="#ced3f8"/>
        <g id="Group_3928" data-name="Group 3928" transform="translate(4.687 6.917)">
          <path id="Path_3619" data-name="Path 3619" d="M1856.743,1035.983a.6.6,0,0,0,.157-.021c6.325-1.726,14.953-3.345,22.565-4.774,6.3-1.183,12.256-2.3,15.746-3.269a.6.6,0,0,0-.319-1.15c-3.442.955-9.37,2.068-15.647,3.246-7.634,1.433-16.288,3.057-22.659,4.8a.6.6,0,0,0,.157,1.172Z" transform="translate(-1856.147 -1026.747)" fill="#bbc0e6"/>
        </g>
      </g>
      <g id="Group_3931" data-name="Group 3931" transform="translate(0 118.94)">
        <path id="Path_3620" data-name="Path 3620" d="M1895.5,860.938c1.29-26.93-19.971-40.511-51.591-37.621C1847.6,847.855,1868.221,872.1,1895.5,860.938Z" transform="translate(-1843.907 -822.935)" fill="#e9edf7"/>
        <g id="Group_3930" data-name="Group 3930" transform="translate(5.938 4.096)">
          <path id="Path_3621" data-name="Path 3621" d="M1886.841,878.036a.6.6,0,0,0,.324-1.1c-4.3-2.777-11.14-8.06-18.376-13.653-8.795-6.8-18.764-14.5-26.679-19.657a.6.6,0,0,0-.651,1c7.875,5.128,17.823,12.817,26.6,19.6,7.257,5.609,14.112,10.907,18.459,13.711A.6.6,0,0,0,1886.841,878.036Z" transform="translate(-1841.187 -843.532)" fill="#fff"/>
        </g>
      </g>
      <g id="Group_3933" data-name="Group 3933" transform="translate(255.161 130.828)">
        <path id="Path_3622" data-name="Path 3622" d="M572.749,965.111c37.719-5.976,50.42-39.378,37.293-82.392C577.08,894.915,549.4,930.5,572.749,965.111Z" transform="translate(-564.082 -882.718)" fill="#dde2f8"/>
        <g id="Group_3932" data-name="Group 3932" transform="translate(8.07 9.707)">
          <path id="Path_3623" data-name="Path 3623" d="M607.491,1004.816a.6.6,0,0,0,.557-.382c2.612-6.778,7.968-17.78,13.637-29.428,6.891-14.156,14.7-30.2,19.562-42.658a.6.6,0,0,0-1.112-.434c-4.843,12.412-12.642,28.434-19.523,42.57-5.681,11.672-11.047,22.7-13.678,29.521a.6.6,0,0,0,.557.811Z" transform="translate(-606.894 -931.534)" fill="#ced3f8"/>
        </g>
      </g>
      <g id="Group_3935" data-name="Group 3935" transform="translate(299.57 128.441)">
        <path id="Path_3624" data-name="Path 3624" d="M426.884,884.258c3.75-1.189,7.13-3.616,6.232-5.885-.855-2.161-4.725-1.678-8.266-.3,1.147-3.214,1.248-6.491-.76-7.232-3.94-1.456-8.022,10.174-6.75,13.322,1.007,4.391,11.935,9.37,13.671,5.533C431.836,887.873,429.7,885.81,426.884,884.258Z" transform="translate(-397.468 -870.716)" fill="#ced3f8"/>
        <g id="Group_3934" data-name="Group 3934" transform="translate(0 12.851)">
          <path id="Path_3625" data-name="Path 3625" d="M494.77,965.029a.6.6,0,0,0,.575-.439c4.019-14.647,14.523-26.512,18.9-28.091a.6.6,0,1,0-.4-1.122c-2.562.924-6.532,4.658-10.115,9.515a60.544,60.544,0,0,0-9.533,19.383.6.6,0,0,0,.576.755Z" transform="translate(-494.172 -935.341)" fill="#dde2f8"/>
        </g>
        <path id="Path_3626" data-name="Path 3626" d="M480.725,923.277a2.988,2.988,0,0,0-1.4-1.651c.962-.458,2.06-1.718,1.417-2.69-.459-.694-1.685,0-2.657.762a4.792,4.792,0,0,0,.052-1.294c-.428-3.5-2.812,1.535-1.9,3.2a9.938,9.938,0,0,0,1.254,1.6C478.686,924.488,480.946,924.565,480.725,923.277Z" transform="translate(-456.859 -907.953)" fill="#dde2f8"/>
      </g>
      <path id="Path_3627" data-name="Path 3627" d="M539.872,1505.665c-4.336,28.256,16.584,44.927,50.246,45.37C588.934,1524.754,569.868,1496.906,539.872,1505.665Z" transform="translate(-279.053 -1249.648)" fill="#ced3f8"/>
      <g id="Group_3937" data-name="Group 3937" transform="translate(249.131 147.414)">
        <path id="Path_3628" data-name="Path 3628" d="M178.106,1064.431c4.813,10.5,21.88,19.389,32.7,15.934s10.4-14.235,16.783-14.478,16.347,9.029,24.068,5.011c13.719-7.14-1.879-27.3,7.69-33.6s17.547,5.489,27.413,1.006-3.972-20.379,5.01-30.075,24.293-33.751,9.348-40.924c-11.812-5.669-12.437,10.924-17.979,12.054-6.321,1.29-8.918-6.534-15.573-3.587-9.4,4.163-6.707,17.517-14.989,19.659s-13.233-8.012-20.9.266c-9.493,10.247,7.4,24.429-9.852,30.715s-15.685-17.321-26.88-14.942c-12.219,2.6-5.188,24.026-13.691,23.79C169.681,1034.944,170.64,1048.14,178.106,1064.431Z" transform="translate(-172.516 -966.129)" fill="#e9edf7"/>
        <g id="Group_3936" data-name="Group 3936" transform="translate(6.505 19.087)">
          <path id="Path_3629" data-name="Path 3629" d="M261.13,1144.609a.6.6,0,0,0,.169-.024,17.1,17.1,0,0,1,3.75-.308c3.648-.078,8.645-.184,11.553-3.324a44.726,44.726,0,0,0,4.029-5.341c2.032-2.994,4.133-6.09,7.357-8.239,6.635-4.421,13.033-4.455,18.677-4.485,4.257-.023,8.277-.044,11.589-2.029,3.041-1.822,3.38-4.314,3.74-6.952.33-2.418.7-5.16,3.3-7.968a9.406,9.406,0,0,1,6.406-3.362c2.324-.395,4.959-.842,8.642-4.817a13.454,13.454,0,0,0,3.821-8.693,13.633,13.633,0,0,1,3.438-8.315c5.422-6.434,11.4-7.821,15.77-8.834,2.778-.644,4.973-1.153,6.243-2.673,2.906-3.478,1.387-6.663,1.321-6.8a.6.6,0,0,0-1.07.528c.05.1,1.224,2.642-1.167,5.5-1.014,1.214-3.037,1.683-5.6,2.276-4.53,1.051-10.735,2.489-16.413,9.227a14.807,14.807,0,0,0-3.709,8.934,12.3,12.3,0,0,1-3.512,8.032c-3.407,3.678-5.725,4.071-7.966,4.452a10.629,10.629,0,0,0-7.082,3.728c-2.858,3.085-3.259,6.025-3.612,8.619-.347,2.549-.621,4.562-3.171,6.089-3.032,1.816-6.716,1.836-10.982,1.859-5.812.031-12.4.066-19.332,4.685-3.418,2.278-5.586,5.472-7.682,8.561a43.138,43.138,0,0,1-3.917,5.2c-2.564,2.768-7.077,2.865-10.7,2.942a17.573,17.573,0,0,0-4.062.356.6.6,0,0,0,.168,1.169Z" transform="translate(-260.534 -1062.117)" fill="#ced3f8"/>
        </g>
      </g>
      <g id="Group_3939" data-name="Group 3939" transform="translate(38.562 247.299)">
        <path id="Path_3630" data-name="Path 3630" d="M1878.666,1480.366c1.491-6.619-3.873-10.115-7.224-11.918C1871.14,1470.507,1870.4,1478.913,1878.666,1480.366Z" transform="translate(-1871.279 -1468.448)" fill="#807dfb"/>
        <g id="Group_3938" data-name="Group 3938" transform="translate(6.415 10.589)">
          <path id="Path_3631" data-name="Path 3631" d="M1713.532,1569.189a.6.6,0,0,0,.33-1.094,107.26,107.26,0,0,1-19.812-17.725,134.383,134.383,0,0,1-19.329-28.343.6.6,0,1,0-1.065.537,135.58,135.58,0,0,0,19.5,28.6,108.465,108.465,0,0,0,20.044,17.927A.592.592,0,0,0,1713.532,1569.189Z" transform="translate(-1673.593 -1521.7)" fill="#807dfb"/>
        </g>
        <path id="Path_3632" data-name="Path 3632" d="M1744.428,1739.661c-13.452-2.61-17.594,6.565-21.032,13.438C1727.574,1753.586,1741.995,1756.428,1744.428,1739.661Z" transform="translate(-1707.38 -1685.367)" fill="#807dfb"/>
        <path id="Path_3633" data-name="Path 3633" d="M1792.76,1692.023c-9.938-4.716-14.991,1.59-19.036,6.247C1776.873,1699.483,1787.518,1704.572,1792.76,1692.023Z" transform="translate(-1765.719 -1646.229)" fill="#807dfb"/>
        <path id="Path_3634" data-name="Path 3634" d="M1835.366,1630.231c-7.355-5.94-12.846-1.687-17.163,1.39C1820.591,1633.268,1828.462,1639.662,1835.366,1630.231Z" transform="translate(-1817.17 -1595.671)" fill="#807dfb"/>
        <path id="Path_3635" data-name="Path 3635" d="M1867.137,1571.052c-3.36-4.82-7.374-3.232-10.485-2.142C1857.793,1570.307,1861.383,1575.486,1867.137,1571.052Z" transform="translate(-1856.586 -1548.012)" fill="#807dfb"/>
        <path id="Path_3636" data-name="Path 3636" d="M1664.948,1624.78c-5.814-10.6.781-16.552,5.63-21.291C1672.113,1606.869,1678.381,1618.221,1664.948,1624.78Z" transform="translate(-1624.255 -1576.636)" fill="#807dfb"/>
        <path id="Path_3637" data-name="Path 3637" d="M1733.089,1586.9c-6.376-8.253-1.556-14.208,1.941-18.9C1736.789,1570.671,1743.656,1579.5,1733.089,1586.9Z" transform="translate(-1703.107 -1548.203)" fill="#807dfb"/>
        <path id="Path_3638" data-name="Path 3638" d="M1785.336,1549.031c-2.628-6.624,1.663-9.623,4.845-12.041C1790.832,1539.078,1793.67,1546.175,1785.336,1549.031Z" transform="translate(-1766.278 -1523.36)" fill="#807dfb"/>
        <path id="Path_3639" data-name="Path 3639" d="M1835.37,1520.942c-2.213-3.513-.075-5.69,1.49-7.414C1837.455,1514.655,1839.84,1518.416,1835.37,1520.942Z" transform="translate(-1823.057 -1504.564)" fill="#807dfb"/>
      </g>
      <g id="Group_3940" data-name="Group 3940" transform="translate(38.079 269.768)">
        <path id="Path_3640" data-name="Path 3640" d="M1241.078,1646.332c9.875-6.486,34.207-54.294,15.078-63.56-18.132-8.782-23.883,28.614-24.963,33.471-3.779-18.35-8.724-36.161-20.824-32.922s0,29.145,0,29.145c-11.02-14.033-38.483-35.63-50.983-29.147s25.392,29.735,25.392,29.735c-17.219-9.769-68.678-22.921-17.286,1.907-23.529-7.611-69.415-11.345-18.408,4.53-30.7-2.666-46.283,1.514-46.823,5.833s8.466,10.426,48.14,11.429c-19.6,3.239-29.425,7.823-24.375,9.58Z" transform="translate(-1102.238 -1581.442)" fill="#6b67e9"/>
        <path id="Path_3641" data-name="Path 3641" d="M1547.74,1785.31a1.593,1.593,0,1,0-1.593,1.593A1.593,1.593,0,0,0,1547.74,1785.31Z" transform="translate(-1474.646 -1743.495)" fill="#fff"/>
        <path id="Path_3642" data-name="Path 3642" d="M1274.3,1829.018a2.453,2.453,0,1,0-2.453,2.453A2.452,2.452,0,0,0,1274.3,1829.018Z" transform="translate(-1146.493 -1777.823)" fill="#fff"/>
        <path id="Path_3643" data-name="Path 3643" d="M1434.184,1739.081a2.094,2.094,0,1,0-2.094,2.095A2.093,2.093,0,0,0,1434.184,1739.081Z" transform="translate(-1338.311 -1706.058)" fill="#fff"/>
      </g>
    </g>
    <g id="Secondary_speech_bubbles" data-name="Secondary speech bubbles" transform="translate(60.091 24.158)">
      <g id="Group_3944" data-name="Group 3944" transform="translate(38.475 151.538)">
        <path id="Path_3644" data-name="Path 3644" d="M1224.841,1108.356h69.222a3.863,3.863,0,0,1,3.864,3.863v34.641a3.864,3.864,0,0,1-3.864,3.863h-15.144v9.828l-8.935-9.828h-45.143a3.863,3.863,0,0,1-3.864-3.863v-34.641A3.863,3.863,0,0,1,1224.841,1108.356Z" transform="translate(-1220.977 -1108.356)" fill="#dde2f8"/>
        <g id="Group_3941" data-name="Group 3941" transform="translate(45.585 17.88)">
          <path id="Path_3645" data-name="Path 3645" d="M1355.1,1200.62a2.347,2.347,0,1,1,2.348,2.347A2.347,2.347,0,0,1,1355.1,1200.62Z" transform="translate(-1355.099 -1198.274)" fill="#fff"/>
        </g>
        <g id="Group_3942" data-name="Group 3942" transform="translate(35.865 17.88)">
          <path id="Path_3646" data-name="Path 3646" d="M1403.986,1200.62a2.347,2.347,0,1,1,2.348,2.347A2.347,2.347,0,0,1,1403.986,1200.62Z" transform="translate(-1403.986 -1198.274)" fill="#fff"/>
        </g>
        <g id="Group_3943" data-name="Group 3943" transform="translate(26.143 17.88)">
          <path id="Path_3647" data-name="Path 3647" d="M1452.873,1200.62a2.347,2.347,0,1,1,2.348,2.347A2.347,2.347,0,0,1,1452.873,1200.62Z" transform="translate(-1452.873 -1198.274)" fill="#fff"/>
        </g>
      </g>
      <g id="Group_3948" data-name="Group 3948" transform="translate(0 0)">
        <path id="Path_3648" data-name="Path 3648" d="M1487.552,346.278H1418.33a3.863,3.863,0,0,0-3.864,3.863v34.641a3.863,3.863,0,0,0,3.864,3.863h15.144v9.828l8.936-9.828h45.143a3.863,3.863,0,0,0,3.864-3.863V350.141A3.863,3.863,0,0,0,1487.552,346.278Z" transform="translate(-1414.466 -346.278)" fill="#dde2f8"/>
        <g id="Group_3945" data-name="Group 3945" transform="translate(26.67 17.88)">
          <path id="Path_3649" data-name="Path 3649" d="M1648.409,438.543a2.347,2.347,0,1,0-2.348,2.347A2.347,2.347,0,0,0,1648.409,438.543Z" transform="translate(-1643.714 -436.197)" fill="#fff"/>
        </g>
        <g id="Group_3946" data-name="Group 3946" transform="translate(36.391 17.88)">
          <path id="Path_3650" data-name="Path 3650" d="M1599.522,438.543a2.347,2.347,0,1,0-2.348,2.347A2.347,2.347,0,0,0,1599.522,438.543Z" transform="translate(-1594.828 -436.197)" fill="#fff"/>
        </g>
        <g id="Group_3947" data-name="Group 3947" transform="translate(46.112 17.88)">
          <path id="Path_3651" data-name="Path 3651" d="M1550.635,438.543a2.347,2.347,0,1,0-2.348,2.347A2.347,2.347,0,0,0,1550.635,438.543Z" transform="translate(-1545.941 -436.197)" fill="#fff"/>
        </g>
      </g>
    </g>
    <g id="Speech_bubble_with_face" data-name="Speech bubble with face" transform="translate(263.567 75.002)">
      <g id="Group_3949" data-name="Group 3949" transform="translate(0 0)">
        <path id="Path_3652" data-name="Path 3652" d="M445.653,626.011c5.093.337,8.359-2.374,10.4-4.335-4.431-4.383-6.772-8.486-4.858-11.527,5.542-8.807,34.987-8.708,43.68-7.738,6.392.713,18.532,4.7,16.711,17.222s-13.267,29.989-26.879,22.145a183.326,183.326,0,0,1-22.183-14.534C456.294,630.694,448.031,628.727,445.653,626.011Z" transform="translate(-445.653 -601.972)" fill="#6b67e9"/>
        <path id="Path_3653" data-name="Path 3653" d="M554.114,698.8a31.387,31.387,0,0,0,8.781.339,9.158,9.158,0,0,1-5.98,5.455,8.625,8.625,0,0,1-7.458-1.351,9.158,9.158,0,0,1-3.686-7.206A31.383,31.383,0,0,0,554.114,698.8Z" transform="translate(-516.683 -677.336)" fill="#fff"/>
        <path id="Path_3654" data-name="Path 3654" d="M607.6,657.9c.221-1.223-.229-2.329-1.007-2.469s-1.588.736-1.809,1.959.229,2.328,1.007,2.469S607.379,659.121,607.6,657.9Z" transform="translate(-573.168 -644.787)" fill="#fff"/>
        <path id="Path_3655" data-name="Path 3655" d="M546.677,667.913c.221-1.223,1.032-2.1,1.809-1.959s1.229,1.247,1.008,2.47-1.032,2.1-1.81,1.959S546.456,669.136,546.677,667.913Z" transform="translate(-503.508 -653.219)" fill="#fff"/>
      </g>
    </g>
    <g id="Speech_bubbles" data-name="Speech bubbles" transform="translate(44.691 58.46)">
      <g id="Group_3954" data-name="Group 3954" transform="translate(0 51.573)">
        <path id="Path_3657" data-name="Path 3657" d="M1297.956,778.139h103.978a6.407,6.407,0,0,1,6.407,6.407v60.647a6.407,6.407,0,0,1-6.407,6.406H1323.9L1310,866.894V851.6h-12.043a6.408,6.408,0,0,1-6.407-6.406V784.546A6.408,6.408,0,0,1,1297.956,778.139Z" transform="translate(-1291.549 -778.139)" fill="#362e94"/>
        <g id="Group_3951" data-name="Group 3951" transform="translate(44.08 48.072)">
          <path id="Path_3658" data-name="Path 3658" d="M1364.734,1024.721a6.039,6.039,0,0,0,4.3-1.783,4.307,4.307,0,0,1,6.078,0,6.1,6.1,0,0,0,8.61,0,4.3,4.3,0,0,1,6.076,0,6.086,6.086,0,0,0,8.607,0,4.3,4.3,0,0,1,6.077,0,6.1,6.1,0,0,0,8.609,0,.895.895,0,1,0-1.265-1.265,4.3,4.3,0,0,1-6.079,0,6.1,6.1,0,0,0-8.607,0,4.3,4.3,0,0,1-6.076,0,6.09,6.09,0,0,0-8.607,0,4.3,4.3,0,0,1-6.079,0,6.1,6.1,0,0,0-8.609,0,4.3,4.3,0,0,1-6.075,0,6.087,6.087,0,0,0-8.605,0,.895.895,0,0,0,1.266,1.265,4.3,4.3,0,0,1,6.074,0A6.045,6.045,0,0,0,1364.734,1024.721Z" transform="translate(-1352.828 -1019.892)" fill="#6b67e9"/>
        </g>
        <g id="Group_3952" data-name="Group 3952" transform="translate(44.08 38.998)">
          <path id="Path_3659" data-name="Path 3659" d="M1364.734,979.089a6.039,6.039,0,0,0,4.3-1.783,4.308,4.308,0,0,1,6.079,0,6.1,6.1,0,0,0,8.609,0,4.3,4.3,0,0,1,6.076,0,6.085,6.085,0,0,0,8.607,0,4.306,4.306,0,0,1,6.077,0,6.1,6.1,0,0,0,8.609,0,.895.895,0,0,0-1.266-1.265,4.3,4.3,0,0,1-6.078,0,6.1,6.1,0,0,0-8.607,0,4.3,4.3,0,0,1-6.076,0,6.09,6.09,0,0,0-8.607,0,4.3,4.3,0,0,1-6.079,0,6.1,6.1,0,0,0-8.609,0,4.294,4.294,0,0,1-6.075,0,6.092,6.092,0,0,0-8.605,0,.895.895,0,1,0,1.265,1.266,4.3,4.3,0,0,1,6.075,0A6.045,6.045,0,0,0,1364.734,979.089Z" transform="translate(-1352.828 -974.26)" fill="#6b67e9"/>
        </g>
        <g id="Group_3953" data-name="Group 3953" transform="translate(44.08 29.925)">
          <path id="Path_3660" data-name="Path 3660" d="M1364.734,933.458a6.039,6.039,0,0,0,4.3-1.783,4.307,4.307,0,0,1,6.079,0,6.1,6.1,0,0,0,8.609,0,4.3,4.3,0,0,1,6.076,0,6.086,6.086,0,0,0,8.607,0,4.3,4.3,0,0,1,6.077,0,6.1,6.1,0,0,0,8.609,0,.895.895,0,1,0-1.265-1.266,4.305,4.305,0,0,1-6.079,0,6.1,6.1,0,0,0-8.607,0,4.3,4.3,0,0,1-6.076,0,6.089,6.089,0,0,0-8.607,0,4.305,4.305,0,0,1-6.079,0,6.1,6.1,0,0,0-8.609,0,4.3,4.3,0,0,1-6.075,0,6.087,6.087,0,0,0-8.605,0,.895.895,0,0,0,1.266,1.266,4.3,4.3,0,0,1,6.074,0A6.045,6.045,0,0,0,1364.734,933.458Z" transform="translate(-1352.828 -928.629)" fill="#6b67e9"/>
        </g>
      </g>
      <g id="Group_3960" data-name="Group 3960" transform="translate(48.676)">
        <path id="Path_3661" data-name="Path 3661" d="M1037.875,518.78H1145.6a6.012,6.012,0,0,1,6.013,6.012V578.7a6.013,6.013,0,0,1-6.013,6.013h-23.568v15.294l-13.906-15.294h-70.253a6.013,6.013,0,0,1-6.013-6.013V524.792A6.012,6.012,0,0,1,1037.875,518.78Z" transform="translate(-1031.862 -518.78)" fill="#fa8745"/>
        <g id="Group_3955" data-name="Group 3955" transform="translate(74.675 13.248)">
          <path id="Path_3662" data-name="Path 3662" d="M1237.556,587.491a2.088,2.088,0,1,1,2.089,2.088A2.088,2.088,0,0,1,1237.556,587.491Z" transform="translate(-1237.556 -585.404)" fill="#fff"/>
        </g>
        <g id="Group_3956" data-name="Group 3956" transform="translate(66.027 13.248)">
          <path id="Path_3663" data-name="Path 3663" d="M1281.048,587.491a2.088,2.088,0,1,1,2.089,2.088A2.088,2.088,0,0,1,1281.048,587.491Z" transform="translate(-1281.048 -585.404)" fill="#fff"/>
        </g>
        <g id="Group_3957" data-name="Group 3957" transform="translate(57.379 13.248)">
          <path id="Path_3664" data-name="Path 3664" d="M1324.539,587.491a2.088,2.088,0,1,1,2.089,2.088A2.088,2.088,0,0,1,1324.539,587.491Z" transform="translate(-1324.539 -585.404)" fill="#fff"/>
        </g>
        <g id="Group_3958" data-name="Group 3958" transform="translate(48.731 13.248)">
          <path id="Path_3665" data-name="Path 3665" d="M1368.03,587.491a2.088,2.088,0,1,1,2.089,2.088A2.088,2.088,0,0,1,1368.03,587.491Z" transform="translate(-1368.03 -585.404)" fill="#fff"/>
        </g>
        <g id="Group_3959" data-name="Group 3959" transform="translate(40.083 13.248)">
          <path id="Path_3666" data-name="Path 3666" d="M1411.522,587.491a2.088,2.088,0,1,1,2.089,2.088A2.088,2.088,0,0,1,1411.522,587.491Z" transform="translate(-1411.522 -585.404)" fill="#fff"/>
        </g>
      </g>
      <g id="Group_3961" data-name="Group 3961" transform="translate(65.837 26.918)">
        <path id="Path_3667" data-name="Path 3667" d="M1119.06,655.938H1202.7a.895.895,0,1,0,0-1.79H1119.06a.895.895,0,1,0,0,1.79Z" transform="translate(-1118.165 -654.148)" fill="#fff"/>
      </g>
      <g id="Group_3962" data-name="Group 3962" transform="translate(65.837 35.694)">
        <path id="Path_3668" data-name="Path 3668" d="M1119.06,700.072H1202.7a.895.895,0,1,0,0-1.79H1119.06a.895.895,0,1,0,0,1.79Z" transform="translate(-1118.165 -698.282)" fill="#fff"/>
      </g>
      <g id="Group_3963" data-name="Group 3963" transform="translate(77.739 44.469)">
        <path id="Path_3669" data-name="Path 3669" d="M1119.06,744.2h71.74a.895.895,0,0,0,0-1.79h-71.74a.895.895,0,0,0,0,1.79Z" transform="translate(-1118.165 -742.415)" fill="#fff"/>
      </g>
    </g>
    <g id="Character_symbol" data-name="Character symbol" transform="translate(53.242 121.921)">
      <g id="Group_3964" data-name="Group 3964" transform="translate(0 0)">
        <path id="Path_3670" data-name="Path 3670" d="M1723.063,851.928a14,14,0,1,0-14,14A14,14,0,0,0,1723.063,851.928Z" transform="translate(-1695.06 -837.926)" fill="#5652cc"/>
        <path id="Path_3671" data-name="Path 3671" d="M1732.857,874.782a3.914,3.914,0,0,1-1.557-2.857h0v-.048c-.006-.085-.013-1.064-.013-1.15a3.749,3.749,0,1,1,7.493,0v1.2h-.016a3.906,3.906,0,0,1-1.558,2.856c1.413.1,6.354,1.923,5.242,6.529h-14.832C1726.751,876.583,1731.455,874.876,1732.857,874.782Z" transform="translate(-1721.058 -861.099)" fill="#807dfb"/>
      </g>
    </g>
    <g id="Woman" transform="translate(190.545 95.255)">
      <path id="Path_3672" data-name="Path 3672" d="M948.678,1954.407a3.079,3.079,0,0,1,2.623,2.5h1.994a10.9,10.9,0,0,0,.924-7.551c-.651-2.674-1.338-2.032-2.034-1.339-1.584,1.289-8.048,1.714-8.555-.459-1.669.25-18.849,5.194-18.849,6.782,0,2.574,2.018,2.568,3.392,2.568C944.424,1956.9,942.272,1955.9,948.678,1954.407Z" transform="translate(-910.65 -1700.122)" fill="#20196f"/>
      <path id="Path_3673" data-name="Path 3673" d="M943.459,1924.065c.557-2.448,7.641-4.286,7.272,0a5.826,5.826,0,0,0,.37,2.729h0c-1.586,1.288-16.382,5.861-18.822,2.687C933.98,1928.57,943.459,1926.661,943.459,1924.065Z" transform="translate(-908.723 -1679.363)" fill="#f0ccc0"/>
      <path id="Path_3674" data-name="Path 3674" d="M751.506,1954.407a3.08,3.08,0,0,1,2.624,2.5h1.994a10.9,10.9,0,0,0,.924-7.551c-.651-2.674-1.339-2.032-2.034-1.339-1.584,1.289-8.049,1.714-8.556-.459-1.669.25-18.849,5.194-18.849,6.782,0,2.574,2.018,2.568,3.392,2.568C747.253,1956.9,745.1,1955.9,751.506,1954.407Z" transform="translate(-674.271 -1700.122)" fill="#20196f"/>
      <path id="Path_3675" data-name="Path 3675" d="M746.286,1924.065c.557-2.448,7.641-4.286,7.272,0a5.835,5.835,0,0,0,.37,2.729h0c-1.586,1.288-16.382,5.861-18.822,2.687C736.808,1928.57,746.286,1926.661,746.286,1924.065Z" transform="translate(-672.343 -1679.363)" fill="#f0ccc0"/>
      <path id="Path_3676" data-name="Path 3676" d="M853.228,1195.961c1.67,26.187-8.612,58.728-17.489,83.932,6.106,20.52-1.561,44.12-4.807,62.91h-8.338c-.059-20.965-9.362-123.2.562-146.279C830.077,1196.524,853.228,1195.961,853.228,1195.961Z" transform="translate(-788.422 -1098.1)" fill="#20196f"/>
      <path id="Path_3677" data-name="Path 3677" d="M762.285,1195.961c10.365,15.982,8.153,49.462,4.707,82.222,11.726,20.763,7.489,52.436,8.138,64.62h-8.352c-4.692-14.846-7.356-27.106-15.665-57.414-2.9-10.581-16.365-53.765-17.219-88.978C740.912,1196.411,762.285,1195.961,762.285,1195.961Z" transform="translate(-693.538 -1098.1)" fill="#423eaf"/>
      <g id="Group_3967" data-name="Group 3967" transform="translate(0 39.093)">
        <g id="Group_3965" data-name="Group 3965" transform="translate(13.023)">
          <path id="Path_3678" data-name="Path 3678" d="M902.945,939.21c1.106,4.234,19.393,10.376,21.835,9.459s13.353-48.247,13.353-48.247c-12.269,3.458-16.606,27.712-18.158,36.677-5.533-2.307-14.114-3.023-14.114-3.023s-2.916,2.257-2.916,5.133Z" transform="translate(-902.945 -900.422)" fill="#eb6c21"/>
        </g>
        <path id="Path_3679" data-name="Path 3679" d="M1064.58,1042.141c-1.056.735-2.457,1.982-1.778,2.66a2.351,2.351,0,0,0,1.527.679c0,.475,1.8,1.493,3.257.882a4.591,4.591,0,0,0,1.426.883c.883-.2,2.783-2.341,2.376-3.767a47.477,47.477,0,0,0-1.46-5.4c-.543-1.086-1.391-3.7-2.612-3.462a17.943,17.943,0,0,0-3.454,1.417l2.944,5.031Z" transform="translate(-1054.986 -1007.923)" fill="#f0c9c0"/>
        <g id="Group_3966" data-name="Group 3966" transform="translate(0 25.665)">
          <path id="Path_3680" data-name="Path 3680" d="M1125.5,1033.468c-.94-.5-5.3-3.132-4.775-3.659s1.6-.441,3.155.543a4.551,4.551,0,0,1,1.716,3.232Z" transform="translate(-1120.676 -1029.49)" fill="#f8d8d0"/>
        </g>
        <path id="Path_3681" data-name="Path 3681" d="M1072.989,1023.557c.169.254,6.331,7.679,7.044,8.392.98.98,2.731.544,4.032.212.576-.147,2.559-.407,1.922-1.272s-6.5-7.954-7.241-8.336a16.337,16.337,0,0,0-5.468,0C1073.048,1022.785,1072.669,1023.074,1072.989,1023.557Z" transform="translate(-1071.69 -998.081)" fill="#423eaf"/>
        <path id="Path_3682" data-name="Path 3682" d="M1081.726,1061.8c.629-.328,6.466-1.966,6.72-1.371.519,1.211-1.858,2.491-3.691,3s-3.572.975-3.843.229A1.414,1.414,0,0,1,1081.726,1061.8Z" transform="translate(-1075.675 -1028.506)" fill="#f8d8d0"/>
        <path id="Path_3683" data-name="Path 3683" d="M1076.3,1069.718c.531-.385,5.644-2.669,5.957-2.161.637,1.037-1.362,2.527-2.969,3.24s-3.133,1.374-3.482.728A1.306,1.306,0,0,1,1076.3,1069.718Z" transform="translate(-1068.505 -1034.264)" fill="#f8d8d0"/>
        <path id="Path_3684" data-name="Path 3684" d="M1110.837,1049.695c-1,.118-2.193.449-2.753-.518s.446-2.3,1.145-3,1.553-.916,2.114-.357-.417,1.74-.935,2.258l1.164,1.4Z" transform="translate(-1104.121 -1016.651)" fill="#f8d8d0"/>
      </g>
      <path id="Path_3685" data-name="Path 3685" d="M823.08,941.979a358.847,358.847,0,0,1,2.732-43.962c.745-6.217-2.054-17.212-7.8-18.587a17.344,17.344,0,0,0-15.834,4.047c-6.472,5.8-17.374,20.776-16.833,23.79.991,5.522,6.056,7.246,5.348,20.421s-1.631,14.854-1.631,14.854S816.417,941.979,823.08,941.979Z" transform="translate(-754.332 -844.118)" fill="#fa8745"/>
      <path id="Path_3686" data-name="Path 3686" d="M850.279,753.334c2.325-2.559,1.951-7.676.745-9.008s-5.782.427-7.229-1.628c-1.952-2.771-3.814-8.425-4.209-13.261-.576-7.068.952-12.081,8.8-12.584,6.232-.4,11.255,3.574,12.386,9.907,1.26,7.067-1.436,14.773-.633,17.178a4.619,4.619,0,0,0,2.759,2.99S861.966,753.334,850.279,753.334Z" transform="translate(-802.069 -714.24)" fill="#f7d3c9"/>
      <g id="Group_3968" data-name="Group 3968" transform="translate(32.186 37.613)">
        <path id="Path_3687" data-name="Path 3687" d="M890.548,962.95c-1.565-.7-9.517-3.785-9.816-5.028a4.453,4.453,0,0,1,0-2.186,2.446,2.446,0,0,1-.8-2.162c-.36-.36-1.615-1.665-.72-3.082-.622-.124-7.685-.158-7.685-1.408.811-.812,6.119-.952,7.261-.952s5.17-.133,7.225.6,3.379,4.375,4.373,5.368,3.412,3.082,3.412,3.082Z" transform="translate(-871.532 -937.156)" fill="#f8d8d0"/>
        <path id="Path_3688" data-name="Path 3688" d="M741.959,903.278c-3.234-5.807-7.345-9.576-8.648-10.117-3.137-1.3-11.893,4.385-1.862,18.4a102.108,102.108,0,0,0,7.908,10.211c.006.055.013.108.018.162-6.031-3.732-14.242-8.637-16.463-9.706,0,0-2.795,5.01-4.108,7.279,12.83,11.415,14.468,12.377,20.895,17.064,5.563,4.056,11.234,3.363,12.154,1.557C755.456,932.791,748.545,915.1,741.959,903.278Z" transform="translate(-700.201 -892.979)" fill="#eb6c21"/>
      </g>
      <g id="Group_3969" data-name="Group 3969" transform="translate(37.23 0)">
        <path id="Path_3689" data-name="Path 3689" d="M643.761,721.467c-.08,6.118,9.349,8.586,17.268,11.948,8.784,3.729,21.311,11.97,25.045,26.829,1.647,6.908-7.925,12.614-14.761,12.074-6.656-.528-6.784,3.317-11.751,5.309-18.277,3.045-1.828-16.214-1.863-29s-11.411-7.41-17.552-12.584c-4.307-3.629-1.156-7.005-4.129-11.092-2.6-3.569-5.2-4.9-9.554-5.125-4.044-.2-6.639-3.519-7.539-7.107a2.036,2.036,0,0,1,.151-1.853C622.283,700.237,644.042,700.04,643.761,721.467Z" transform="translate(-618.774 -703.823)" fill="#362e93"/>
        <path id="Path_3690" data-name="Path 3690" d="M761.411,752.724c6.375-2.938,6.99,6.113,9.575,5.841,5.05-.532-1.151,8.015,3.166,11.65,6.155,5.184,17.507-.217,17.556,12.588s-14.643,29.677,1.9,28.983c-4.337,1.518-7.789,1.723-11.169-2.562-8.419-10.679,9.329-22.966-1.378-28.805-9.693-5.286-13.344-7.76-12.674-15.506.6-6.92-2.154-3.787-4.778-8.152-1.161-1.93-4.14.618-6.351-1.092a11.327,11.327,0,0,1-4.412-9.189C753.9,750.165,757.663,754.451,761.411,752.724Z" transform="translate(-752.782 -737.998)" fill="#1f196f"/>
      </g>
    </g>
    <g id="Secondary_shapes" data-name="Secondary shapes" transform="translate(24.801 12.06)">
      <path id="Path_3691" data-name="Path 3691" d="M659.455,356.774l-3.862-7.589a1.781,1.781,0,0,0-2.395-.781l-7.589,3.863a1.782,1.782,0,0,0-.78,2.4l3.862,7.589a1.78,1.78,0,0,0,2.395.78l7.59-3.863A1.782,1.782,0,0,0,659.455,356.774Z" transform="translate(-394.331 -335.728)" fill="#bbc0e6"/>
      <path id="Path_3692" data-name="Path 3692" d="M1924.53,287.46l-3.758,9.933a1.494,1.494,0,0,1-2.554.417l-6.723-8.221a1.494,1.494,0,0,1,.916-2.42l10.482-1.712A1.494,1.494,0,0,1,1924.53,287.46Z" transform="translate(-1911.155 -285.436)" fill="#6b67e9"/>
      <path id="Path_3693" data-name="Path 3693" d="M1423.2,2049.748l7.255,7.755a1.493,1.493,0,0,1-.753,2.476l-10.344,2.406a1.494,1.494,0,0,1-1.769-1.89l3.09-10.161A1.493,1.493,0,0,1,1423.2,2049.748Z" transform="translate(-1319.231 -1698.538)" fill="#ffd03e"/>
    </g>
  </g>
</svg>
