<?xml version="1.0" encoding="utf-8"?>
<!-- Generator: Adobe Illustrator 26.2.1, SVG Export Plug-In . SVG Version: 6.00 Build 0)  -->
<svg version="1.1" id="Capa_1" xmlns="http://www.w3.org/2000/svg" xmlns:xlink="http://www.w3.org/1999/xlink" x="0px" y="0px"
	 viewBox="0 0 1392 260" style="enable-background:new 0 0 1392 260;" xml:space="preserve">
<style type="text/css">
	.st0{fill:#20196F;}
	.st1{fill:#CF7D00;}
	.st2{fill:#FA9962;}
	.st3{clip-path:url(#SVGID_00000083072202215567574970000005675758545774023062_);}
	.st4{fill:#402CD6;}
	.st5{clip-path:url(#SVGID_00000083069941725630424720000012893537387307325594_);}
	.st6{clip-path:url(#SVGID_00000049926241841491147010000013811953294580928168_);}
	.st7{fill:#5652CC;}
	.st8{clip-path:url(#SVGID_00000011711766459147346990000003605229794742719120_);}
	.st9{fill:#FC7A30;}
	.st10{clip-path:url(#SVGID_00000144305924914404354540000003930898517552060337_);}
	.st11{fill:none;}
	.st12{opacity:0.177;fill:#4F4D74;enable-background:new    ;}
	.st13{fill:#362E94;}
	.st14{fill:#F0CCC0;}
	.st15{fill:#DB7338;}
	.st16{fill:#F7D3C9;}
	.st17{fill:#EB6C21;}
</style>
<g id="Group_4468" transform="translate(-70 -323.811)">
	<g id="Group_4445" transform="translate(-93 -100.687)">
		<path id="Path_5646" class="st0" d="M1458,452.9c1-3.2-5.1-6.9-6.8-8.3c-2.4-1.9-11.8-13.7-11.8-13.7c-2.5,8,0.6,22.6,8.6,25.2
			c-1.5,3.5,0.1,7.6,3.7,9.1c3.5,1.5,7.6-0.1,9.1-3.7C1462.1,458.4,1460.9,454.7,1458,452.9L1458,452.9z"/>
		<path id="Path_5648" class="st1" d="M1459.7,448.1c-2.7,1-4.8,2.9-6.1,5.5c-0.6,2.7,0,5.2,0.5,13.2c0.3,5,3.6,6.3,6.9,8.2
			c3.7-6.7,5.6-14.2,5.7-21.8C1466.8,450,1462.7,447.1,1459.7,448.1z"/>
		<path id="Path_5660" class="st2" d="M1496.9,478.5c-4.7,7.9-23.1,11.8-23.1,11.8c-1.3-22.4-15.7-12.8-18-23.8
			c-1.9-9-2.9-10.9-2.2-14.3c2-9.6,6.3-10.4,14.6-8.3C1479.3,446.7,1491.9,468.3,1496.9,478.5z"/>
		<g id="Group_4444" transform="translate(70 447.413)">
			<g id="Group_4417" transform="translate(840.732 158.325)">
				<g>
					<g>
						<defs>
							<rect id="SVGID_1_" x="504.5" y="0" width="79" height="70.6"/>
						</defs>
						<clipPath id="SVGID_00000182519099143142577470000018387693007819364748_">
							<use xlink:href="#SVGID_1_"  style="overflow:visible;"/>
						</clipPath>
						<g id="Group_4416" style="clip-path:url(#SVGID_00000182519099143142577470000018387693007819364748_);">
							<path id="Path_6423" class="st4" d="M527.6,70.6c-12.7,0-23.1-10.3-23.1-23.1v-31c0-3.2,2.6-5.8,5.8-5.8
								c3.2,0,5.8,2.6,5.8,5.8v31c0,6.4,5.2,11.6,11.6,11.6c6.4,0,11.6-5.2,11.6-11.6V18c0-10,8.1-18,18-18h20.5
								c3.2,0,5.8,2.6,5.8,5.8s-2.6,5.8-5.8,5.8l0,0h-20.5c-3.6,0-6.5,2.9-6.5,6.5v29.5C550.6,60.3,540.3,70.6,527.6,70.6"/>
						</g>
					</g>
				</g>
			</g>
			<g id="Group_4420" transform="translate(776.41 120.316)">
				<g>
					<g>
						<defs>
							<rect id="SVGID_00000040564274126432313400000011718619764178672785_" x="504.5" y="0" width="75.8" height="81.2"/>
						</defs>
						<clipPath id="SVGID_00000074416837620530117180000011112506981134747567_">
							<use xlink:href="#SVGID_00000040564274126432313400000011718619764178672785_"  style="overflow:visible;"/>
						</clipPath>
						<g id="Group_4419" style="clip-path:url(#SVGID_00000074416837620530117180000011112506981134747567_);">
							<path id="Path_6424" class="st2" d="M528.5,81.2c-13.2,0-24-10.7-24-24V11.8c0-3.2,2.6-5.8,5.8-5.8c3.2,0,5.8,2.6,5.8,5.8
								v45.4c-0.1,6.9,5.5,12.5,12.4,12.6c6.9,0.1,12.5-5.5,12.6-12.4c0-0.1,0-0.1,0-0.2V19.7c0-10.9,8.8-19.7,19.7-19.7
								c10.9,0,19.7,8.8,19.7,19.7v34.9c0,3.2-2.6,5.8-5.8,5.8c-3.2,0-5.8-2.6-5.8-5.8V19.7c0.1-4.5-3.4-8.3-8-8.4
								c-4.5-0.1-8.3,3.4-8.4,8c0,0.2,0,0.3,0,0.5v37.6C552.4,70.5,541.7,81.2,528.5,81.2"/>
						</g>
					</g>
				</g>
			</g>
			<g id="Group_4423" transform="translate(732.778 52.845)">
				<g>
					<g>
						<defs>
							<rect id="SVGID_00000129197099441713059470000006660135099973565588_" x="504.5" y="0" width="55.1" height="127.5"/>
						</defs>
						<clipPath id="SVGID_00000176025394294140491060000017190627253043512235_">
							<use xlink:href="#SVGID_00000129197099441713059470000006660135099973565588_"  style="overflow:visible;"/>
						</clipPath>
						<g id="Group_4422" style="clip-path:url(#SVGID_00000176025394294140491060000017190627253043512235_);">
							<path id="Path_6425" class="st7" d="M510.2,127.5c-3.2,0-5.7-2.6-5.7-5.7V27.6c0-15.3,12.3-27.6,27.6-27.6
								c15.2,0,27.6,12.3,27.6,27.6v51.7c0,3.2-2.6,5.8-5.8,5.8c-3.2,0-5.8-2.6-5.8-5.8V27.6c0-8.9-7.2-16.1-16.1-16.1
								s-16.1,7.2-16.1,16.1l0,0v94.2C516,125,513.4,127.5,510.2,127.5"/>
						</g>
					</g>
				</g>
			</g>
			<g id="Group_4426" transform="translate(708.189 145.524)">
				<g>
					<g>
						<defs>
							<rect id="SVGID_00000170961607425738296720000015311237589881438641_" x="504.5" y="0" width="36.1" height="91.5"/>
						</defs>
						<clipPath id="SVGID_00000079471129873144515580000016590456547195787397_">
							<use xlink:href="#SVGID_00000170961607425738296720000015311237589881438641_"  style="overflow:visible;"/>
						</clipPath>
						<g id="Group_4425" style="clip-path:url(#SVGID_00000079471129873144515580000016590456547195787397_);">
							<path id="Path_6426" class="st9" d="M522.5,91.5c-10,0-18-8.1-18-18V5.7c0-3.2,2.6-5.8,5.8-5.8c3.2,0,5.8,2.6,5.8,5.8v67.8
								c0,3.6,2.9,6.5,6.5,6.6c3.6,0,6.5-2.9,6.6-6.5l0,0V29.1c0-3.2,2.6-5.8,5.8-5.8s5.8,2.6,5.8,5.8v44.4
								C540.6,83.5,532.5,91.5,522.5,91.5"/>
						</g>
					</g>
				</g>
			</g>
			<path id="Path_6427" class="st2" d="M1206.2,90.9c-10,0-18,8.1-18,18v42.9c0,3.6-2.9,6.5-6.5,6.5H597.5v11.5h584.1
				c10,0,18-8.1,18-18v-42.9c0-3.6,2.9-6.5,6.5-6.5s6.5,2.9,6.5,6.5v42.4c0,3.2,2.6,5.8,5.8,5.8c3.2,0,5.8-2.6,5.8-5.8l0,0v-42.4
				C1224.2,98.9,1216.1,90.9,1206.2,90.9"/>
			<g id="Group_4432" transform="translate(908.204 139.208)">
				<g>
					<g>
						<defs>
							<rect id="SVGID_00000114050677552723258610000014879361209740039593_" x="504.5" y="0" width="72.3" height="49.7"/>
						</defs>
						<clipPath id="SVGID_00000026135125079811942040000002548124680878457515_">
							<use xlink:href="#SVGID_00000114050677552723258610000014879361209740039593_"  style="overflow:visible;"/>
						</clipPath>
						<g id="Group_4431" style="clip-path:url(#SVGID_00000026135125079811942040000002548124680878457515_);">
							<path id="Path_6428" class="st9" d="M575.5,21.2c-0.1-0.2-0.3-0.3-0.4-0.4L556,1.7c-2.2-2.2-5.9-2.2-8.1,0s-2.2,5.9,0,8.1
								l0,0l9.3,9.3h-46.9c-3.2,0-5.8,2.6-5.8,5.8s2.6,5.8,5.8,5.8h46.9l-9.3,9.3c-2.2,2.2-2.2,5.9,0,8.1c2.2,2.2,5.9,2.2,8.1,0
								L575.1,29C577.2,26.9,577.4,23.5,575.5,21.2"/>
						</g>
					</g>
				</g>
			</g>
			<rect id="Rectangle_790" x="1104.6" y="52.8" class="st11" width="380.4" height="184.2"/>
			<rect id="Rectangle_791" x="1104.6" y="52.8" class="st11" width="380.4" height="184.2"/>
			<path id="Path_5639" class="st12" d="M1388.8,136.9c0-2.6,14.3-4.7,32-4.7s32,2.1,32,4.7s-14.3,4.7-32,4.7
				S1388.8,139.5,1388.8,136.9z"/>
			<g id="Group_4338" transform="translate(889.513 32.736)">
				<path id="Path_5640" class="st13" d="M537.4,0c2.2,14.4-13.4,34.1-18.3,52c2.8,12.2,0.1,19.8,2.8,41.4h-4.7
					c-4.1-10-6.8-17.5-12.4-39.5c-1.8-7,5-28.2,10-45.3C519.1,6.9,537.4,0,537.4,0z"/>
				<path id="Path_5641" class="st14" d="M522.6,95.1c-0.4-0.5-0.6-1.1-0.7-1.7h-4.7c0.5,1,0.5,2.1,0.2,3.1
					C518.6,97,520.4,95.8,522.6,95.1z"/>
				<path id="Path_5642" class="st0" d="M522.6,95.1c-2.2,0.7-4,1.9-5.3,1.4c-0.6,0.5-10.2,3.9-11.2,4.6s-0.9,1.7,0.2,1.7
					c1.5,0,14.2-0.6,14.2-0.6c0.3,0.3,0.5,0.6,0.5,0.6h2.9C524.8,101.3,524.6,96.8,522.6,95.1z"/>
			</g>
			<g id="Group_4339" transform="translate(902.076 31.06)">
				<path id="Path_5643" class="st7" d="M524.9,0c10.2,13.3,4.4,35.2,0,53.1c4.4,11.2,5,25.7,7.6,47.4h-4.7
					c-5.4-13.3-10.7-25.7-18.7-45c-2.8-6.7-5.6-36.6-4.4-55.5H524.9z"/>
				<path id="Path_5644" class="st14" d="M533.3,102.2c-0.4-0.5-0.6-1.1-0.7-1.7h-4.7c0.5,1,0.5,2.1,0.2,3.1
					C529.2,104.1,531,102.9,533.3,102.2z"/>
				<path id="Path_5645" class="st0" d="M533.3,102.2c-2.2,0.7-4,1.9-5.3,1.4c-0.6,0.5-10.2,3.9-11.2,4.6s-0.8,1.7,0.2,1.7
					c1.5,0,14.2-0.6,14.2-0.6c0.3,0.3,0.5,0.6,0.5,0.6h2.9C535.5,108.4,535.3,103.9,533.3,102.2z"/>
			</g>
			<path id="Path_5647" class="st15" d="M1396.8,5.8c0-3.1-4.1-6.1-7.1-5.1c-2.9,1.1-5.3,3.4-6.4,6.3c-2.1,19.1-4.6,28-20.7,42.9
				c0,0,2.1,3,2.9,4.4C1393.1,35.2,1396.7,16.3,1396.8,5.8z"/>
			<g id="Group_4340" transform="translate(798.282 18.152)">
				<path id="Path_5658" class="st2" d="M545.8,57.9c-9.1,0-16.5-7.4-16.5-16.5s7.4-16.5,16.5-16.5V0c-22.8,0-41.3,18.5-41.3,41.3
					c0,11,4.4,21.5,12.1,29.2l29.2,28.6V57.9L545.8,57.9z"/>
				<path id="Path_5659" class="st9" d="M575.1,12.1C567.3,4.3,556.8,0,545.8,0v24.8l0,0c9.1,0,16.5,7.4,16.5,16.5
					s-7.4,16.5-16.5,16.5v41.3l0,0L575,70.5C591.2,54.4,591.2,28.2,575.1,12.1z"/>
			</g>
			<g id="Group_4341" transform="translate(865.595)">
				<path id="Path_5661" class="st16" d="M515.3,51.7c-0.7,0.7-0.7,1.3-2.4,1.6c-1.7,0.3-2.4,0.2-3.1,0.4s-3.2,0.5-3.1,0.8
					c0.1,0.3,2.9,0.3,2.9,0.6s-6.2,4.1-4.9,4.8c2.5,1.2,5.5,1.1,7.9-0.3c2.1-1.3,3.3-3.4,4.7-4C518.2,53.6,517.1,52.1,515.3,51.7z"
					/>
				<path id="Path_5662" class="st17" d="M538.7,3.6c-1.2-2.9-6.2-4-8.5-1.9c-2.3,2.1-4.6,5.8-2.7,12.3c1.3,4.2,2.1,8.5,2.4,12.8
					c3.4,1.6,6.7,4.3,7.9,12C543,27.8,543.3,15,538.7,3.6z"/>
				<path id="Path_5663" class="st2" d="M538.7,3.6c-0.9-3-5.7-4.6-8.2-2.8s-5.2,5.3-4,12c3.1,17.3-0.4,26.8-13.3,39.6
					c0,0,2.5,3.2,3.4,4.6C543.7,37.3,541.7,13.7,538.7,3.6z"/>
			</g>
		</g>
		<g id="Group_4342" transform="translate(934.763 424.498)">
			<path id="Path_5664" class="st16" d="M525.9,20.1L525.9,20.1c-2.1-2-3.5-4.6-3.9-7.5c0,0-0.5-5.6-3.5-9c-3.9-4.4-12,0.5-13.2,3.3
				c-1.3,3.8,0.3,6.5,2.3,10.1c0,0,1.2,4,1.3,4.2c0.2,0.3,1.1-0.5,1.2-0.4c0.1,0.1,1.4,2.1,2.5,2.4c1.1,0.3,2.8-1.4,3.6-1.5
				c1.3-0.2,2.9-0.1,3.3,3.1C519.8,29.8,524.7,26.3,525.9,20.1z"/>
			<path id="Path_5665" class="st13" d="M548.2,14.3c-0.2-3.5-3.2-6.2-6.7-6c-0.7,0-1.3,0.2-1.9,0.4l-0.2,0.1l0,0
				c-3.3,1.4-11,1.9-15.5-2.7c-5.3-5.4-9.2-7.3-13.6-5.3c-4.4,2-6.4,5.7-5.5,8.2c3.6,6.2,6.6,6.3,9.1,4.8c2.2-1.3,4.3-0.4,5,1.6
				c0.6,1.8,3.3,3.8,5.2,4.9c-0.6,3,1.6,9.1,6.4,10c3.2,0.6,6.3-0.9,7.9-3.7c2.1,4.4,7.3,6.2,11.6,4.2c4.4-2.1,6.2-7.3,4.2-11.6
				C552.9,16.7,550.7,14.9,548.2,14.3L548.2,14.3z"/>
		</g>
	</g>
</g>
<rect x="0.1" y="181.2" class="st2" width="510.5" height="11.5"/>
</svg>
