<svg xmlns="http://www.w3.org/2000/svg" xmlns:xlink="http://www.w3.org/1999/xlink" width="887.492" height="259.982" viewBox="0 0 887.492 259.982">
  <defs>
    <clipPath id="clip-path">
      <rect id="Rectangle_784" data-name="Rectangle 784" width="78.966" height="70.645" fill="#402cd6"/>
    </clipPath>
    <clipPath id="clip-path-2">
      <rect id="Rectangle_785" data-name="Rectangle 785" width="75.818" height="81.215" fill="#fa9962"/>
    </clipPath>
    <clipPath id="clip-path-3">
      <rect id="Rectangle_786" data-name="Rectangle 786" width="55.126" height="127.546" fill="#5652cc"/>
    </clipPath>
    <clipPath id="clip-path-4">
      <rect id="Rectangle_787" data-name="Rectangle 787" width="36.085" height="91.543" fill="#fc7a30"/>
    </clipPath>
    <clipPath id="clip-path-5">
      <rect id="Rectangle_789" data-name="Rectangle 789" width="72.288" height="49.729" fill="#fc7a30"/>
    </clipPath>
  </defs>
  <g id="Group_4468" data-name="Group 4468" transform="translate(-70 -323.811)">
    <g id="Group_4445" data-name="Group 4445" transform="translate(-93 -100.687)">
      <path id="Path_5646" data-name="Path 5646" d="M1393.679,873.569c1.04-3.191-5.075-6.865-6.847-8.29-2.371-1.909-11.75-13.719-11.75-13.719-2.476,7.971.614,22.555,8.6,25.186a6.915,6.915,0,1,0,9.993-3.177Z" transform="translate(-440.167 -420.657)" fill="#20196f"/>
      <path id="Path_5648" data-name="Path 5648" d="M1444.957,925.354a10.856,10.856,0,0,0-6.055,5.5c-.648,2.685-.018,5.245.464,13.223.3,4.983,3.57,6.3,6.928,8.186a46.2,46.2,0,0,0,5.716-21.8C1452.038,927.323,1447.926,924.365,1444.957,925.354Z" transform="translate(-489.711 -477.299)" fill="#cf7d00"/>
      <path id="Path_5660" data-name="Path 5660" d="M1481.927,939.416c-4.709,7.921-23.115,11.832-23.115,11.832-1.257-22.416-15.708-12.814-18.038-23.806-1.9-8.972-2.943-10.86-2.225-14.265,2.028-9.628,6.266-10.438,14.645-8.3C1464.24,907.687,1476.836,929.278,1481.927,939.416Z" transform="translate(-489.478 -460.94)" fill="#fa9962"/>
      <g id="Group_4444" data-name="Group 4444" transform="translate(70 447.413)">
        <g id="Group_4417" data-name="Group 4417" transform="translate(840.732 158.325)">
          <g id="Group_4416" data-name="Group 4416" clip-path="url(#clip-path)">
            <path id="Path_6423" data-name="Path 6423" d="M1393.565,671.326a23.091,23.091,0,0,1-23.065-23.065V617.224a5.748,5.748,0,0,1,11.5,0v31.037a11.57,11.57,0,0,0,23.14,0V618.723a18.063,18.063,0,0,1,18.042-18.042h20.541a5.748,5.748,0,0,1,0,11.5h-20.541a6.555,6.555,0,0,0-6.547,6.547v29.537a23.091,23.091,0,0,1-23.065,23.065" transform="translate(-1370.5 -600.681)" fill="#402cd6"/>
          </g>
        </g>
        <g id="Group_4420" data-name="Group 4420" transform="translate(776.41 120.316)">
          <g id="Group_4419" data-name="Group 4419" clip-path="url(#clip-path-2)">
            <path id="Path_6424" data-name="Path 6424" d="M1028.166,465.446a23.992,23.992,0,0,1-23.965-23.965V396.051a5.748,5.748,0,0,1,11.5,0v45.431a12.47,12.47,0,1,0,24.939,0V403.923a19.692,19.692,0,0,1,39.384,0v34.86a5.748,5.748,0,1,1-11.5,0v-34.86a8.2,8.2,0,1,0-16.393,0v37.559a23.992,23.992,0,0,1-23.965,23.965" transform="translate(-1004.201 -384.231)" fill="#fa9962"/>
          </g>
        </g>
        <g id="Group_4423" data-name="Group 4423" transform="translate(732.778 52.845)">
          <g id="Group_4422" data-name="Group 4422" clip-path="url(#clip-path-3)">
            <path id="Path_6425" data-name="Path 6425" d="M761.481,127.547a5.748,5.748,0,0,1-5.748-5.748V27.564a27.563,27.563,0,1,1,55.127,0V79.292a5.748,5.748,0,0,1-11.5,0V27.564a16.068,16.068,0,1,0-32.136,0V121.8a5.748,5.748,0,0,1-5.748,5.748" transform="translate(-755.733 -0.001)" fill="#5652cc"/>
          </g>
        </g>
        <g id="Group_4426" data-name="Group 4426" transform="translate(708.189 145.524)">
          <g id="Group_4425" data-name="Group 4425" clip-path="url(#clip-path-4)">
            <path id="Path_6426" data-name="Path 6426" d="M633.745,619.324A18.063,18.063,0,0,1,615.7,601.281V533.529a5.748,5.748,0,0,1,11.5,0v67.753a6.547,6.547,0,1,0,13.094,0V556.9a5.748,5.748,0,0,1,11.5,0v44.381a18.063,18.063,0,0,1-18.042,18.043" transform="translate(-615.703 -527.781)" fill="#fc7a30"/>
          </g>
        </g>
        <path id="Path_6427" data-name="Path 6427" d="M172.409,216.451a18.054,18.054,0,0,0-18.034,18.034v42.89a6.555,6.555,0,0,1-6.547,6.547H-436.241v11.5H147.828a18.063,18.063,0,0,0,18.042-18.042v-42.89a6.539,6.539,0,0,1,13.078,0v42.384a5.748,5.748,0,1,0,11.5,0V234.485a18.054,18.054,0,0,0-18.034-18.034" transform="translate(529.241 -125.597)" fill="#fa9962"/>
        <g id="Group_4432" data-name="Group 4432" transform="translate(908.204 139.208)">
          <g id="Group_4431" data-name="Group 4431" clip-path="url(#clip-path-5)">
            <path id="Path_6428" data-name="Path 6428" d="M1825.728,513.052a5.81,5.81,0,0,0-.395-.437L1806.217,493.5a5.747,5.747,0,1,0-8.128,8.128l9.305,9.305h-46.917a5.748,5.748,0,0,0,0,11.5h46.917l-9.305,9.305a5.747,5.747,0,1,0,8.128,8.128l19.117-19.117a5.748,5.748,0,0,0,.395-7.692" transform="translate(-1754.729 -491.815)" fill="#fc7a30"/>
          </g>
        </g>
        <rect id="Rectangle_790" data-name="Rectangle 790" width="380.421" height="184.222" transform="translate(600.07 52.845)" fill="none"/>
        <rect id="Rectangle_791" data-name="Rectangle 791" width="380.422" height="184.222" transform="translate(600.07 52.845)" fill="none"/>
        <path id="Path_5639" data-name="Path 5639" d="M1399.923,1502.013c0-2.594,14.335-4.7,32.016-4.7s32.015,2.1,32.015,4.7-14.333,4.7-32.015,4.7S1399.923,1504.607,1399.923,1502.013Z" transform="translate(-515.604 -1365.154)" fill="#4f4d74" opacity="0.177"/>
        <g id="Group_4338" data-name="Group 4338" transform="translate(889.513 32.736)">
          <path id="Path_5640" data-name="Path 5640" d="M1517.534,1065.3c2.214,14.45-13.437,34.064-18.257,51.992,2.785,12.222.129,19.763,2.758,41.381h-4.715c-4.1-10-6.795-17.512-12.395-39.527-1.792-7.048,5.025-28.207,10.022-45.349C1499.194,1072.226,1517.534,1065.3,1517.534,1065.3Z" transform="translate(-1484.633 -1065.299)" fill="#362e94"/>
          <path id="Path_5641" data-name="Path 5641" d="M1545.123,1472.292a4.462,4.462,0,0,1-.708-1.726H1539.7a4.116,4.116,0,0,1,.167,3.138C1541.094,1474.175,1542.887,1472.959,1545.123,1472.292Z" transform="translate(-1527.012 -1377.192)" fill="#f0ccc0"/>
          <path id="Path_5642" data-name="Path 5642" d="M1506.072,1478.056c-2.237.667-4.03,1.884-5.258,1.412-.648.472-10.212,3.911-11.186,4.577-1,.682-.851,1.74.2,1.74,1.541,0,14.241-.559,14.241-.559.258.28.467.559.467.559h2.9C1508.309,1484.284,1508.073,1479.783,1506.072,1478.056Z" transform="translate(-1487.96 -1382.957)" fill="#20196f"/>
        </g>
        <g id="Group_4339" data-name="Group 4339" transform="translate(902.076 31.06)">
          <path id="Path_5643" data-name="Path 5643" d="M1559.533,1058.031c10.23,13.339,4.426,35.168.039,53.107,4.429,11.239,5.007,25.744,7.635,47.363h-4.715c-5.438-13.268-10.677-25.741-18.669-44.951-2.794-6.714-5.57-36.617-4.379-55.522Z" transform="translate(-1539.16 -1058.028)" fill="#5652cc"/>
          <path id="Path_5644" data-name="Path 5644" d="M1645.851,1495.834a4.447,4.447,0,0,1-.71-1.726h-4.715a4.118,4.118,0,0,1,.167,3.137C1641.819,1497.717,1643.614,1496.5,1645.851,1495.834Z" transform="translate(-1617.094 -1393.636)" fill="#f0ccc0"/>
          <path id="Path_5645" data-name="Path 5645" d="M1606.8,1501.6c-2.237.667-4.031,1.883-5.258,1.412-.649.471-10.214,3.911-11.186,4.577-1,.682-.85,1.74.2,1.74,1.542,0,14.241-.559,14.241-.559.259.279.467.559.467.559h2.9C1609.033,1507.825,1608.8,1503.323,1606.8,1501.6Z" transform="translate(-1578.041 -1399.399)" fill="#20196f"/>
        </g>
        <path id="Path_5647" data-name="Path 5647" d="M1382.62,930.468c.029-3.145-4.084-6.1-7.053-5.114a10.894,10.894,0,0,0-6.4,6.3c-2.125,19.052-4.579,28.017-20.7,42.939,0,0,2.065,2.976,2.939,4.422C1378.9,959.933,1382.524,941.008,1382.62,930.468Z" transform="translate(-490.321 -924.712)" fill="#db7338"/>
        <g id="Group_4340" data-name="Group 4340" transform="translate(798.282 18.152)">
          <path id="Path_5658" data-name="Path 5658" d="M1129.988,1059.854a16.53,16.53,0,0,1,0-33.061V1002a41.327,41.327,0,0,0-29.221,70.55l29.221,28.632v-41.33Z" transform="translate(-1088.662 -1002.002)" fill="#fa9962"/>
          <path id="Path_5659" data-name="Path 5659" d="M1297.254,1014.1a41.2,41.2,0,0,0-29.226-12.1v24.791h0a16.53,16.53,0,1,1,0,33.061v41.33h0l29.225-28.632A41.34,41.34,0,0,0,1297.254,1014.1Z" transform="translate(-1226.702 -1002.002)" fill="#fc7a30"/>
        </g>
        <g id="Group_4341" data-name="Group 4341" transform="translate(865.595)">
          <path id="Path_5661" data-name="Path 5661" d="M1391.633,1147.547c-.674.653-.738,1.261-2.433,1.562s-2.356.187-3.141.354-3.19.452-3.063.823,2.947.312,2.93.606-6.169,4.073-4.946,4.819a8.3,8.3,0,0,0,7.908-.306c2.054-1.286,3.27-3.422,4.674-4.046C1394.494,1149.484,1393.412,1147.995,1391.633,1147.547Z" transform="translate(-1380.82 -1095.861)" fill="#f7d3c9"/>
          <path id="Path_5662" data-name="Path 5662" d="M1489.521,928.816c-1.229-2.895-6.18-3.968-8.508-1.876s-4.571,5.849-2.644,12.319a54.908,54.908,0,0,1,2.435,12.849c3.407,1.567,6.654,4.28,7.86,12.047A44.259,44.259,0,0,0,1489.521,928.816Z" transform="translate(-1455.333 -925.242)" fill="#eb6c21"/>
          <path id="Path_5663" data-name="Path 5663" d="M1443.967,926.791c-.9-3.013-5.7-4.627-8.248-2.807s-5.19,5.307-3.992,11.951c3.127,17.337-.4,26.805-13.28,39.638,0,0,2.5,3.186,3.4,4.614C1448.964,960.552,1446.984,936.891,1443.967,926.791Z" transform="translate(-1409.778 -923.217)" fill="#fa9962"/>
        </g>
      </g>
      <g id="Group_4342" data-name="Group 4342" transform="translate(934.763 424.498)">
        <path id="Path_5664" data-name="Path 5664" d="M1399.617,849.609l.005,0a12.751,12.751,0,0,1-3.937-7.532s-.484-5.557-3.549-9.032c-3.911-4.435-12,.5-13.162,3.279-1.314,3.788.273,6.482,2.345,10.079,0,0,1.2,3.967,1.339,4.183.2.315,1.071-.463,1.227-.357s1.351,2.113,2.519,2.419,2.765-1.353,3.575-1.453c1.259-.156,2.924-.077,3.316,3.12C1393.458,859.313,1398.43,855.854,1399.617,849.609Z" transform="translate(-1378.199 -829.538)" fill="#f7d3c9"/>
        <path id="Path_5665" data-name="Path 5665" d="M1420.879,838.064a6.326,6.326,0,0,0-8.593-5.568c-.045.016-.2.072-.227.084l0,0c-3.294,1.407-10.954,1.913-15.521-2.742-5.269-5.371-9.194-7.318-13.612-5.3-4.45,2.031-6.4,5.659-5.493,8.191,3.634,6.2,6.565,6.287,9.055,4.831,2.238-1.309,4.344-.426,5,1.573.578,1.755,3.295,3.847,5.173,4.894-.55,3.04,1.6,9.143,6.4,10a7.312,7.312,0,0,0,7.855-3.731,8.748,8.748,0,1,0,9.958-12.234Z" transform="translate(-1377.212 -823.76)" fill="#362e94"/>
      </g>
    </g>
  </g>
</svg>
