<svg xmlns="http://www.w3.org/2000/svg" width="178" height="177.598" viewBox="0 0 178 177.598">
  <g id="Group_4466" data-name="Group 4466" transform="translate(-263 -1361.981)">
    <path id="Path_3751" data-name="Path 3751" d="M468.808,1336.594l-4.539.471c10.216,6.483,5.493,13.793-12.326,19.077-20.5,6.08-53.173,7.9-80.837,5.138l4.265-2.547a231.752,231.752,0,0,0,30.5.89l-.678-1.244c-16.161.58-32.5-.656-44.83-3.392-6.9-1.53-12.1-3.4-15.47-5.555l-4.544.467c3.611,2.31,9.424,4.4,16.811,6.037,4.19.93,8.806,1.7,13.709,2.3l-4.266,2.549c-5.836-.7-11.4-1.62-16.508-2.755-30.109-6.682-33.413-18.4-7.365-26.127,19.483-5.777,49.953-7.707,76.674-5.517L415.76,1329q-3.086-.249-6.268-.415l-.965,1.231a160.22,160.22,0,0,1,25.785,3.249,68.82,68.82,0,0,1,10.716,3.185l-9.364,1.385a56.926,56.926,0,0,0-8.417-2.475c-12.135-2.693-29.142-3.557-44.385-2.256l1.546,1.192c13.613-1.162,28.8-.391,39.637,2.014,6.186,1.373,10.576,3.165,12.7,5.182l4.727-.327a14.181,14.181,0,0,0-3.357-2.242l9.362-1.385c9.987,4.939,8.307,11.115-5.837,15.691l-8.178-1.815c5.885-1.94,9.185-4.25,9.559-6.723l-4.892-.049c-.363,2.395-3.793,4.62-9.918,6.437-14.725,4.366-40.551,4.845-57.571,1.068s-18.888-10.4-4.164-14.769c1.692-.5,3.569-.963,5.58-1.371l-3.038-.985c-2.251.457-4.352.973-6.245,1.534-4.954,1.469-8.218,3.167-9.862,4.937l-10.655-.5c2.037-2.283,6.226-4.431,12.351-6.247,10.646-3.157,26.093-4.984,42.38-5.012l-.033-1.256c-17.7.031-34.481,2.016-46.049,5.446-11.809,3.5-17,8.137-14.242,12.717l4.838-.192a4.013,4.013,0,0,1-.124-4.222l10.653.5c-1.872,3.768,3.393,7.7,15.408,10.368,18.441,4.093,46.11,3.723,62.825-.732l8.173,1.814a131.427,131.427,0,0,1-21.629,3.663l1.681,1.179a136.91,136.91,0,0,0,25.3-4.485c22.153-6.569,19.343-16.537-6.263-22.219a153.377,153.377,0,0,0-17.147-2.69l3.649-2.609a180.071,180.071,0,0,1,20.563,3.2,90.066,90.066,0,0,1,13.315,3.911l4.1-.685a96.124,96.124,0,0,0-14.216-4.176c-32.151-7.135-80.936-6.23-108.751,2.018s-24.286,20.763,7.864,27.9,80.936,6.23,108.751-2.017C474.673,1351.322,479.716,1343.516,468.808,1336.594Z" transform="translate(-57.264 168.583)" fill="#dfe4f4"/>
    <path id="Path_3752" data-name="Path 3752" d="M479.021,1377.413a16.668,16.668,0,0,1-2.271-.149,4.544,4.544,0,0,1-2.274-.741l-2.22-2.189a5.844,5.844,0,0,0-3.248-.526c-3.145.145-6.374.218-9.6.218-22.369,0-42.416-3.559-49.886-8.856a6.912,6.912,0,0,0-3.438-.446l-8.642.609a17.358,17.358,0,0,1-3.692-.125,4.009,4.009,0,0,1-2.169-.761,5.712,5.712,0,0,1-1.583-3.718c0-4.686,7.221-9.078,20.343-12.369,13.077-3.279,30.5-5.083,49.063-5.083h.2c.95,0,1.914.006,2.865.016a13.154,13.154,0,0,1,3.348.408c.843.245,1.251.571,1.119.893l-.918,2.245c-.251.615-2.36,1.08-4.819,1.059-.591-.005-1.193-.008-1.791-.008a186.7,186.7,0,0,0-21.23,1.158,3.278,3.278,0,0,0-1.506.432c-.24.2-.137.408.281.582l9.1,3.8-1.59.24-9.1-3.8c-.691-.289-.861-.639-.465-.961a5.545,5.545,0,0,1,2.506-.719,193.5,193.5,0,0,1,22-1.2c.619,0,1.244,0,1.855.008,1.485.012,2.757-.269,2.909-.641l.918-2.244c.081-.2-.159-.39-.678-.541a7.951,7.951,0,0,0-2.024-.246c-.926-.01-1.865-.015-2.79-.016h-.194c-18.074,0-35.026,1.755-47.753,4.947-12.771,3.2-19.8,7.477-19.8,12.038a5.561,5.561,0,0,0,1.54,3.619,2.429,2.429,0,0,0,1.312.46,10.486,10.486,0,0,0,2.234.076l8.643-.609c2.37-.167,4.868.158,5.688.739,7.208,5.111,26.552,8.545,48.137,8.545,3.113,0,6.23-.071,9.264-.211,2.41-.111,4.773.271,5.381.87l2.22,2.188a2.749,2.749,0,0,0,1.376.449,10.62,10.62,0,0,0,2.239.056c28.156-2.249,47.074-8.754,47.074-16.187,0-2.439-2.012-4.792-5.982-7-1.026-.57-.089-1.242,2.134-1.531l17.638-2.288.851.414-17.638,2.288c-1.345.174-1.913.58-1.294.924,4.078,2.264,6.146,4.683,6.146,7.188,0,3.778-4.726,7.374-13.667,10.4-8.767,2.965-20.766,5.12-34.7,6.234C479.98,1377.394,479.5,1377.413,479.021,1377.413Z" transform="translate(-118.363 151.912)" fill="#fa9962"/>
    <path id="Path_3753" data-name="Path 3753" d="M770.425,1451.3c0-2.747-13.234-4.975-29.558-4.975s-29.557,2.228-29.557,4.975,13.233,4.975,29.557,4.975S770.425,1454.045,770.425,1451.3Z" transform="translate(-399.92 61.617)" fill="#e9efff" style="mix-blend-mode: multiply;isolation: isolate"/>
    <g id="Group_4007" data-name="Group 4007" transform="translate(269.73 1416.634)">
      <path id="Path_3754" data-name="Path 3754" d="M417.309,766.871l-.825-.425a31.62,31.62,0,0,0-.96-30.5c-3.254-5.266-7.745-8.39-12.012-8.33-1.081.013-2.077.063-3,.144,2.621,2.886,4.408,5.772,4.672,8.476a6.524,6.524,0,0,1-2.044,5.426,7.364,7.364,0,0,1-9.3,1.067c-3.6-2.056-5.669-6.1-4.811-9.41.521-2.011,2.482-5.168,9.517-6.253-5.307-5.324-13.183-10.625-18.724-14.355-2.107-1.418-3.926-2.643-5.233-3.611l.553-.745c1.29.955,3.1,2.174,5.2,3.586,6.069,4.085,14.1,9.493,19.378,14.969a37.8,37.8,0,0,1,3.78-.222c4.6-.049,9.386,3.224,12.812,8.77a31.962,31.962,0,0,1,4.512,14.487A32.364,32.364,0,0,1,417.309,766.871Zm-17.963-38.984c-7.048.9-8.939,3.822-9.417,5.665-.756,2.918,1.124,6.517,4.373,8.372a6.479,6.479,0,0,0,8.185-.916,5.565,5.565,0,0,0,1.777-4.681C404.009,733.7,402.1,730.8,399.346,727.887Z" transform="translate(-374.592 -708.355)" fill="#e9edf7"/>
    </g>
    <g id="Group_4008" data-name="Group 4008" transform="translate(351.802 1394.298)">
      <path id="Path_3755" data-name="Path 3755" d="M1069.8,546.626c-.077,0-.153,0-.231-.005-2.682-.118-5.56-2.3-9.932-7.524a7.72,7.72,0,0,0-6.065-3.033h-.014c-7.087,0-14.838,9.1-14.916,9.2l-.71-.6a39.511,39.511,0,0,1,4.932-4.747c3.923-3.172,7.521-4.78,10.693-4.78h.014a8.606,8.606,0,0,1,6.776,3.366c4.131,4.938,6.9,7.089,9.261,7.193,2.55.107,4.817-2.154,8.243-5.585a78.4,78.4,0,0,1,14.951-12.278l.488.789a77.585,77.585,0,0,0-14.783,12.144C1075.006,544.275,1072.659,546.626,1069.8,546.626Z" transform="translate(-1037.935 -527.831)" fill="#e9edf7"/>
    </g>
    <g id="Group_4009" data-name="Group 4009" transform="translate(400.481 1388.27)">
      <path id="Path_3756" data-name="Path 3756" d="M1447.962,479.106l-16.582,3.181,6.436,3.242.177,7.2Z" transform="translate(-1431.381 -479.106)" fill="#e9edf7"/>
      <path id="Path_3757" data-name="Path 3757" d="M1493.547,479.106,1483.4,485.53l.177,7.2Z" transform="translate(-1476.965 -479.106)" fill="#d0d4f6"/>
    </g>
    <g id="Group_4010" data-name="Group 4010" transform="translate(263 1412.624)">
      <path id="Path_3758" data-name="Path 3758" d="M320.2,675.947l13.31,2.479-5.147,2.627-.111,5.777Z" transform="translate(-320.201 -675.947)" fill="#e9edf7"/>
      <path id="Path_3759" data-name="Path 3759" d="M320.2,675.947l8.163,5.106-.111,5.777Z" transform="translate(-320.201 -675.947)" fill="#d0d4f6"/>
    </g>
    <path id="Path_3760" data-name="Path 3760" d="M1021.851,997.886c10.3-.63,14.578-9.281,12.163-21.189C1024.835,979.122,1016.469,987.975,1021.851,997.886Z" transform="translate(-670.555 473.137)" fill="#20196f"/>
    <path id="Path_3761" data-name="Path 3761" d="M707.768,815.84c1.318-.259,7.034-11.539,4.948-12.773-1.624-.961-2.681.74-3.016,1.388-.528,1.021-1.636,3.558-2.33,3.048-1.255-.922,2.368-6.983,3.16-8.513s1.913-4.718.958-6.369-1.532-2.21-2.768.546-3,8.487-3.916,6.481,1.479-6.137,1.984-9.009.494-8.511-1.494-7.6c-1.778.815-2.048,9.423-3.386,8.732-1.07-.553-.106-2.853.215-6.679s.585-7.44-1.67-7.84c-1.812-.321-1.5,2.172-1.7,4.232s-.586,4.92-1.459,4.132,1.075-10.769-1.735-11.94c-1.859-.775-1.6,1.487-1.964,3.871s-.673,3.2-1.119,2.965-.473-3.528-.441-5.339-.539-4.42-2.226-4.509-1.439,2.819-1.1,3.872.218,2.2-.1,2.3-1.685-3.3-3.323-2.315-.01,4.1,1.684,4.974,3.951,2.118,3.632,2.736-2.281-.4-3.826-1.195-2.342-.763-2.555-.352c-.71,1.373.7,3.571,1.831,4.155s7.885,3.033,7.413,3.946-2.909-.274-4.157-.919-4.161-2.151-4.952-.621,2.7,4.384,5.159,5.466,6.561,2.535,6.2,3.241-3.854.1-5.37-.688-3.824-2.948-4.8-1.064,1.142,3.463,4.118,5c1.243.643,4.337,2.2,6.547,2.021,2.516-.207,3.8.1,3.881.685.153,1.161-2.086,1.047-3.664.6s-6.4-2.116-6.665.433,3.959,2.906,5.644,3.217,7.712.892,7.594,2.212-3.212.167-4.21-.088-3.232-.123-2.935.8S705.417,816.3,707.768,815.84Z" transform="translate(-376.02 653.679)" fill="#6b67e9"/>
    <g id="Group_4012" data-name="Group 4012" transform="translate(301.488 1392.326)">
      <path id="Path_3762" data-name="Path 3762" d="M636.876,526.562c-2.728,1.094-4.594-.959-5.6-2.268C632.14,524.022,635.685,523.128,636.876,526.562Z" transform="translate(-631.28 -522.49)" fill="#dde2f8"/>
      <g id="Group_4011" data-name="Group 4011" transform="translate(4.875 3.576)">
        <path id="Path_3763" data-name="Path 3763" d="M692.989,555.875a.309.309,0,0,1-.235-.108c-3.9-4.558-11.7-10.727-21.865-14.372a.309.309,0,1,1,.209-.582c10.28,3.685,18.17,9.933,22.126,14.552a.309.309,0,0,1-.235.51Z" transform="translate(-670.684 -540.794)" fill="#dde2f8"/>
      </g>
      <path id="Path_3764" data-name="Path 3764" d="M832.43,560.1c-1.836-5.646,1.889-7.914,4.662-9.757C837.524,552.112,839.51,558.163,832.43,560.1Z" transform="translate(-807.114 -545.585)" fill="#dde2f8"/>
      <path id="Path_3765" data-name="Path 3765" d="M794.239,537.743c-2.555-4.023-.112-6.531,1.676-8.518C796.6,530.515,799.357,534.823,794.239,537.743Z" transform="translate(-773.109 -527.081)" fill="#dde2f8"/>
      <path id="Path_3766" data-name="Path 3766" d="M747.151,519.349c-2.945-2.848-1.407-5.435-.313-7.454C747.673,512.834,750.841,515.88,747.151,519.349Z" transform="translate(-731.322 -511.895)" fill="#dde2f8"/>
      <path id="Path_3767" data-name="Path 3767" d="M703.6,519.386c-2.251-1.19-1.781-3-1.477-4.4C702.78,515.407,705.2,516.677,703.6,519.386Z" transform="translate(-693.126 -514.608)" fill="#dde2f8"/>
      <path id="Path_3768" data-name="Path 3768" d="M753.35,640.239c-4.867-1.938-7.076,1.214-8.856,3.551C746.029,644.27,751.243,646.363,753.35,640.239Z" transform="translate(-730.487 -623.831)" fill="#dde2f8"/>
      <path id="Path_3769" data-name="Path 3769" d="M721.812,604.6c-3.887-2.3-6.193.084-8.024,1.837C715.031,607.052,719.194,609.536,721.812,604.6Z" transform="translate(-703.58 -592.297)" fill="#dde2f8"/>
      <path id="Path_3770" data-name="Path 3770" d="M693.844,577.719c-2.988-.779-4.05,1.226-4.92,2.723C689.855,580.61,693.057,581.455,693.844,577.719Z" transform="translate(-681.791 -569.423)" fill="#dde2f8"/>
      <path id="Path_3771" data-name="Path 3771" d="M671.481,557.592c-1.628-.765-2.451.269-3.109,1.034C668.888,558.822,670.632,559.648,671.481,557.592Z" transform="translate(-663.783 -551.703)" fill="#dde2f8"/>
    </g>
    <g id="Group_4014" data-name="Group 4014" transform="translate(346.453 1462.503)">
      <path id="Path_3772" data-name="Path 3772" d="M997.2,1095.9c13.707,11.356,29.305,5.514,40.312-12.326C1023.094,1075.8,1002.118,1077.072,997.2,1095.9Z" transform="translate(-996.891 -1079.089)" fill="#362e94"/>
      <g id="Group_4013" data-name="Group 4013" transform="translate(0 5.916)">
        <path id="Path_3773" data-name="Path 3773" d="M995.009,1138.107a.309.309,0,0,1-.107-.6c3.2-1.183,8.714-2.7,14.551-4.309,7.062-1.945,15.066-4.149,20.9-6.276a.309.309,0,0,1,.212.581c-5.855,2.135-13.871,4.343-20.945,6.291-5.824,1.6-11.325,3.119-14.5,4.293A.305.305,0,0,1,995.009,1138.107Z" transform="translate(-994.699 -1126.905)" fill="#5652cc"/>
      </g>
    </g>
    <g id="Group_4022" data-name="Group 4022" transform="translate(285.631 1458.266)">
      <path id="Path_3774" data-name="Path 3774" d="M551.786,1064.032c.617-3.491-.773-12.547-8.541-13.792-3.516-.563-4.475-.508-5.605.375-.736.575-1.063,1.422-1.891,1.329-1.514-.171-.8-5.738-6.226-6.877s-7.193,2.462-8.655,2.138-1.646-2.63-4.279-2.252-2.135,4.63-5.456,5.575c-3.454.983-8.829,3.852-7.917,7.061s3.543,2.321,5.4,3.69,3.492,7.747,8.6,6.3c5.072-1.442,6.745-2.7,10.629,2.481s10.483,4.788,12.9,2.666,2.586-.3,1.655,1.333,1.978,1.472,3.833.02A18.7,18.7,0,0,0,551.786,1064.032Z" transform="translate(-503.113 -1044.844)" fill="#807dfb"/>
      <g id="Group_4015" data-name="Group 4015" transform="translate(5.816 10.604)">
        <path id="Path_3775" data-name="Path 3775" d="M594.587,1140.231a.31.31,0,0,1-.156-.042,68.932,68.932,0,0,0-43.949-8.285.309.309,0,1,1-.1-.61,69.574,69.574,0,0,1,44.361,8.36.309.309,0,0,1-.157.576Z" transform="translate(-550.123 -1130.546)" fill="#6b67e9"/>
      </g>
      <g id="Group_4016" data-name="Group 4016" transform="translate(13.83 4.628)">
        <path id="Path_3776" data-name="Path 3776" d="M617.14,1088.836a.309.309,0,0,1-.263-.145,16.671,16.671,0,0,1-1.982-6.12.309.309,0,1,1,.618-.016,16.16,16.16,0,0,0,1.888,5.809.309.309,0,0,1-.262.473Z" transform="translate(-614.895 -1082.253)" fill="#6b67e9"/>
      </g>
      <g id="Group_4017" data-name="Group 4017" transform="translate(10.35 10.636)">
        <path id="Path_3777" data-name="Path 3777" d="M587.074,1135.865a.309.309,0,0,1-.289-.419,19.573,19.573,0,0,1,2.849-4.55.309.309,0,0,1,.435.44,19.027,19.027,0,0,0-2.706,4.329A.309.309,0,0,1,587.074,1135.865Z" transform="translate(-586.764 -1130.807)" fill="#6b67e9"/>
      </g>
      <g id="Group_4018" data-name="Group 4018" transform="translate(24.621 4.682)">
        <path id="Path_3778" data-name="Path 3778" d="M704.631,1090.135a.308.308,0,0,1-.248-.125,11.451,11.451,0,0,1-2.277-7.009.309.309,0,1,1,.619-.011,10.811,10.811,0,0,0,2.155,6.65.309.309,0,0,1-.248.494Z" transform="translate(-702.106 -1082.686)" fill="#6b67e9"/>
      </g>
      <g id="Group_4019" data-name="Group 4019" transform="translate(18.348 10.949)">
        <path id="Path_3779" data-name="Path 3779" d="M651.717,1139.366a.309.309,0,0,1-.268-.463c.9-1.566,3.209-4.853,4.3-5.523a.309.309,0,0,1,.323.527c-.956.586-3.223,3.791-4.088,5.3A.309.309,0,0,1,651.717,1139.366Z" transform="translate(-651.408 -1133.335)" fill="#6b67e9"/>
      </g>
      <g id="Group_4020" data-name="Group 4020" transform="translate(32.24 13.412)">
        <path id="Path_3780" data-name="Path 3780" d="M764,1158.133a.309.309,0,0,1-.268-.463c.118-.207.241-.432.37-.668a10.954,10.954,0,0,1,2.77-3.7.309.309,0,1,1,.364.5,10.506,10.506,0,0,0-2.59,3.5c-.131.24-.256.469-.376.679A.309.309,0,0,1,764,1158.133Z" transform="translate(-763.69 -1153.243)" fill="#6b67e9"/>
      </g>
      <g id="Group_4021" data-name="Group 4021" transform="translate(37.165 8.537)">
        <path id="Path_3781" data-name="Path 3781" d="M806.559,1120.858a.308.308,0,0,1-.221-.093,14.255,14.255,0,0,1-2.841-6.565.309.309,0,0,1,.611-.1,13.791,13.791,0,0,0,2.672,6.231.309.309,0,0,1-.221.526Z" transform="translate(-803.493 -1113.842)" fill="#6b67e9"/>
      </g>
    </g>
    <g id="Group_4023" data-name="Group 4023" transform="translate(409.457 1463.403)">
      <path id="Path_3782" data-name="Path 3782" d="M1519.693,1108.446a6.309,6.309,0,0,1,0-12.618v-9.462a15.773,15.773,0,0,0-11.152,26.926l11.152,10.927v-15.773Z" transform="translate(-1503.921 -1086.366)" fill="#fa9962"/>
      <path id="Path_3783" data-name="Path 3783" d="M1642.549,1090.985a15.726,15.726,0,0,0-11.154-4.619v9.462h0a6.309,6.309,0,1,1,0,12.618v15.773h0l11.154-10.927A15.778,15.778,0,0,0,1642.549,1090.985Z" transform="translate(-1615.623 -1086.366)" fill="#fc7a30"/>
    </g>
    <path id="Path_3784" data-name="Path 3784" d="M878.922,1459.674a1.187,1.187,0,0,0-1.01.961h-.767a4.2,4.2,0,0,1-.356-2.907c.25-1.03.515-.783.782-.515.61.5,3.1.659,3.295-.177.642.1,7.256,2,7.256,2.611,0,.991-.777.988-1.306.988C880.56,1460.635,881.389,1460.251,878.922,1459.674Z" transform="translate(-544.824 52.279)" fill="#362e93"/>
    <path id="Path_3785" data-name="Path 3785" d="M884.248,1441.936c-.214-.943-2.941-1.65-2.8,0a2.239,2.239,0,0,1-.143,1.051h0c.548.785,6.306,2.257,7.246,1.035C887.9,1443.67,884.248,1442.936,884.248,1441.936Z" transform="translate(-548.883 66.328)" fill="#f7d3c9"/>
    <path id="Path_3786" data-name="Path 3786" d="M869.032,869.972c-.462,8.841-4.067,21.048-4.745,32.3s-4.854,39.334-4.854,39.334c-1.249,0-2.926-.062-2.926-.062-.678-3.118-4.554-27.518-.671-36.029-1.5-5.855-5.513-25.793-.5-35.543Z" transform="translate(-523.986 566.658)" fill="#423eaf"/>
    <path id="Path_3787" data-name="Path 3787" d="M983.444,1459.674a1.187,1.187,0,0,0-1.01.961h-.767a4.2,4.2,0,0,1-.356-2.907c.25-1.03.515-.783.782-.515.61.5,3.1.659,3.295-.177.642.1,7.257,2,7.257,2.611,0,.991-.777.988-1.307.988C985.081,1460.635,985.91,1460.251,983.444,1459.674Z" transform="translate(-636.413 52.279)" fill="#362e93"/>
    <path id="Path_3788" data-name="Path 3788" d="M988.767,1441.936c-.214-.943-2.941-1.65-2.8,0a2.234,2.234,0,0,1-.143,1.051h0c.548.785,6.307,2.257,7.246,1.035C992.416,1443.67,988.767,1442.936,988.767,1441.936Z" transform="translate(-640.469 66.328)" fill="#f7d3c9"/>
    <path id="Path_3789" data-name="Path 3789" d="M913.5,869.972c1.671,5.14,3.275,21.048,2.6,32.3s-3.467,39.334-3.467,39.334c-1.248,0-2.926-.062-2.926-.062-.678-3.118-5.061-28.833-2.492-36.029-2.034-4.067-11.348-23.612-7.4-35.543Z" transform="translate(-564.253 566.658)" fill="#5652cc"/>
    <path id="Path_3790" data-name="Path 3790" d="M971.609,577.717c.952-.436.62-4.018-1.5-8.4-1.839-3.8-5.514-8.03-7.287-11.1-.4-.7.014-2.605-.337-3.082-2.978-4.044-4.129-.772-3.932.191a36.114,36.114,0,0,0,3.154,7.026C962.507,563.373,968.043,579.347,971.609,577.717Z" transform="translate(-616.554 844.27)" fill="#f0c9c0"/>
    <g id="Group_4024" data-name="Group 4024" transform="translate(335.073 1386.771)">
      <path id="Path_3791" data-name="Path 3791" d="M911.9,469.056c.017,1.924.666,7.679-.688,9.566-1.11,1.549-3.018,1.6-5.912.216s-2.359-6.885-2.565-8.514C902.411,467.742,911.867,465.008,911.9,469.056Z" transform="translate(-902.728 -466.997)" fill="#f8d8d0"/>
      <path id="Path_3792" data-name="Path 3792" d="M908.75,541.944c.169.97.738,2.882.738,2.882-.419.567-3.149,1.484-6.141-.214a56.95,56.95,0,0,0,.072-5.912Z" transform="translate(-903.27 -529.828)" fill="#f8d8d0"/>
    </g>
    <g id="Group_4025" data-name="Group 4025" transform="translate(327.585 1401.366)">
      <path id="Path_3793" data-name="Path 3793" d="M842.2,694.125c0,2.746,4.223,3.437,4.223,3.437l1.235-14c-2.134-.183-3.516-1.328-4.828-2.071A113.317,113.317,0,0,0,842.2,694.125Z" transform="translate(-842.202 -669.543)" fill="#f8d8d0"/>
      <path id="Path_3794" data-name="Path 3794" d="M847.293,600.86c1.313.743,2.694,1.888,4.828,2.071l1.188-13.455C850.191,591.318,848.551,594.064,847.293,600.86Z" transform="translate(-846.663 -588.917)" fill="#ed9f00"/>
      <path id="Path_3795" data-name="Path 3795" d="M862.778,585.147c-1.786.387-6.324,3.276-5.663,10.891.8,9.187,1.866,24.184,1.866,24.184h17.9c-4.769-12.475.484-18.662-1.051-25.755-.824-3.81-2.723-7.372-5.976-8.783C867.05,584.469,862.778,585.147,862.778,585.147Z" transform="translate(-855.213 -584.958)" fill="#fa9962"/>
    </g>
    <g id="Group_4026" data-name="Group 4026" transform="translate(339.823 1402.53)">
      <path id="Path_3796" data-name="Path 3796" d="M974.246,664.067c1.242,1.67,6.317,8.493,8.425,8.861,1.59.278,3.065-.445,2.887-1.953s-5.065-8.926-5.737-10.222C978.521,660.883,974.246,664.067,974.246,664.067Z" transform="translate(-970.147 -652.538)" fill="#f8d8d0"/>
      <path id="Path_3797" data-name="Path 3797" d="M950.792,602.578c-.932-1.682-1.807-3.322-2.79-4.806-1.132-1.708-2.611-3.408-4.729-3.408-1.827,0-2.777,1.229-1.7,4.936a25.039,25.039,0,0,0,3.741,6.726A10.1,10.1,0,0,0,950.792,602.578Z" transform="translate(-941.118 -594.364)" fill="#fa9962"/>
    </g>
    <path id="Path_3798" data-name="Path 3798" d="M844.23,458.231c2.028-.429,3.711-6.215-1.478-5.315s-10.167,2.165-9.233,5.664-1.9,3.639-2.75,6.909c-.726,2.807.85,4.455-2.072,6.081-2.193,1.22-.764,3.755-1.662,4.785-2.089,2.394-2.474,5.918,1.787,7.911,6.093,2.849,13.382,3.279,11.278-1.071-1.7-3.506-1.289-3.486.3-5.115s-2.556-4.569-.569-6.13c1.116-.877-.825-4.243-.2-6.029.488-1.393,2.437-.78,2.731-3.228C842.721,459.75,841.991,458.7,844.23,458.231Z" transform="translate(-499.997 932.196)" fill="#362e94"/>
    <path id="Path_3799" data-name="Path 3799" d="M1307.87,880.451l2.314-4.546a1.066,1.066,0,0,1,1.435-.468l4.546,2.314a1.067,1.067,0,0,1,.467,1.435l-2.314,4.546a1.066,1.066,0,0,1-1.435.467l-4.547-2.314A1.068,1.068,0,0,1,1307.87,880.451Z" transform="translate(-922.568 561.971)" fill="#fa9962"/>
    <path id="Path_3800" data-name="Path 3800" d="M849.1,267.519l.78,5.451a.775.775,0,0,0,1.245.5l4.331-3.4a.774.774,0,0,0-.19-1.328l-5.111-2.05A.775.775,0,0,0,849.1,267.519Z" transform="translate(-520.657 1095.348)" fill="#ced3f8"/>
    <path id="Path_3801" data-name="Path 3801" d="M508.665,1647.181,504.9,1651.2a.774.774,0,0,0,.39,1.284l5.363,1.247a.775.775,0,0,0,.917-.98l-1.6-5.268A.774.774,0,0,0,508.665,1647.181Z" transform="translate(-218.867 -114.175)" fill="#6b67e9"/>
  </g>
</svg>
