<svg xmlns="http://www.w3.org/2000/svg" width="201.297" height="187.639" viewBox="0 0 201.297 187.639">
  <g id="Group_4467" data-name="Group 4467" transform="translate(-829.703 -1354.794)">
    <path id="Path_3802" data-name="Path 3802" d="M244.38,857.713c-11.894,8.578-24.394,2.915-32.459-12.358C224.2,839.758,241.376,841.965,244.38,857.713Z" transform="translate(617.782 572.979)" fill="#ced3f8"/>
    <path id="Path_3803" data-name="Path 3803" d="M273.9,892.159a.232.232,0,0,1-.095-.02c-2.547-1.141-6.986-2.69-11.686-4.33-5.707-1.992-12.175-4.249-16.869-6.327a.232.232,0,0,1,.188-.425c4.677,2.07,11.135,4.324,16.834,6.313,4.709,1.644,9.157,3.2,11.723,4.345a.232.232,0,0,1-.1.444Z" transform="translate(588.263 538.765)" fill="#f6f6fb"/>
    <path id="Path_3804" data-name="Path 3804" d="M1405.978,648.85a.277.277,0,0,1-.248-.4c2.1-4.257,6.737-19.574,7.973-28.365a.277.277,0,0,1,.548.077c-1.243,8.837-5.912,24.246-8.025,28.533A.276.276,0,0,1,1405.978,648.85Z" transform="translate(-426.031 771.061)" fill="#fa9962"/>
    <path id="Path_3805" data-name="Path 3805" d="M1474.52,605.608a1.049,1.049,0,1,0-1.39-.519A1.049,1.049,0,0,0,1474.52,605.608Z" transform="translate(-485.916 785.507)" fill="none" stroke="#fa9962" stroke-linecap="round" stroke-linejoin="round" stroke-width="5"/>
    <path id="Path_3806" data-name="Path 3806" d="M1498.223,688.243a1.016,1.016,0,1,0-1.346-.5A1.016,1.016,0,0,0,1498.223,688.243Z" transform="translate(-507.039 711.957)" fill="none" stroke="#fa9962" stroke-linecap="round" stroke-linejoin="round" stroke-width="5"/>
    <path id="Path_3807" data-name="Path 3807" d="M1411.643,727.517a1.153,1.153,0,1,0-1.527-.57A1.153,1.153,0,0,0,1411.643,727.517Z" transform="translate(-429.864 677.261)" fill="none" stroke="#fa9962" stroke-linecap="round" stroke-linejoin="round" stroke-width="5"/>
    <path id="Path_3808" data-name="Path 3808" d="M1462.277,784.271a1.334,1.334,0,1,0-1.768-.66A1.335,1.335,0,0,0,1462.277,784.271Z" transform="translate(-474.668 627.094)" fill="none" stroke="#fa9962" stroke-linecap="round" stroke-linejoin="round" stroke-width="5"/>
    <path id="Path_3809" data-name="Path 3809" d="M1445.975,619.26a.871.871,0,1,0-1.154-.431A.871.871,0,0,0,1445.975,619.26Z" transform="translate(-460.753 773.063)" fill="none" stroke="#fa9962" stroke-linecap="round" stroke-linejoin="round" stroke-width="5"/>
    <path id="Path_3810" data-name="Path 3810" d="M1456.375,633.947a.276.276,0,0,1-.276-.256,13.3,13.3,0,0,0-1.467-3.26c-.1-.175-.179-.323-.238-.434a.276.276,0,1,1,.488-.26c.058.109.139.255.234.426a12.224,12.224,0,0,1,1.535,3.487.277.277,0,0,1-.255.3Z" transform="translate(-469.308 762.396)" fill="#fa9962"/>
    <path id="Path_3811" data-name="Path 3811" d="M1456.141,700.3a.276.276,0,0,1-.2-.466,16.871,16.871,0,0,1,4.429-3.012.277.277,0,1,1,.23.5,16.617,16.617,0,0,0-4.255,2.887A.276.276,0,0,1,1456.141,700.3Z" transform="translate(-470.645 702.62)" fill="#fa9962"/>
    <path id="Path_3812" data-name="Path 3812" d="M1424.546,747.235a.276.276,0,0,1-.275-.254,10.745,10.745,0,0,0-1.918-3.78.277.277,0,0,1,.375-.406,10.887,10.887,0,0,1,2.094,4.141.276.276,0,0,1-.253.3Z" transform="translate(-440.761 661.779)" fill="#fa9962"/>
    <path id="Path_3813" data-name="Path 3813" d="M1424.99,803.323a.277.277,0,0,1-.206-.461c.517-.576,3.591-2.809,4.092-3.16a.277.277,0,1,1,.317.453c-.8.561-3.572,2.6-4,3.076A.276.276,0,0,1,1424.99,803.323Z" transform="translate(-442.94 611.146)" fill="#fa9962"/>
    <path id="Path_3814" data-name="Path 3814" d="M1390.3,1290.916c10.561-.723,16.064,7.515,15.185,19.953C1395.824,1309.616,1386.139,1301.715,1390.3,1290.916Z" transform="translate(-411.246 174.267)" fill="#20196f"/>
    <path id="Path_3815" data-name="Path 3815" d="M1399.757,873.538c-7.326-12.668-.441-24.5,15.545-30.971C1419.627,855.32,1415.705,872.141,1399.757,873.538Z" transform="translate(-417.377 572.979)" fill="#807dfb"/>
    <path id="Path_3816" data-name="Path 3816" d="M1421.063,901.364a.276.276,0,0,1-.239-.414c1.388-2.411,3.374-6.659,5.476-11.157,2.554-5.464,5.449-11.658,7.986-16.109a.277.277,0,0,1,.481.274c-2.527,4.432-5.417,10.615-7.966,16.07-2.107,4.509-4.1,8.767-5.5,11.2A.276.276,0,0,1,1421.063,901.364Z" transform="translate(-438.683 545.429)" fill="#6b67e9"/>
    <path id="Path_3817" data-name="Path 3817" d="M548.034,591.85c-3.9-7.344.249-13.927,9.451-17.277C559.679,581.9,557.112,591.38,548.034,591.85Z" transform="translate(325.158 811.327)" fill="#ced3f8"/>
    <path id="Path_3818" data-name="Path 3818" d="M1382.177,984.382c-2.125-3.416-4.554-13.564,2.92-18.221,3.383-2.108,4.394-2.462,5.936-2.018,1,.289,1.7,1.042,2.515.588,1.487-.832-1.625-6.4,3.483-9.933s8.461-.5,9.83-1.472.574-3.482,3.449-4.216,4.176,3.964,8,3.53c3.979-.451,10.741.261,11.169,4.038s-2.661,3.973-3.987,6.215-.294,9.674-6.173,10.34c-5.841.662-8.1.052-9.9,7.192s-8.759,9.562-12.159,8.366-2.791.8-1.138,2.118-1.41,2.4-3.941,1.672S1384.844,988.671,1382.177,984.382Z" transform="translate(-398.52 478.291)" fill="#9f9cff"/>
    <path id="Path_3819" data-name="Path 3819" d="M1385.255,1057.054a.276.276,0,0,1-.221-.442,74.572,74.572,0,0,1,20.367-18.589,73.018,73.018,0,0,1,21.742-9.3.277.277,0,0,1,.126.539,72.458,72.458,0,0,0-21.574,9.23,74.023,74.023,0,0,0-20.218,18.451A.276.276,0,0,1,1385.255,1057.054Z" transform="translate(-402.916 407.423)" fill="#807dfb"/>
    <path id="Path_3820" data-name="Path 3820" d="M1664.478,1003.531a.277.277,0,0,1-.273-.321,18.94,18.94,0,0,0-.536-6.982.277.277,0,1,1,.518-.194,19.3,19.3,0,0,1,.563,7.265A.277.277,0,0,1,1664.478,1003.531Z" transform="translate(-650.762 436.648)" fill="#807dfb"/>
    <path id="Path_3821" data-name="Path 3821" d="M1698.39,1054.427a.276.276,0,0,1-.2-.09,21.437,21.437,0,0,0-4.659-3.418.277.277,0,0,1,.215-.51,21.826,21.826,0,0,1,4.852,3.554.277.277,0,0,1-.2.463Z" transform="translate(-677.182 388.148)" fill="#807dfb"/>
    <path id="Path_3822" data-name="Path 3822" d="M1564.247,1047.062a.28.28,0,0,1-.067-.008.277.277,0,0,1-.2-.335,12.652,12.652,0,0,0-.619-7.991.277.277,0,1,1,.516-.2,13.241,13.241,0,0,1,.639,8.322A.277.277,0,0,1,1564.247,1047.062Z" transform="translate(-561.548 398.852)" fill="#807dfb"/>
    <path id="Path_3823" data-name="Path 3823" d="M1613.767,1094.462a.275.275,0,0,1-.172-.06c-1.539-1.226-5.257-3.637-6.5-3.847a.277.277,0,0,1,.092-.546c1.382.233,5.214,2.731,6.757,3.96a.276.276,0,0,1-.172.493Z" transform="translate(-600.253 352.913)" fill="#807dfb"/>
    <path id="Path_3824" data-name="Path 3824" d="M1502.827,1166.849a.276.276,0,0,1-.172-.06c-.214-.17-.439-.357-.677-.554a11.8,11.8,0,0,0-4.186-2.585.276.276,0,1,1,.134-.536,12.186,12.186,0,0,1,4.4,2.7c.236.2.459.38.669.547a.277.277,0,0,1-.173.493Z" transform="translate(-503.065 287.9)" fill="#807dfb"/>
    <path id="Path_3825" data-name="Path 3825" d="M1460.619,1132.408a.277.277,0,0,1-.257-.378c.661-1.676.706-5.162.1-7.77a.277.277,0,1,1,.539-.125c.628,2.7.572,6.333-.124,8.1A.277.277,0,0,1,1460.619,1132.408Z" transform="translate(-469.943 322.749)" fill="#807dfb"/>
    <path id="Path_3826" data-name="Path 3826" d="M270.831,411.676c4.813-.951,10.169-7.124,9.809-11.934s-4.853-5.7-4.324-8.362,5.343-5.862,4.446-9.447c-1.6-6.372-11.464-1.919-13.12-6.493s4-6.706,3.121-11.224-8.81-.371-11.929-5.038-11.544-13.366-15.982-7.9c-3.508,4.32,3.285,6.215,3.205,8.616-.091,2.738-3.579,3.039-3.019,6.079.792,4.3,6.574,4.5,6.641,8.132s-4.615,4.676-1.953,8.66c3.3,4.933,10.821-.644,11.716,7.1s-8.7,4.77-8.825,9.629c-.133,5.3,9.412,4.514,8.476,8C257.819,412.246,263.365,413.152,270.831,411.676Z" transform="translate(591.168 1011.474)" fill="#e9edf7"/>
    <path id="Path_3827" data-name="Path 3827" d="M329.877,478.578a.258.258,0,0,1-.258-.245,7.462,7.462,0,0,1,.254-1.714c.326-1.5.732-3.378-.158-4.709a18.334,18.334,0,0,0-1.761-2.131,12.4,12.4,0,0,1-2.779-4.019c-1.224-3.321-.589-6.046-.027-8.451.411-1.764.767-3.287.316-4.717-.379-1.2-1.182-1.514-2.2-1.908a5.933,5.933,0,0,1-3.206-2.344,4.518,4.518,0,0,1-.842-3.3,5.063,5.063,0,0,0-1.052-3.727,5.219,5.219,0,0,0-2.969-2.242,6.291,6.291,0,0,1-3.326-2.415,11.528,11.528,0,0,1-2.193-7.693,4.461,4.461,0,0,0-.387-2.534,2.217,2.217,0,0,0-2.154-1.023.258.258,0,0,1-.113-.5,2.715,2.715,0,0,1,2.682,1.218,4.721,4.721,0,0,1,.489,2.845,11.079,11.079,0,0,0,2.092,7.383,5.786,5.786,0,0,0,3.093,2.239,5.717,5.717,0,0,1,3.216,2.438,5.561,5.561,0,0,1,1.138,4.048,3.99,3.99,0,0,0,.756,2.975,5.428,5.428,0,0,0,2.963,2.15,3.425,3.425,0,0,1,2.505,2.234c.493,1.565.105,3.228-.306,4.99-.545,2.334-1.162,4.979.009,8.155a12,12,0,0,0,2.676,3.85,18.981,18.981,0,0,1,1.809,2.192c1.011,1.513.562,3.589.233,5.1a7.268,7.268,0,0,0-.243,1.578.258.258,0,0,1-.244.271Z" transform="translate(533.378 944.47)" fill="#ced3f8"/>
    <path id="Path_3828" data-name="Path 3828" d="M472.8,1547.985c0-2.3,29.027-4.158,64.832-4.158s64.832,1.862,64.832,4.158-29.026,4.158-64.832,4.158S472.8,1550.282,472.8,1547.985Z" transform="translate(408.353 -9.71)" fill="#e9efff"/>
    <path id="Path_3829" data-name="Path 3829" d="M1193.246,563.55c1.352-1.61-1.341-5.178-2.036-6.42-.931-1.665-3.614-10.724-3.614-10.724-3.306,4.051-4.927,13.249-.9,16.65a4.332,4.332,0,1,0,6.551.495Z" transform="translate(-233.274 845.306)" fill="#20196f"/>
    <path id="Path_3830" data-name="Path 3830" d="M1054.513,687.969a3.7,3.7,0,0,0-1.981-5.086,5.986,5.986,0,0,0-5.129,1.148c-3.369,5.545-7.065,9.76-10.994,11.636a53.447,53.447,0,0,1-12.893,3.593,34.854,34.854,0,0,1,.3,3.587c6.249-.627,11.231-.782,14.629-2.105A39.259,39.259,0,0,0,1054.513,687.969Z" transform="translate(-90.262 724.082)" fill="#ced3f8"/>
    <path id="Path_3831" data-name="Path 3831" d="M462.9,677.409a17.863,17.863,0,0,1,0-35.726V614.894a44.658,44.658,0,0,0-31.577,76.237l31.577,30.94V677.409Z" transform="translate(434.279 816.464)" fill="#fa9962"/>
    <path id="Path_3832" data-name="Path 3832" d="M853.52,627.972a44.519,44.519,0,0,0-31.582-13.078v26.789h0a17.863,17.863,0,1,1,0,35.726v44.662h0l31.581-30.94A44.672,44.672,0,0,0,853.52,627.972Z" transform="translate(75.246 816.464)" fill="#fc7a30"/>
    <path id="Path_3833" data-name="Path 3833" d="M1238.314,1551.042a1.212,1.212,0,0,1,1.087.92l.782-.045a4.284,4.284,0,0,0,.191-2.984c-.316-1.035-.571-.768-.828-.479-.592.541-3.12.854-3.368.013-.65.136-7.281,2.466-7.245,3.089.058,1.011.851.962,1.39.931C1236.7,1552.118,1235.834,1551.775,1238.314,1551.042Z" transform="translate(-270.728 -13.592)" fill="#362e94"/>
    <path id="Path_3834" data-name="Path 3834" d="M1265.8,1518.9c.163-.974,2.417-1.679,2.622,0a12.047,12.047,0,0,0,.44,2.4h0c-.512.832-6.3,2.672-7.326,1.481C1262.182,1522.391,1266.332,1521.637,1265.8,1518.9Z" transform="translate(-299.723 13.355)" fill="#f7d3c9"/>
    <path id="Path_3835" data-name="Path 3835" d="M1385.323,1551.042a1.212,1.212,0,0,1,1.087.92l.782-.045a4.283,4.283,0,0,0,.191-2.984c-.316-1.035-.571-.768-.828-.479-.593.541-3.12.854-3.369.013-.65.136-7.281,2.466-7.245,3.089.059,1.011.851.962,1.39.931C1383.71,1552.118,1382.843,1551.775,1385.323,1551.042Z" transform="translate(-401.474 -13.592)" fill="#362e94"/>
    <path id="Path_3836" data-name="Path 3836" d="M1412.207,1518.432c.163-.974,2.54-1.653,2.9,0a18.165,18.165,0,0,0,.766,2.462h0c-.512.832-6.3,2.672-7.326,1.481C1409.191,1521.98,1412.822,1521.261,1412.207,1518.432Z" transform="translate(-430.469 13.766)" fill="#f7d3c9"/>
    <path id="Path_3837" data-name="Path 3837" d="M1247.159,952.008c-1.873,9.645-9.854,22.9-13.094,34.953,1.872,8.215.979,14.288,1.854,27.813h-3.17c-2.018-7.459-5.766-19.046-7.858-29.7-1.34-6.821,2.253-21.147,6.453-34.018C1234.387,951.028,1247.159,952.008,1247.159,952.008Z" transform="translate(-266.88 517.487)" fill="#362e94"/>
    <path id="Path_3838" data-name="Path 3838" d="M1322.813,958.118c2.322,11.759.649,17.868-2.3,29.925,2.977,7.553,4.543,18.418,6.31,32.948h-3.169c-3.655-8.917-7.176-17.3-12.548-30.212-1.878-4.513-2.367-15.427-1.188-32.073C1313.424,958.916,1322.813,958.118,1322.813,958.118Z" transform="translate(-342.187 511.208)" fill="#5652cc"/>
    <path id="Path_3839" data-name="Path 3839" d="M1247.063,688.086c-7.26,2.468-17.784.573-17.784.573,3.993-13.487-6.679-15.232-5.458-22.164,1-5.659.834-7,2.049-8.81,3.434-5.119,6.086-4.6,10.454-1.394C1242.085,660.513,1246.2,681.032,1247.063,688.086Z" transform="translate(-266.095 781.809)" fill="#dde2f8"/>
    <path id="Path_3840" data-name="Path 3840" d="M1060.313,915.816a2.1,2.1,0,0,1-1.786.3c-1.051-.245-1.4-.474-1.9-.571s-1.948-.528-1.967-.283,1.62.908,1.537,1.073-4.558.821-4.038,1.553a5.2,5.2,0,0,0,4.629,1.777c1.5-.233,2.728-1.162,3.69-1.175A1.606,1.606,0,0,0,1060.313,915.816Z" transform="translate(-113.476 549.391)" fill="#f7d3c9"/>
    <path id="Path_3841" data-name="Path 3841" d="M1265.906,691.444a3.7,3.7,0,0,0-4.564-2.993c-1.829.706-3.979,2.408-4.291,6.625a30.472,30.472,0,0,1-2.19,10.057,14.6,14.6,0,0,1,2.877,6.612A27.709,27.709,0,0,0,1265.906,691.444Z" transform="translate(-293.788 751.187)" fill="#ced3f8"/>
    <path id="Path_3842" data-name="Path 3842" d="M1140.26,692.868a3.7,3.7,0,0,0-4.055-3.653c-1.915.42-4.3,1.774-5.25,5.895-2.482,10.754-6.85,15.335-17.436,19.541,0,0,.654,2.452.82,3.5C1134.8,713.54,1139.5,699.428,1140.26,692.868Z" transform="translate(-168.081 750.412)" fill="#e9edf7"/>
    <path id="Path_3843" data-name="Path 3843" d="M1215.035,552.432h0a7.988,7.988,0,0,1-.523-5.3,11.262,11.262,0,0,0,.054-6.08c-1.234-3.493-7.09-2.518-8.416-1.178-1.651,1.893-1.36,3.83-1,6.406,0,0-.233,2.586-.2,2.744.045.231.731-.018.8.08s.29,1.544.9,2,1.924-.138,2.418-.007c.768.2,1.717.64,1.2,2.589C1209.183,556.628,1212.883,555.783,1215.035,552.432Z" transform="translate(-249.331 884.272)" fill="#f7d3c9"/>
    <path id="Path_3844" data-name="Path 3844" d="M1232.875,545.328a3.963,3.963,0,0,0-3.688-5.248l-.152,0h0c-2.244.046-6.813-1.455-8.376-5.229-1.8-4.355-3.628-6.406-6.667-6.269-3.061.138-5.045,1.788-5.111,3.472.66,4.452,2.342,5.191,4.13,4.929a2,2,0,0,1,2.538,2.086c-.075,1.155,1.014,3.007,1.86,4.056-1.032,1.638-1.209,5.688,1.378,7.311a4.581,4.581,0,0,0,5.438-.328,5.557,5.557,0,0,0,.122.9,5.483,5.483,0,1,0,8.531-5.675Z" transform="translate(-252.892 893.238)" fill="#362e94"/>
    <path id="Path_3845" data-name="Path 3845" d="M1293.37,328.588c-6.932-3.322-20.975,7.117-21.3,10.769-.188,2.142,1.393,3.665,5.633,4.511l.2,4.98,3.636-4.627a27.391,27.391,0,0,0,9.654-1.049C1296.791,341.822,1296.684,330.176,1293.37,328.588Z" transform="translate(-307.998 1030.674)" fill="#6b67e9"/>
    <path id="Path_3846" data-name="Path 3846" d="M1335.777,414.569a.933.933,0,1,1,1.095.738A.933.933,0,0,1,1335.777,414.569Z" transform="translate(-364.652 954.621)" fill="#fff"/>
    <path id="Path_3847" data-name="Path 3847" d="M1374.771,406.977a.933.933,0,1,1,1.094.738A.933.933,0,0,1,1374.771,406.977Z" transform="translate(-399.332 961.373)" fill="#fff"/>
    <path id="Path_3848" data-name="Path 3848" d="M1413.765,399.385a.933.933,0,1,1,1.095.738A.934.934,0,0,1,1413.765,399.385Z" transform="translate(-434.013 968.125)" fill="#fff"/>
    <path id="Path_3849" data-name="Path 3849" d="M572.76,294.594l-2.941-1.168a.693.693,0,0,0-.685.1l-2.483,1.963a.693.693,0,0,0-.256.644l.459,3.132a.692.692,0,0,0,.429.543l2.941,1.169a.693.693,0,0,0,.686-.1l2.483-1.963a.693.693,0,0,0,.256-.644l-.458-3.131A.693.693,0,0,0,572.76,294.594Z" transform="translate(325.121 1061.418)" fill="#807dfb"/>
    <path id="Path_3851" data-name="Path 3851" d="M1680.967,515.174l-1.331,6.662a.956.956,0,0,0,1.244,1.093l6.435-2.179a.956.956,0,0,0,.325-1.624l-5.1-4.483A.955.955,0,0,0,1680.967,515.174Z" transform="translate(-664.961 864.84)" fill="#dde2f8"/>
  </g>
</svg>
