<svg xmlns="http://www.w3.org/2000/svg" width="284.588" height="292.302" viewBox="0 0 284.588 292.302">
  <g id="Group_4465" data-name="Group 4465" transform="translate(-72.412 -740.489)">
    <path id="Path_3694" data-name="Path 3694" d="M232.6,1578.229c0-4.1,60.678-7.424,135.527-7.424s135.526,3.324,135.526,7.424-60.677,7.425-135.526,7.425S232.6,1582.33,232.6,1578.229Z" transform="translate(-160.186 -574.208)" fill="#e9edf7"/>
    <g id="Group_3976" data-name="Group 3976" transform="translate(189.169 743)">
      <g id="Group_3971" data-name="Group 3971" transform="translate(3.972 2.878)">
        <path id="Path_3695" data-name="Path 3695" d="M918.656,232.463a.452.452,0,0,1-.375-.2c-4.387-6.485-15.411-30.446-19.4-44.506a.453.453,0,1,1,.872-.247c3.972,13.988,14.926,37.807,19.281,44.246a.453.453,0,0,1-.375.707Z" transform="translate(-898.86 -187.181)" fill="#dae0f5"/>
      </g>
      <path id="Path_3696" data-name="Path 3696" d="M889.848,174.662a1.718,1.718,0,1,1,2.14-1.152A1.718,1.718,0,0,1,889.848,174.662Z" transform="translate(-886.506 -171.297)" fill="none" stroke="#dae0f5" stroke-linecap="round" stroke-linejoin="round" stroke-width="5"/>
      <path id="Path_3697" data-name="Path 3697" d="M878.126,259.684a1.664,1.664,0,1,1,2.072-1.116A1.664,1.664,0,0,1,878.126,259.684Z" transform="translate(-876.94 -241)" fill="none" stroke="#dae0f5" stroke-linecap="round" stroke-linejoin="round" stroke-width="5"/>
      <path id="Path_3698" data-name="Path 3698" d="M967.279,287.081a1.889,1.889,0,1,1,2.351-1.267A1.889,1.889,0,0,1,967.279,287.081Z" transform="translate(-949.807 -263.072)" fill="none" stroke="#dae0f5" stroke-linecap="round" stroke-linejoin="round" stroke-width="5"/>
      <path id="Path_3699" data-name="Path 3699" d="M922.245,350.628a2.186,2.186,0,1,1,2.721-1.466A2.186,2.186,0,0,1,922.245,350.628Z" transform="translate(-912.76 -314.628)" fill="none" stroke="#dae0f5" stroke-linecap="round" stroke-linejoin="round" stroke-width="5"/>
      <path id="Path_3700" data-name="Path 3700" d="M922.565,183.883a1.426,1.426,0,1,1,1.776-.957A1.426,1.426,0,0,1,922.565,183.883Z" transform="translate(-913.465 -179.316)" fill="none" stroke="#dae0f5" stroke-linecap="round" stroke-linejoin="round" stroke-width="5"/>
      <g id="Group_3972" data-name="Group 3972" transform="translate(6.487 4.042)">
        <path id="Path_3701" data-name="Path 3701" d="M913.2,201.07a.453.453,0,0,1-.452-.425c-.078-1.254.842-3.756,1.71-6,.116-.3.214-.554.284-.744a.453.453,0,1,1,.85.312c-.071.194-.171.453-.289.758-.559,1.447-1.723,4.457-1.651,5.619a.453.453,0,0,1-.424.48Z" transform="translate(-912.741 -193.602)" fill="#dae0f5"/>
      </g>
      <g id="Group_3973" data-name="Group 3973" transform="translate(2.805 17.115)">
        <path id="Path_3702" data-name="Path 3702" d="M900.58,270.471a.45.45,0,0,1-.285-.1,27.209,27.209,0,0,0-7.551-3.733.453.453,0,0,1,.261-.868,27.621,27.621,0,0,1,7.86,3.9.453.453,0,0,1-.285.805Z" transform="translate(-892.422 -265.75)" fill="#dae0f5"/>
      </g>
      <g id="Group_3974" data-name="Group 3974" transform="translate(14.646 23.556)">
        <path id="Path_3703" data-name="Path 3703" d="M958.224,309.073a.453.453,0,0,1-.452-.429c-.1-1.786,1.714-6.265,2.472-7.187a.453.453,0,1,1,.7.576c-.641.78-2.349,5.057-2.267,6.563a.453.453,0,0,1-.428.477Z" transform="translate(-957.768 -301.292)" fill="#dae0f5"/>
      </g>
      <g id="Group_3975" data-name="Group 3975" transform="translate(11.424 34.74)">
        <path id="Path_3704" data-name="Path 3704" d="M947.7,368.078a.452.452,0,0,1-.293-.107c-.8-.675-5.748-3.366-7.175-4.1a.453.453,0,0,1,.413-.807c.892.457,6.38,3.393,7.347,4.212a.453.453,0,0,1-.293.8Z" transform="translate(-939.985 -363.017)" fill="#dae0f5"/>
      </g>
    </g>
    <g id="Group_3984" data-name="Group 3984" transform="translate(312.985 827.503)">
      <g id="Group_3977" data-name="Group 3977" transform="translate(10.854 1.674)">
        <path id="Path_3705" data-name="Path 3705" d="M1635,667.179a8.977,8.977,0,0,1-2.6-.374,7.393,7.393,0,0,1-4.821-4.288,6.576,6.576,0,0,1-5.48-2.3c-1.616-1.9-3.065-5.7-.795-13.024a.453.453,0,0,1,.866.268c-2.149,6.933-.849,10.444.619,12.169a5.652,5.652,0,0,0,5.033,1.95.455.455,0,0,1,.494.307,6.352,6.352,0,0,0,4.346,4.05c3.038.914,6.676-.06,9.98-2.674a.453.453,0,1,1,.562.71A13.5,13.5,0,0,1,1635,667.179Z" transform="translate(-1620.136 -646.874)" fill="#9f9cff"/>
      </g>
      <g id="Group_3978" data-name="Group 3978" transform="translate(13.688 0.109)">
        <path id="Path_3706" data-name="Path 3706" d="M1647.044,657.66q-.305,0-.609-.019a7.837,7.837,0,0,1-5.724-2.738,7.235,7.235,0,0,1-4.466-4.729c-1.152-3.545-.167-7.828,2.7-11.752a.453.453,0,0,1,.732.535c-2.7,3.686-3.634,7.672-2.573,10.937a6.241,6.241,0,0,0,4.023,4.194.454.454,0,0,1,.231.169,6.845,6.845,0,0,0,5.13,2.48c3.38.207,6.919-1.5,9.954-4.82a.453.453,0,1,1,.668.612C1654.068,655.855,1650.515,657.66,1647.044,657.66Z" transform="translate(-1635.773 -638.237)" fill="#9f9cff"/>
      </g>
      <g id="Group_3979" data-name="Group 3979" transform="translate(16.654)">
        <path id="Path_3707" data-name="Path 3707" d="M1658.207,655.2l-.168,0a4.218,4.218,0,0,1-3.549-1.5,5.258,5.258,0,0,1-2.328-5c.349-4.7,5.289-10.1,7.2-11.02a.453.453,0,0,1,.395.816c-1.581.764-6.36,5.839-6.689,10.271a4.414,4.414,0,0,0,2.008,4.23.45.45,0,0,1,.124.126,3.368,3.368,0,0,0,2.862,1.166l.155,0c3.45,0,8.734-2.344,11.9-6.769a.453.453,0,1,1,.737.527C1667.507,652.725,1661.888,655.2,1658.207,655.2Z" transform="translate(-1652.142 -637.637)" fill="#9f9cff"/>
      </g>
      <g id="Group_3980" data-name="Group 3980" transform="translate(18.876 4.103)">
        <path id="Path_3708" data-name="Path 3708" d="M1664.859,672.366a.453.453,0,0,1-.453-.464c.089-3.791,3.279-9.95,5.153-11.517a.453.453,0,0,1,.582.695c-1.592,1.331-4.454,6.83-4.8,10.326,3.966-.492,9.654-2.656,10.918-3.75a.453.453,0,0,1,.593.685c-1.436,1.243-7.759,3.652-11.956,4.023Z" transform="translate(-1664.406 -660.28)" fill="#9f9cff"/>
      </g>
      <g id="Group_3981" data-name="Group 3981" transform="translate(18.876 7.587)">
        <path id="Path_3709" data-name="Path 3709" d="M1664.859,688.11a.453.453,0,0,1-.172-.872,32.036,32.036,0,0,0,11.964-7.6.453.453,0,1,1,.642.638,32.812,32.812,0,0,1-12.262,7.8A.457.457,0,0,1,1664.859,688.11Z" transform="translate(-1664.406 -679.508)" fill="#9f9cff"/>
      </g>
      <g id="Group_3982" data-name="Group 3982" transform="translate(19.77 3.725)">
        <path id="Path_3710" data-name="Path 3710" d="M1669.793,670.292a.453.453,0,0,1-.42-.624c1.424-3.509,7.937-10.246,11.061-11.442a.453.453,0,0,1,.324.846c-2.838,1.086-9.244,7.73-10.545,10.936A.454.454,0,0,1,1669.793,670.292Z" transform="translate(-1669.34 -658.196)" fill="#9f9cff"/>
      </g>
      <g id="Group_3983" data-name="Group 3983" transform="translate(0 16.376)">
        <path id="Path_3711" data-name="Path 3711" d="M1560.689,754a.448.448,0,0,1-.208-.051.453.453,0,0,1-.195-.61c3.834-7.415,15.875-23.233,18.267-25.225a.453.453,0,1,1,.58.7c-2.356,1.961-14.243,17.6-18.041,24.945A.453.453,0,0,1,1560.689,754Z" transform="translate(-1560.236 -728.008)" fill="#9f9cff"/>
      </g>
    </g>
    <path id="Path_3712" data-name="Path 3712" d="M452.382,1395c-11.717-5.915-21.973.845-26.958,15.477C437.065,1413.705,451.936,1409.346,452.382,1395Z" transform="translate(-318.071 -428.515)" fill="#ced3f8"/>
    <g id="Group_3986" data-name="Group 3986" transform="translate(102.286 949.341)">
      <path id="Path_3713" data-name="Path 3713" d="M434.283,1316.085c-11.67-10.933-25.976-6.547-36.822,8.849C409.965,1332.695,428.844,1332.7,434.283,1316.085Z" transform="translate(-397.461 -1310.021)" fill="#dde2f8"/>
      <g id="Group_3985" data-name="Group 3985" transform="translate(4.005 5.611)">
        <path id="Path_3714" data-name="Path 3714" d="M420.016,1349.445a.453.453,0,0,1-.129-.888c5.375-1.6,12.69-3.139,19.144-4.5,5.3-1.119,10.314-2.176,13.219-3.052a.453.453,0,1,1,.261.867c-2.941.887-7.969,1.948-13.293,3.071-6.437,1.358-13.733,2.9-19.073,4.483A.452.452,0,0,1,420.016,1349.445Z" transform="translate(-419.563 -1340.986)" fill="#bbc0e6"/>
      </g>
    </g>
    <g id="Group_3988" data-name="Group 3988" transform="translate(305.735 917.947)">
      <path id="Path_3715" data-name="Path 3715" d="M1522.724,1145.321c14-14.509,32.3-9.894,46.94,8.807C1554.408,1164.7,1530.63,1165.9,1522.724,1145.321Z" transform="translate(-1522.271 -1136.767)" fill="#ced3f8"/>
      <g id="Group_3987" data-name="Group 3987" transform="translate(0 8.101)">
        <path id="Path_3716" data-name="Path 3716" d="M1561.92,1189.84a.452.452,0,0,1-.107-.013c-6.829-1.66-16.116-3.135-24.309-4.436-6.777-1.076-13.178-2.093-16.934-3.023a.453.453,0,0,1,.218-.88c3.719.921,10.1,1.935,16.859,3.008,8.211,1.3,17.517,2.782,24.381,4.451a.453.453,0,0,1-.107.893Z" transform="translate(-1520.224 -1181.475)" fill="#bbc0e6"/>
      </g>
    </g>
    <g id="Group_3990" data-name="Group 3990" transform="translate(302.457 881.238)">
      <path id="Path_3717" data-name="Path 3717" d="M1503.97,976.193c-2.188-28.784,20.16-43.957,54.09-41.812C1554.844,960.754,1533.5,987.325,1503.97,976.193Z" transform="translate(-1503.517 -934.181)" fill="#e9edf7"/>
      <g id="Group_3989" data-name="Group 3989" transform="translate(0 4.556)">
        <path id="Path_3718" data-name="Path 3718" d="M1502.59,997.232a.453.453,0,0,1-.257-.827c4.53-3.105,11.691-8.967,19.271-15.173,9.207-7.537,19.642-16.08,27.952-21.829a.453.453,0,0,1,.516.745c-8.281,5.728-18.7,14.259-27.894,21.785-7.6,6.219-14.771,12.092-19.333,15.22A.451.451,0,0,1,1502.59,997.232Z" transform="translate(-1502.136 -959.322)" fill="#fff"/>
      </g>
    </g>
    <g id="Group_3992" data-name="Group 3992" transform="translate(201.053 773.056)">
      <path id="Path_3719" data-name="Path 3719" d="M951.244,384.183c-14.636-13.872-10.188-32.21,8.38-47.018C970.331,352.324,971.75,376.09,951.244,384.183Z" transform="translate(-942.522 -337.165)" fill="#ced3f8"/>
      <g id="Group_3991" data-name="Group 3991" transform="translate(8.268 5.256)">
        <path id="Path_3720" data-name="Path 3720" d="M988.606,408.388a.453.453,0,0,1-.441-.558c.887-3.728,1.843-10.12,2.855-16.887,1.229-8.222,2.622-17.541,4.228-24.42a.453.453,0,0,1,.882.206c-1.6,6.843-2.987,16.143-4.214,24.348-1.015,6.787-1.973,13.2-2.87,16.963A.453.453,0,0,1,988.606,408.388Z" transform="translate(-988.153 -366.173)" fill="#bbc0e6"/>
      </g>
    </g>
    <g id="Group_3994" data-name="Group 3994" transform="translate(164.103 769.674)">
      <path id="Path_3721" data-name="Path 3721" d="M781.06,372.211c-28.763,2.45-44.139-19.759-42.3-53.707C765.159,321.48,791.923,342.581,781.06,372.211Z" transform="translate(-738.61 -318.504)" fill="#e9edf7"/>
      <g id="Group_3993" data-name="Group 3993" transform="translate(4.565 6.367)">
        <path id="Path_3722" data-name="Path 3722" d="M801.69,401.435a.453.453,0,0,1-.372-.194c-3.146-4.5-9.073-11.608-15.348-19.132-7.621-9.138-16.258-19.494-22.083-27.753a.453.453,0,1,1,.741-.522c5.8,8.228,14.428,18.57,22.038,27.694,6.288,7.539,12.226,14.66,15.4,19.194a.453.453,0,0,1-.371.712Z" transform="translate(-763.804 -353.643)" fill="#fff"/>
      </g>
    </g>
    <path id="Path_3723" data-name="Path 3723" d="M327.714,1066.017c-1.015,1.96-21.531,5.92-22.537,2.083-.783-2.988,2.4-3.891,3.581-4.129,1.861-.375,6.4-.987,5.9-2.307-.891-2.389-12.166.608-14.957,1.171s-8.364.9-10.547-1.338-2.808-3.4,2.131-4.116,14.839-.923,12.076-3.271-10.417-.415-15.207-.9-13.736-3.027-11.38-5.75c2.107-2.435,15.894.987,15.408-1.428-.389-1.932-4.48-1.444-10.7-2.648s-12.077-2.4-11.681-6.137c.318-3,4.132-1.391,7.494-.784s8.077,1.277,7.226-.45-17.584-3.122-18.159-8.071c-.38-3.275,3.09-1.851,7.043-1.363s5.38.368,5.218-.437-5.383-2.323-8.273-3.081-6.769-2.825-6.139-5.522,5.132-1.006,6.647,0,3.4,1.327,3.7.875-4.462-4.128-2.156-6.268,6.51,1.816,7.126,4.876,1.556,7.171,2.683,6.944.414-3.77-.149-6.561-.142-4.03.61-4.182c2.5-.5,5.348,2.7,5.759,4.742s1.211,13.775,2.875,13.44.9-4.7.441-6.959-1.514-7.515,1.277-8.077,5.722,6.22,6.318,10.568,1.026,11.467,2.314,11.208,1.914-6.027,1.362-8.764-2.931-7.341.5-8.033,4.975,3.347,6.058,8.722c.452,2.246,1.515,7.816.217,11.215-1.478,3.87-1.576,6.036-.686,6.418,1.773.76,2.616-2.817,2.634-5.5s-.434-11.028,3.733-10.3,2.8,7.534,2.527,10.327-2.109,12.545.039,12.95,1.733-4.985,1.784-6.671,1.281-5.146,2.6-4.267S329.523,1062.522,327.714,1066.017Z" transform="translate(-186.018 -116.282)" fill="#ced3f8"/>
    <g id="Group_3995" data-name="Group 3995" transform="translate(152.144 801.803)">
      <path id="Path_3724" data-name="Path 3724" d="M755.88,612.379a33.307,33.307,0,0,1,0-66.615V495.813A83.269,83.269,0,0,0,697,637.965l58.878,57.691V612.379Z" transform="translate(-672.612 -495.813)" fill="#fa9962"/>
      <path id="Path_3725" data-name="Path 3725" d="M1191.022,520.2a83.012,83.012,0,0,0-58.887-24.386v49.952h0a33.307,33.307,0,1,1,0,66.615v83.277h0l58.886-57.691A83.3,83.3,0,0,0,1191.022,520.2Z" transform="translate(-1048.868 -495.813)" fill="#fc7a30"/>
    </g>
    <path id="Path_3726" data-name="Path 3726" d="M692.517,780.934c0-.011,7.561-19.021,10.2-33.009,2.527-13.369,3.5-15.186,2.153-21.744,8.842-4.741,3.373-20.269,1.594-25.709-1.672-5.114-7.337-13.016-16.75-24.1A83.3,83.3,0,0,0,692.517,780.934Z" transform="translate(-520.483 158.15)" fill="#fc7a30"/>
    <g id="Group_3996" data-name="Group 3996" transform="translate(255.185 916.973)">
      <path id="Path_3727" data-name="Path 3727" d="M1276.541,1180.781a14.112,14.112,0,0,1,0-28.224v-21.165a35.281,35.281,0,0,0-24.947,60.23l24.947,24.443v-35.284Z" transform="translate(-1241.26 -1131.392)" fill="#5652cc"/>
      <path id="Path_3728" data-name="Path 3728" d="M1460.91,1141.724a35.171,35.171,0,0,0-24.951-10.332v21.165h0a14.112,14.112,0,1,1,0,28.224v35.284h0l24.95-24.443A35.293,35.293,0,0,0,1460.91,1141.724Z" transform="translate(-1400.679 -1131.392)" fill="#362e94"/>
    </g>
    <g id="Group_3999" data-name="Group 3999" transform="translate(123.43 844.683)">
      <g id="Group_3997" data-name="Group 3997" transform="translate(8.888)">
        <path id="Path_3729" data-name="Path 3729" d="M563.195,759.069c.573,3.192,13.727,8.785,15.584,8.249s12.651-34.872,12.651-34.872c-9.263,1.846-13.869,19.513-15.533,26.046-3.954-2.024-10.252-3.048-10.252-3.048s-2.284,1.5-2.45,3.624" transform="translate(-563.195 -732.447)" fill="#e19100"/>
      </g>
      <path id="Path_3730" data-name="Path 3730" d="M543.552,835.231c-.823.482-1.93,1.322-1.467,1.863a1.741,1.741,0,0,0,1.089.59c-.027.351,1.242,1.207,2.356.84a3.4,3.4,0,0,0,1,.734c.664-.1,2.191-1.569,1.973-2.646a35.214,35.214,0,0,0-.767-4.071c-.338-.834-.814-2.814-1.73-2.709a13.308,13.308,0,0,0-2.633.848l1.884,3.887Z" transform="translate(-536.934 -812.183)" fill="#f0c9c0"/>
      <g id="Group_3998" data-name="Group 3998" transform="translate(0 16.224)">
        <path id="Path_3731" data-name="Path 3731" d="M517.5,825.15c-.666-.425-3.736-2.62-3.316-2.979s1.2-.233,2.3.584a3.372,3.372,0,0,1,1.081,2.486" transform="translate(-514.148 -821.982)" fill="#f8d8d0"/>
      </g>
      <path id="Path_3732" data-name="Path 3732" d="M519.319,817.8c.11.2,4.234,6.039,4.719,6.606.668.78,1.986.56,2.967.389.434-.075,1.914-.153,1.493-.829a76.385,76.385,0,0,0-4.868-6.576,12.1,12.1,0,0,0-4.04-.313C519.408,817.235,519.111,817.427,519.319,817.8Z" transform="translate(-518.324 -801.692)" fill="#423eaf"/>
      <path id="Path_3733" data-name="Path 3733" d="M533.1,851.325c.483-.206,4.89-1.079,5.044-.625.313.924-1.516,1.733-2.9,2s-2.7.514-2.852-.052A1.048,1.048,0,0,1,533.1,851.325Z" transform="translate(-529.049 -829.166)" fill="#f8d8d0"/>
      <path id="Path_3734" data-name="Path 3734" d="M540.377,858.134c.414-.254,4.324-1.646,4.526-1.252.411.8-1.152,1.788-2.38,2.222s-2.394.834-2.614.337A.968.968,0,0,1,540.377,858.134Z" transform="translate(-535.158 -834.277)" fill="#f8d8d0"/>
      <path id="Path_3735" data-name="Path 3735" d="M529.866,839.852c-.743.03-1.646.205-2-.542s.462-1.676,1.02-2.152,1.2-.587,1.582-.142-.408,1.261-.821,1.614l.779,1.1Z" transform="translate(-525.305 -817.838)" fill="#f8d8d0"/>
    </g>
    <path id="Path_3736" data-name="Path 3736" d="M667.105,765.562a265.969,265.969,0,0,1,4.558-32.319c.909-4.549-.523-12.834-4.685-14.182a12.852,12.852,0,0,0-11.931,2.076c-5.116,3.907-14.035,14.344-13.809,16.6.413,4.137,4.055,5.7,2.772,15.395s-2.063,10.879-2.063,10.879S662.183,765.177,667.105,765.562Z" transform="translate(-494.775 123.721)" fill="#fcba06"/>
    <path id="Path_3737" data-name="Path 3737" d="M689.554,610.169c1.865-1.757,1.885-5.558,1.07-6.612s-4.3-.019-5.247-1.62a22.825,22.825,0,0,1-2.344-10.039c-.017-5.255,1.4-8.87,7.229-8.788a8.533,8.533,0,0,1,8.578,8.034c.523,5.294-1.914,10.831-1.46,12.654a3.423,3.423,0,0,0,1.866,2.368S698.188,610.844,689.554,610.169Z" transform="translate(-529.001 234.513)" fill="#f7d3c9"/>
    <g id="Group_4000" data-name="Group 4000" transform="translate(148.11 844.511)">
      <path id="Path_3738" data-name="Path 3738" d="M663.6,779.576c-1.115-.61-6.812-3.346-6.961-4.281a3.3,3.3,0,0,1,.126-1.615,1.813,1.813,0,0,1-.463-1.643c-.245-.287-1.1-1.323-.354-2.319-.453-.127-5.668-.56-5.6-1.484.646-.553,4.575-.35,5.419-.284a19.807,19.807,0,0,1,5.3.857c1.476.657,2.243,3.427,2.92,4.218s2.343,2.474,2.343,2.474Z" transform="translate(-650.352 -761.269)" fill="#f8d8d0"/>
      <path id="Path_3739" data-name="Path 3739" d="M739.587,739.671c-2.054-4.477-4.873-7.5-5.8-7.974-2.242-1.145-9.039,2.553-2.438,13.484a75.709,75.709,0,0,0,5.253,8c0,.041,0,.081,0,.121-4.24-3.105-10.022-7.2-11.6-8.121,0,0-2.354,3.54-3.455,5.141,8.819,9.173,9.974,9.979,14.45,13.813,3.875,3.318,8.1,3.133,8.889,1.852C747.853,762.253,743.769,748.788,739.587,739.671Z" transform="translate(-708.644 -731.498)" fill="#ed9f00"/>
    </g>
    <g id="Group_4001" data-name="Group 4001" transform="translate(154.215 815.775)">
      <path id="Path_3740" data-name="Path 3740" d="M702.038,586.786c-.413,4.515,6.41,6.883,12.067,9.824,6.273,3.262,15.052,10.074,16.953,21.267.817,5.2-6.584,8.861-11.6,8.067-4.886-.774-5.2,2.059-8.988,3.244-13.678,1.194-.414-12.084.3-21.533s-8-6.133-12.24-10.311c-2.972-2.93-.449-5.242-2.409-8.433a8.2,8.2,0,0,0-6.762-4.338c-2.975-.384-4.7-2.983-5.159-5.686a1.508,1.508,0,0,1,.218-1.36C687.4,569.861,703.483,570.972,702.038,586.786Z" transform="translate(-684.115 -572.914)" fill="#362e93"/>
      <path id="Path_3741" data-name="Path 3741" d="M690.05,609.276c4.879-1.8,4.811,4.92,6.736,4.868,3.762-.1-1.313,5.855,1.666,8.789,4.248,4.185,12.946.851,12.243,10.313s-12.532,21.078-.269,21.521c-3.292.871-5.854.823-8.1-2.538-5.6-8.376,8.219-16.427.646-21.36-6.855-4.465-9.409-6.5-8.467-12.187.842-5.078-1.372-2.922-3.059-6.3-.747-1.493-3.094.218-4.629-1.174a8.392,8.392,0,0,1-2.729-7.043C684.65,606.952,687.182,610.336,690.05,609.276Z" transform="translate(-684.043 -598.505)" fill="#1f196f"/>
    </g>
    <g id="Group_4002" data-name="Group 4002" transform="translate(134.237 995.661)">
      <path id="Path_3742" data-name="Path 3742" d="M587.6,1585.721a1.785,1.785,0,0,1,1.6,1.354l1.151-.066a6.306,6.306,0,0,0,.282-4.393c-.465-1.524-.84-1.13-1.219-.7-.872.8-4.593,1.257-4.958.02-.956.2-10.716,3.63-10.663,4.547.086,1.488,1.252,1.416,2.046,1.37C585.222,1587.305,583.946,1586.8,587.6,1585.721Z" transform="translate(-573.788 -1578.65)" fill="#362e94"/>
      <path id="Path_3743" data-name="Path 3743" d="M609.361,1567.289c.24-1.434,4.27-2.731,4.2-.243a3.354,3.354,0,0,0,.305,1.565h0c-.754,1.225-9.267,3.933-10.783,2.18C604.036,1570.208,609.448,1568.79,609.361,1567.289Z" transform="translate(-597.774 -1565.644)" fill="#f7d3c9"/>
    </g>
    <g id="Group_4003" data-name="Group 4003" transform="translate(107.662 992.641)">
      <path id="Path_3744" data-name="Path 3744" d="M439.585,1555.626a1.786,1.786,0,0,1,.674,1.985l1.02.536a6.308,6.308,0,0,0,2.505-3.619c.387-1.546-.137-1.4-.681-1.232-1.158.233-4.584-1.289-4.259-2.538-.923-.321-11.054-2.412-11.482-1.6-.693,1.319.344,1.859,1.048,2.228C436.735,1555.761,435.9,1554.671,439.585,1555.626Z" transform="translate(-427.133 -1548.973)" fill="#362e94"/>
      <path id="Path_3745" data-name="Path 3745" d="M468.309,1551.625c.944-1.1,5.067-.14,3.726,1.957a3.36,3.36,0,0,0-.544,1.5h0c-1.277.661-9.969-1.4-10.364-3.688C462.242,1551.383,467.61,1552.956,468.309,1551.625Z" transform="translate(-454.964 -1550.766)" fill="#f7d3c9"/>
    </g>
    <g id="Group_4004" data-name="Group 4004" transform="translate(139.58 887.245)">
      <path id="Path_3746" data-name="Path 3746" d="M611.058,967.331c-15.617,26.492-3.156,84.668-1.693,109.984l4.492-.26c1.051-3.124,4.7-33.591,4.068-48.54,7.3-20.514,10.721-53.542,11.739-59.664Z" transform="translate(-603.273 -967.331)" fill="#362e94"/>
    </g>
    <g id="Group_4005" data-name="Group 4005" transform="translate(120.889 887.751)">
      <path id="Path_3747" data-name="Path 3747" d="M551.566,971.656c.965,22.012-10.253,41.3-24.286,59.908-7.549,20.653-16.833,35.477-23.265,46.552l-3.891-2.26c.971-6.706,28.133-94.532,32.662-105.733C537.641,970.528,551.566,971.656,551.566,971.656Z" transform="translate(-500.124 -970.124)" fill="#423eaf"/>
    </g>
    <path id="Path_3748" data-name="Path 3748" d="M290.54,558.409l2.933-5.763a1.352,1.352,0,0,1,1.818-.593l5.763,2.934a1.353,1.353,0,0,1,.592,1.819l-2.933,5.763a1.352,1.352,0,0,1-1.818.593l-5.764-2.934A1.353,1.353,0,0,1,290.54,558.409Z" transform="translate(-207.508 260.062)" fill="#6b67e9"/>
    <path id="Path_3749" data-name="Path 3749" d="M1563.5,268.267l2.854,7.543a1.134,1.134,0,0,0,1.939.316l5.105-6.243a1.134,1.134,0,0,0-.7-1.838l-7.96-1.3A1.134,1.134,0,0,0,1563.5,268.267Z" transform="translate(-1249.861 493.562)" fill="#ffd03e"/>
    <path id="Path_3750" data-name="Path 3750" d="M1339.768,1715.794l-5.509,5.889a1.134,1.134,0,0,0,.572,1.88l7.855,1.827a1.135,1.135,0,0,0,1.343-1.435l-2.346-7.716A1.134,1.134,0,0,0,1339.768,1715.794Z" transform="translate(-1061.97 -692.63)" fill="#fcba06"/>
  </g>
</svg>
