<svg xmlns="http://www.w3.org/2000/svg" width="278.228" height="245.354" viewBox="0 0 278.228 245.354">
  <g id="Group_4307" data-name="Group 4307" transform="translate(0 0)">
    <g id="Plants" transform="translate(0 0)">
      <g id="Group_4268" data-name="Group 4268" transform="translate(0 112.692)">
        <g id="Group_4266" data-name="Group 4266" transform="translate(10.333 6.453)">
          <path id="Path_5548" data-name="Path 5548" d="M1987.359,1157.4a37.822,37.822,0,0,0,12.394-2.056.415.415,0,1,0-.277-.783c-8.894,3.156-18.666,2.023-21.023.353a.415.415,0,1,0-.48.678C1979.462,1156.644,1983.021,1157.4,1987.359,1157.4Z" transform="translate(-1977.797 -1154.533)" fill="#ced3f8"/>
        </g>
        <g id="Group_4267" data-name="Group 4267">
          <path id="Path_5549" data-name="Path 5549" d="M2123.7,1115.848l-2.866-3.586,4.391-1.321-2.248-2.679a6.907,6.907,0,0,1,3.42-.187c4.748,1.476,7.877,4.987,6.99,7.841s-5.456,3.972-10.2,2.5a5.249,5.249,0,0,1-2.418-1.609Z" transform="translate(-2120.768 -1107.92)" fill="#ced3f8"/>
        </g>
      </g>
      <g id="Group_4270" data-name="Group 4270" transform="translate(221.68 43.045)">
        <path id="Path_5550" data-name="Path 5550" d="M473.289,612.08c2.007-.519,3.854-1.7,3.446-2.919-.389-1.161-2.438-1.017-4.34-.392.695-1.659.841-3.38-.195-3.827-2.031-.877-4.509,5.125-3.929,6.818.4,2.339,6.014,5.268,7.035,3.3C475.792,614.122,474.724,612.975,473.289,612.08Z" transform="translate(-456.905 -604.854)" fill="#ced3f8"/>
        <g id="Group_4269" data-name="Group 4269" transform="translate(0 6.489)">
          <path id="Path_5551" data-name="Path 5551" d="M527.148,667a.415.415,0,0,0,.394-.284c2.52-7.562,8.344-13.477,10.675-14.178a.415.415,0,1,0-.239-.8c-2.8.841-8.7,7.137-11.224,14.711a.415.415,0,0,0,.263.525A.409.409,0,0,0,527.148,667Z" transform="translate(-526.732 -651.727)" fill="#dde2f8"/>
        </g>
        <path id="Path_5552" data-name="Path 5552" d="M515.772,642.2a1.575,1.575,0,0,0-.689-.909c.519-.214,1.132-.845.822-1.375-.222-.378-.886-.051-1.42.326a2.519,2.519,0,0,0,.064-.679c-.126-1.851-1.523.728-1.088,1.63a5.247,5.247,0,0,0,.614.878C514.665,642.781,515.851,642.886,515.772,642.2Z" transform="translate(-502.359 -634.197)" fill="#dde2f8"/>
      </g>
      <g id="Group_4272" data-name="Group 4272" transform="translate(151.817 28.672)">
        <path id="Path_5553" data-name="Path 5553" d="M899.391,549.671c-24-.883-34.455-20.779-29.508-48.628C891.385,506.169,911.355,526.3,899.391,549.671Z" transform="translate(-868.683 -501.043)" fill="#dde2f8"/>
        <g id="Group_4271" data-name="Group 4271" transform="translate(4.118 5.709)">
          <path id="Path_5554" data-name="Path 5554" d="M918.237,585.615a.415.415,0,0,0,.366-.61c-2.159-4.066-6.345-10.547-10.776-17.409-5.362-8.3-11.439-17.715-15.4-25.1a.415.415,0,1,0-.732.393c3.976,7.41,10.063,16.836,15.434,25.153,4.421,6.847,8.6,13.314,10.74,17.348A.415.415,0,0,0,918.237,585.615Z" transform="translate(-891.647 -542.281)" fill="#e9edf7"/>
        </g>
      </g>
      <path id="Path_5555" data-name="Path 5555" d="M1372.815,1596.329c-.857-12.3-11.244-17.333-25.452-14.324C1350.355,1592.952,1361.022,1602.863,1372.815,1596.329Z" transform="translate(-1252.967 -1402.945)" fill="#bbc0e6"/>
      <g id="Group_4274" data-name="Group 4274" transform="translate(192.392 151.665)">
        <path id="Path_5556" data-name="Path 5556" d="M204.483,1431.364c1.478,6.6,10.167,13.756,16.778,13.093s7.685-6.883,11.365-6.248,8.259,7.154,13.166,5.793c8.719-2.42,2.242-15.855,8.484-18.3s9.376,5.274,15.567,3.907.2-12.146,6.522-16.6,18.005-16.365,10.323-22.287c-6.072-4.68-8.446,4.741-11.755,4.715-3.774-.03-4.31-4.823-8.477-3.945-5.888,1.24-5.967,9.211-10.968,9.43s-6.6-6.193-11.995-2.388c-6.679,4.712,1.265,14.881-9.371,16.383s-6.873-11.819-13.569-11.818c-7.309,0-5.889,13.12-10.727,11.953C203.244,1413.463,202.19,1421.132,204.483,1431.364Z" transform="translate(-203.38 -1389.418)" fill="#e9edf7"/>
        <g id="Group_4273" data-name="Group 4273" transform="translate(1.227 9.996)">
          <path id="Path_5557" data-name="Path 5557" d="M291.243,1496.422a5.912,5.912,0,0,0,3.479-.953,26.2,26.2,0,0,0,2.963-2.574,16.5,16.5,0,0,1,5.19-3.807c4.317-1.716,7.972-.96,11.2-.294,2.448.506,4.76.984,6.914.245,1.992-.684,2.495-2.083,3.026-3.565a7.428,7.428,0,0,1,2.836-4.128,5.449,5.449,0,0,1,4.034-1.134,7.716,7.716,0,0,0,5.572-1.719,7.927,7.927,0,0,0,3.267-4.543,7.92,7.92,0,0,1,2.956-4.311,15.213,15.213,0,0,1,10.06-3.126c1.681-.031,3.008-.056,3.938-.786a3.8,3.8,0,0,0,1.605-3.8.415.415,0,0,0-.805.205,3,3,0,0,1-1.313,2.939c-.71.557-1.915.58-3.44.609-2.73.051-6.469.12-10.555,3.3a8.719,8.719,0,0,0-3.23,4.693,7.138,7.138,0,0,1-2.962,4.137,6.932,6.932,0,0,1-5.059,1.568,6.266,6.266,0,0,0-4.547,1.285,8.224,8.224,0,0,0-3.139,4.526c-.5,1.4-.9,2.506-2.514,3.06-1.938.666-4.041.231-6.476-.273-3.339-.691-7.124-1.474-11.672.335a17.137,17.137,0,0,0-5.458,3.98,25.174,25.174,0,0,1-2.866,2.494c-1.781,1.257-4.361.766-6.433.372a10.449,10.449,0,0,0-2.385-.291.415.415,0,0,0,.064.828,10.091,10.091,0,0,1,2.166.279A19.413,19.413,0,0,0,291.243,1496.422Z" transform="translate(-285.04 -1461.618)" fill="#ced3f8"/>
        </g>
      </g>
      <path id="Path_5558" data-name="Path 5558" d="M1891.7,993.071c-16.1,10.944-32.481,2.965-42.62-17.6C1865.59,968.495,1888.3,972.059,1891.7,993.071Z" transform="translate(-1841.317 -878.318)" fill="#423eaf"/>
      <g id="Group_4276" data-name="Group 4276" transform="translate(24.789 70.386)">
        <path id="Path_5559" data-name="Path 5559" d="M1881.05,834.775c-16.481.13-24.257-13.189-21.72-32.434C1874.229,805.2,1888.536,818.386,1881.05,834.775Z" transform="translate(-1858.859 -802.341)" fill="#6b67e9"/>
        <g id="Group_4275" data-name="Group 4275" transform="translate(2.528 3.682)">
          <path id="Path_5560" data-name="Path 5560" d="M1890.349,858.1a.411.411,0,0,0,.21-.058.415.415,0,0,0,.147-.569c-1.609-2.728-4.68-7.048-7.933-11.623-3.927-5.524-8.379-11.784-11.316-16.716a.415.415,0,0,0-.714.425c2.955,4.96,7.416,11.235,11.353,16.772,3.242,4.559,6.3,8.866,7.894,11.563A.415.415,0,0,0,1890.349,858.1Z" transform="translate(-1870.685 -828.937)" fill="#5652cc"/>
        </g>
      </g>
      <g id="Group_4278" data-name="Group 4278" transform="translate(205.583 61.741)">
        <path id="Path_5561" data-name="Path 5561" d="M435.5,761.992c2.181-18.832,18.483-25.827,40.094-20.211C470.227,758.385,453.149,772.854,435.5,761.992Z" transform="translate(-435.083 -739.897)" fill="#dde2f8"/>
        <g id="Group_4277" data-name="Group 4277" transform="translate(0 3.712)">
          <path id="Path_5562" data-name="Path 5562" d="M469.221,785.506a.416.416,0,0,0,.165-.034c3.338-1.45,8.7-4.345,14.381-7.41,6.862-3.7,14.64-7.9,20.687-10.559a.415.415,0,1,0-.334-.761c-6.078,2.671-13.871,6.877-20.747,10.589-5.663,3.056-11.012,5.943-14.318,7.379a.416.416,0,0,0,.166.8Z" transform="translate(-468.805 -766.707)" fill="#ced3f8"/>
        </g>
      </g>
      <g id="Group_4286" data-name="Group 4286" transform="translate(177.688 0)">
        <path id="Path_5563" data-name="Path 5563" d="M569.665,371.478c-5.637-2.263-17.656-12.451-12.713-24.794,2.237-5.586,3.153-6.921,5.427-7.756,1.481-.544,3-.251,3.588-1.53,1.068-2.34-7.688-6.337-4.627-15.2S571.2,314.029,572,311.625s-2.41-4.753.436-8.214,8.623,1.1,12.894-2.844c4.441-4.1,13.311-9.271,17.2-5.055s.308,7.215.693,11.129,8.278,12.041,1.716,18.1c-6.522,6.022-9.822,7.3-5.629,17.592s-2.129,19.464-7.337,21.043-2.683,3.467.507,3.594.429,4.187-3.308,5.554S576.74,374.318,569.665,371.478Z" transform="translate(-555.786 -293.943)" fill="#ced3f8"/>
        <g id="Group_4279" data-name="Group 4279" transform="translate(13.221 8.869)">
          <path id="Path_5564" data-name="Path 5564" d="M638.718,430.122a.415.415,0,0,0,.415-.412c.233-30.111,13.674-56.43,26.175-71.019a.415.415,0,1,0-.631-.541c-12.6,14.7-26.14,41.218-26.375,71.554a.415.415,0,0,0,.412.419Z" transform="translate(-638.303 -358.005)" fill="#dde2f8"/>
        </g>
        <g id="Group_4280" data-name="Group 4280" transform="translate(22.706 14.373)">
          <path id="Path_5565" data-name="Path 5565" d="M716.254,406.773a.416.416,0,0,0,.37-.6c-.667-1.315-4.094-6.325-7.171-8.343a.415.415,0,1,0-.455.695c2.9,1.9,6.265,6.8,6.886,8.024A.415.415,0,0,0,716.254,406.773Z" transform="translate(-708.81 -397.759)" fill="#dde2f8"/>
        </g>
        <g id="Group_4281" data-name="Group 4281" transform="translate(32.093 18.477)">
          <path id="Path_5566" data-name="Path 5566" d="M627.885,428.542a.414.414,0,0,0,.1-.011,32.466,32.466,0,0,1,8.725,0,.415.415,0,1,0,.162-.814,32.988,32.988,0,0,0-9.08,0,.415.415,0,0,0,.1.819Z" transform="translate(-627.47 -427.404)" fill="#dde2f8"/>
        </g>
        <g id="Group_4282" data-name="Group 4282" transform="translate(13.392 30.005)">
          <path id="Path_5567" data-name="Path 5567" d="M777.182,520.868a.416.416,0,0,0,.384-.573,19.986,19.986,0,0,0-8.208-9.562.415.415,0,1,0-.449.7,19.1,19.1,0,0,1,7.889,9.179A.416.416,0,0,0,777.182,520.868Z" transform="translate(-768.718 -510.667)" fill="#dde2f8"/>
        </g>
        <g id="Group_4283" data-name="Group 4283" transform="translate(24.356 31.477)">
          <path id="Path_5568" data-name="Path 5568" d="M664.6,523.319a.413.413,0,0,0,.186-.044c1.7-.857,8.385-1.24,11.355-1.123a.42.42,0,0,0,.431-.4.415.415,0,0,0-.4-.431c-2.978-.118-9.875.261-11.762,1.211a.415.415,0,0,0,.187.786Z" transform="translate(-664.18 -521.3)" fill="#dde2f8"/>
        </g>
        <g id="Group_4284" data-name="Group 4284" transform="translate(16.855 52.571)">
          <path id="Path_5569" data-name="Path 5569" d="M737.991,675.225a.41.41,0,0,0,.157-.031c2.208-.9,5.089-.729,7.4-.59.465.028.909.054,1.32.07a.415.415,0,1,0,.033-.83c-.406-.016-.843-.042-1.3-.07-2.4-.144-5.385-.322-7.768.651a.415.415,0,0,0,.157.8Z" transform="translate(-737.576 -673.66)" fill="#dde2f8"/>
        </g>
        <g id="Group_4285" data-name="Group 4285" transform="translate(8.104 51.603)">
          <path id="Path_5570" data-name="Path 5570" d="M822.227,677.264a.41.41,0,0,0,.106-.014.415.415,0,0,0,.3-.507c-.727-2.769-3.9-7.242-7.079-9.971a.415.415,0,0,0-.541.63c3.068,2.636,6.126,6.921,6.817,9.552A.416.416,0,0,0,822.227,677.264Z" transform="translate(-814.864 -666.672)" fill="#dde2f8"/>
        </g>
      </g>
      <g id="Group_4288" data-name="Group 4288" transform="translate(7.452 115.438)">
        <path id="Path_5571" data-name="Path 5571" d="M1851.13,1129.216c4.664,27.707-15.658,44.387-48.735,45.307C1803.182,1148.676,1821.524,1121.036,1851.13,1129.216Z" transform="translate(-1802.395 -1127.753)" fill="#fa8745"/>
        <g id="Group_4287" data-name="Group 4287" transform="translate(5.814 1.047)">
          <path id="Path_5572" data-name="Path 5572" d="M1804.6,1176.191a.414.414,0,0,0,.266-.1c7.544-6.3,16.9-15.5,25.155-23.62,6.8-6.689,13.229-13.007,17.349-16.42a.415.415,0,1,0-.53-.64c-4.147,3.435-10.586,9.765-17.4,16.467-8.244,8.105-17.587,17.292-25.106,23.575a.415.415,0,0,0,.267.734Z" transform="translate(-1804.183 -1135.319)" fill="#eb6c21"/>
        </g>
      </g>
      <g id="Group_4290" data-name="Group 4290" transform="translate(90.066 188.123)">
        <path id="Path_5573" data-name="Path 5573" d="M1266.3,1665.978c-10.22-17.333-29.047-17.1-47.593-2.353C1231.059,1677.423,1253.853,1684.111,1266.3,1665.978Z" transform="translate(-1218.709 -1652.758)" fill="#dde2f8"/>
        <g id="Group_4289" data-name="Group 4289" transform="translate(5.426 10.466)">
          <path id="Path_5574" data-name="Path 5574" d="M1257.542,1731.522h.338a.415.415,0,0,0,.412-.418.428.428,0,0,0-.419-.412c-3.829.034-10.249-.469-17.053-1-8.272-.641-17.643-1.365-24.7-1.343a.415.415,0,0,0,0,.831h.357c6.974,0,16.157.712,24.275,1.341C1247.382,1731.036,1253.651,1731.522,1257.542,1731.522Z" transform="translate(-1215.709 -1728.35)" fill="#ced3f8"/>
        </g>
      </g>
    </g>
    <g id="Shadow" transform="translate(26.719 229.809)">
      <path id="Path_5575" data-name="Path 5575" d="M704.723,1958.195c0-2.4-24.673-4.337-55.108-4.337s-55.108,1.942-55.108,4.337,24.672,4.337,55.108,4.337S704.723,1960.59,704.723,1958.195Z" transform="translate(-507.364 -1953.857)" fill="#e9efff"/>
      <path id="Path_5576" data-name="Path 5576" d="M1463.208,2007.815c0-2.4-20.031-4.337-44.739-4.337s-44.739,1.942-44.739,4.337,20.03,4.337,44.739,4.337S1463.208,2010.21,1463.208,2007.815Z" transform="translate(-1373.73 -1996.607)" fill="#e9efff"/>
    </g>
    <g id="Globe" transform="translate(96.244 67.547)">
      <g id="Group_4298" data-name="Group 4298">
        <path id="Path_5577" data-name="Path 5577" d="M619.206,862.315a71.477,71.477,0,1,0-71.476,71.479A71.477,71.477,0,0,0,619.206,862.315Z" transform="translate(-475 -789.593)" fill="#423eaf"/>
        <path id="Path_5578" data-name="Path 5578" d="M580.178,807.007v-.018a1.125,1.125,0,0,1-.078.153.665.665,0,0,0-.062.334.458.458,0,0,0,.191.385.316.316,0,0,0,.351-.04.378.378,0,0,0,.117-.339.854.854,0,0,0-.127-.281.624.624,0,0,1-.1-.287.24.24,0,0,1,.152-.244.155.155,0,0,1,.1.008.315.315,0,0,1,.084.079c.125.122.359.122.425.285.015.037.021.082.053.108s.117.007.171.035.052.117.077.182c.042.106.168.147.277.182a2.719,2.719,0,0,1,.423.18.144.144,0,0,1,.073.061.358.358,0,0,1,.014.109c.015.093.111.145.2.17a.245.245,0,0,0,.226-.019.212.212,0,0,0,.065-.119.518.518,0,0,0-.017-.3,2.426,2.426,0,0,0-.134-.265.349.349,0,0,1-.02-.288,1.457,1.457,0,0,0-.318.164.214.214,0,0,1,0-.185c.016-.033.038-.068.019-.1a.086.086,0,0,0-.042-.028.86.86,0,0,0-.316-.02.376.376,0,0,1-.3-.09.684.684,0,0,0-.076-.083c-.076-.061-.184-.026-.273.013,0,0,.015-.068.018-.077a.574.574,0,0,1,.291-.318.9.9,0,0,1,.1-.038c.025-.01.056-.032.085-.029s.061.042.085.062.068.045.1.07a.388.388,0,0,0,.236.091.22.22,0,0,0,.2-.207.136.136,0,0,0-.038-.1c-.042-.035-.108-.027-.149-.064-.083-.08.049-.231-.01-.329-.04-.063-.135-.066-.185-.12-.064-.075-.013-.187-.006-.284a.076.076,0,0,0-.013-.059.132.132,0,0,0-.029-.022.28.28,0,0,0-.388.2c-.015.106.024.244-.068.3a.054.054,0,0,1-.046.01.09.09,0,0,1-.029-.026,1.393,1.393,0,0,1-.095-.25c-.034-.084-.124-.159-.206-.121a.168.168,0,0,0-.079.156,1.345,1.345,0,0,1,0,.183.059.059,0,0,1-.021.045c-.025.024-.071,0-.093-.026-.06-.077-.056-.186-.109-.265a.225.225,0,0,0-.264-.078.221.221,0,0,0-.13.241c.019.1.108.189.078.286-.013.042-.044.076-.057.115s0,.113-.016.162a.291.291,0,0,1-.05.087,1.564,1.564,0,0,0-.25.6v0a.022.022,0,0,0,0,.01A.225.225,0,0,0,580.178,807.007Zm.015-.058a.046.046,0,0,0,0,.013.161.161,0,0,1-.011.027c.007-.045.007-.091.01-.136A.286.286,0,0,1,580.193,806.949Zm-8.632,120a.8.8,0,0,1-.6-.65c-.073-.305-.054-.625-.123-.931a4.8,4.8,0,0,1-.326-1.22.782.782,0,0,0-.014-.363c-.092-.207-.37-.227-.565-.339-.418-.237-.407-.843-.692-1.226-.14-.185-.355-.323-.421-.549a2.221,2.221,0,0,1-.048-.321c-.068-.411-.468-.721-.489-1.137-.011-.223.06-.52-.143-.613a.4.4,0,0,1-.476.3.174.174,0,0,1-.1-.061.236.236,0,0,1-.039-.164c0-.388,0-.78.006-1.173a1.041,1.041,0,0,1,.08-.478c.1-.194.312-.311.4-.509a1.275,1.275,0,0,0-.017-.734c-.038-.245,0-.553.222-.662a.611.611,0,0,1,.295-.037c.266.014.584.111.643.371a1.283,1.283,0,0,1-.033.392c-.013.132.03.291.157.33.071.019.151,0,.215.028.1.043.115.167.179.249a.618.618,0,0,0,.4.147c.14.025.308.1.321.244.013.176-.2.384-.064.491a.411.411,0,0,0,.17.045c.239.052.293.363.3.61a.467.467,0,0,1,.636.286c.022.083.038.2.125.208a.183.183,0,0,0,.133-.061c.14-.119.355-.237.5-.115.113.1.082.276.059.424s-.011.343.131.389.26-.087.35-.2.238-.231.363-.156a.486.486,0,0,1,.088.082c.176.169.451.126.692.107s.608,0,.68.23c.074.023.1.121.162.162s.139.019.2.042a.377.377,0,0,1,.164.146,2.357,2.357,0,0,1,.339.588,1.609,1.609,0,0,1,.072.554.815.815,0,0,1-.039.263.939.939,0,0,1-.157.256c-.119.15-.238.3-.356.454a.391.391,0,0,0-.11.242.558.558,0,0,0,.119.236c.164.281-.067.682.157.916.055.058.132.094.187.152.114.118.122.307.228.434a.76.76,0,0,0,.367.191,1.174,1.174,0,0,1,.419.21.518.518,0,0,1,.2.406c-.011.264-.262.444-.483.588a.47.47,0,0,0-.14.116.407.407,0,0,0-.046.263c0,.068.007.137,0,.207s-.021.123-.03.188a1.288,1.288,0,0,1-.079.373c-.127.263-.454.34-.735.419a3.759,3.759,0,0,0-.535.2.914.914,0,0,1-.7.145,1.25,1.25,0,0,0-.131-.056.509.509,0,0,0-.193.005,2.264,2.264,0,0,1-.371.019.861.861,0,0,1-.227-.026,1.3,1.3,0,0,1-.283-.121,3.447,3.447,0,0,1-.657-.414A1.92,1.92,0,0,1,571.561,926.951Zm-40.753-38.939a.5.5,0,0,1-.038.343.691.691,0,0,1-.445.275,1.639,1.639,0,0,1-.711.069,1.436,1.436,0,0,1-1.073-.717,2,2,0,0,1-.162-1.2,3.111,3.111,0,0,1,.956-1.984,1.222,1.222,0,0,1,1.315-.293.345.345,0,0,1,.161.153.48.48,0,0,1,.019.172c-.016.6-.027,1.2-.029,1.807,0,.308,0,.616,0,.924C530.8,887.712,530.8,887.862,530.809,888.012Zm49.008-82.018c-.115.059-.178.189-.292.252a.53.53,0,0,1-.353.026,3.4,3.4,0,0,1-.73-.248.447.447,0,0,1-.178-.121.152.152,0,0,1,.008-.2c.1-.082.245.05.372.022a.435.435,0,0,0,.114-.059.471.471,0,0,1,.482.021.434.434,0,0,1,.083-.2.156.156,0,0,1,.2-.045c.031.019.049.054.083.067.072.033.142-.048.216-.079.125-.05.266.065.307.194a1.578,1.578,0,0,1,.023.408c.005.085.02.17.029.255a2.541,2.541,0,0,1,.01.567c-.016-.072-.05-.145-.061-.218a.775.775,0,0,0-.035-.276.435.435,0,0,1-.056-.093c-.026-.072.027-.157-.005-.228S579.89,805.956,579.816,805.994Zm4.261,37.054a.2.2,0,0,0-.063.01l.029-.016.034,0Zm.681-41.618a.431.431,0,0,1-.095-.082ZM518.578,867.8a2.156,2.156,0,0,0-.568,1.6c.1.477.356.715.279,1.2a2.449,2.449,0,0,1-1.4-2c-.033-.461-.064-1.1-.524-1.152a5.041,5.041,0,0,1-1.247,2.566,2.1,2.1,0,0,0-.451.6,3.19,3.19,0,0,0-.12.7,5.691,5.691,0,0,1-.55,1.374,10.958,10.958,0,0,0-.47,5.457,1.02,1.02,0,0,1-.708-.475c.125.546-.57.857-.984,1.229-1.051.944-.556,3.046-1.807,3.7a2.458,2.458,0,0,1-1.024.208,1.322,1.322,0,0,1-.668-.083.478.478,0,0,1-.269-.558c.132-.332.63-.276.911-.5.437-.339.122-1.016.032-1.564a1.752,1.752,0,0,1,1.836-1.935.367.367,0,1,1,.681-.253c.142-.646.284-1.289.427-1.935.275.156.552.31.829.466a19.646,19.646,0,0,0,.381-5.871.575.575,0,0,0-.162-.421c-.228-.168-.544.087-.639.352s-.111.581-.322.771a.707.707,0,0,0-1.259.54c-.283-.177-.562-.354-.844-.531a.7.7,0,0,1-1.032.65c-.093.587-.184,1.171-.279,1.758a.639.639,0,0,1-.738-.465,2.92,2.92,0,0,1-.061-.966,8.566,8.566,0,0,0-.606-2.436,7.084,7.084,0,0,1-.371-3.681,11.907,11.907,0,0,0,.4-1.405,1.312,1.312,0,0,1,.541-.761.964.964,0,0,0,.175-.186,1.9,1.9,0,0,0,.123-.39.932.932,0,0,1,.552-.518,3.169,3.169,0,0,1,.763-.152,2.187,2.187,0,0,0,.752-.2.484.484,0,0,0,.242-.236,1.019,1.019,0,0,0,.039-.244c.061-.486.53-.826.681-1.292a10.9,10.9,0,0,0,.074-2.825,1.266,1.266,0,0,0-.077-.654,3.721,3.721,0,0,0-.244-.337.418.418,0,0,1-.068-.391,2.136,2.136,0,0,0-1.254-.863.772.772,0,0,0-.05.473,1.377,1.377,0,0,1,.017.48.365.365,0,0,1-.331.3c-.234-.007-.339-.308-.321-.542.038-.435.276-.867.156-1.284-.045-.157-.139-.3-.193-.452a1.82,1.82,0,0,1-.07-.32c-.053-.326-.1-.653-.157-.98-.041-.254.159-.411.024-.629-.048-.08-.123-.143-.168-.225-.079-.15-.054-.343-.149-.481-.062-.087-.161-.134-.228-.214-.205-.233-.077-.62-.241-.884-.064-.1-.169-.177-.235-.277a.956.956,0,0,1-.112-.5c-.039-1-.048-2-.035-2.994a.767.767,0,0,1,.228-.654,4.486,4.486,0,0,1,.129-1.326c.043-.19.109-.374.143-.566a8.856,8.856,0,0,1,.125-1.217c.139-.426.495-.764.581-1.2.042-.23.008-.469.029-.7a2.754,2.754,0,0,1,.183-.676q.219-.612.439-1.223a.222.222,0,0,1,.053-.092c.082-.076.215.005.269.1s.081.219.173.279c.179.116.4-.1.453-.3a2.331,2.331,0,0,0,.011-.735,1.215,1.215,0,0,1,.119-.717.5.5,0,0,1,.631-.222c.122.068.263.207.368.117a.177.177,0,0,0,.052-.093c.066-.309-.376-.523-.386-.839-.01-.258.272-.427.523-.492a1.252,1.252,0,0,0,.706-.288,1.47,1.47,0,0,0,.19-.364.393.393,0,0,1,.122-.157.473.473,0,0,1,.172-.051l.688-.1c.129-.019.2-.176.264-.285a5.731,5.731,0,0,0,.779-1.777c.156-.839-.069-1.718.106-2.552.025-.132.095-.286.228-.289.1,0,.178.088.234.173.159.244.272.6.061.8.233.11.237.432.206.686s-.044.573.182.694.479-.043.656-.218.369-.385.616-.375a.733.733,0,0,0,.184.006.3.3,0,0,0,.141-.088.767.767,0,0,0,.157-.836c-.088-.193-.26-.369-.225-.578s.279-.333.375-.532c.128-.26-.028-.591.094-.855.083-.191.3-.316.334-.525a3.454,3.454,0,0,0-.023-.391,1.224,1.224,0,0,1,.144-.385.369.369,0,0,0-.016-.392.29.29,0,0,0-.363-.018.622.622,0,0,0-.215.325c-.071.213-.1.44-.155.659a.933.933,0,0,1-.354.559.461.461,0,0,1-.61-.068.632.632,0,0,1-.005-.594,1.345,1.345,0,0,0,.163-.59.88.88,0,0,0-.5-.62.5.5,0,0,0-.227-.084c-.2-.006-.346.2-.382.395s0,.4-.035.6a.855.855,0,0,1-.544.642c-.178.063-.44.013-.463-.173,0-.051.008-.105,0-.156-.029-.14-.237-.172-.349-.084a.6.6,0,0,0-.172.381.784.784,0,0,1-.133.4,1.378,1.378,0,0,1-.238.185,1.855,1.855,0,0,0-.442.651,7.487,7.487,0,0,1-1.014,1.355c-.052.058-.129.125-.2.093a.164.164,0,0,1-.076-.1c-.168-.408.1-.85.178-1.284.043-.242.023-.495.083-.736a2.211,2.211,0,0,1,.271-.6c.024-.041.051-.083.074-.125.107-.161.211-.325.32-.486.039-.053.072-.108.114-.155a4.9,4.9,0,0,1,1.036-.825,3.156,3.156,0,0,1,1.312-.6c.245-.029.542-.022.68-.228a.673.673,0,0,0,.078-.2c.128-.427.254-.858.379-1.286a2.532,2.532,0,0,1,.735-1.433,1.483,1.483,0,0,0,.331-.3,1.994,1.994,0,0,0,.174-.525,2.472,2.472,0,0,1,.281-.554,10.36,10.36,0,0,1,.919-1.318.579.579,0,0,0,.148-.244.2.2,0,0,0-.078-.2A71.921,71.921,0,0,1,529.7,810.581a.18.18,0,0,0,.106.024.415.415,0,0,0,.221-.125,2.756,2.756,0,0,0,.344-.388,71.206,71.206,0,0,1,20.854-10.283,3.685,3.685,0,0,1,.016.474c-.061.368-.495.518-.854.62s-.782.317-.766.69c.114-.1.3.074.26.22s-.192.226-.337.278l.3.211a2.664,2.664,0,0,1-1.26.483c-.06.1.038.23.141.3a1.909,1.909,0,0,0,1.723,0,8.207,8.207,0,0,1,1.67-.637c.335-.053.8.1.75.438-.158.026-.314.048-.472.074a1.231,1.231,0,0,0,.462-.011c.156-.005.346.1.311.253-.026.121-.173.164-.293.193a.811.811,0,0,0-.471.246.343.343,0,0,0,.029.48.547.547,0,0,0,.274.066l1.01.048a.939.939,0,0,0-.035,1.207c.27.192.8-.058.9.257a.471.471,0,0,1-.038.292,1.931,1.931,0,0,0,.036,1.258.329.329,0,0,0,.17.215.258.258,0,0,0,.3-.164.963.963,0,0,0,.04-.369,2.324,2.324,0,0,1,.838-1.749,1.149,1.149,0,0,0,.28-.266,2.687,2.687,0,0,0,.121-.29c.238-.525.928-.625,1.506-.647a.926.926,0,0,1,.038.645,3.847,3.847,0,0,0,1.29-.361c.051.087.1.175.156.261a1.967,1.967,0,0,1,.9-.43,1.42,1.42,0,0,1-.647,1.046c-.105.069-.23.133-.27.254-.064.191.13.359.244.523.1.138.082.4-.051.44.327-.01.925.161.707.581-.029.053-.071.118-.032.164.02.027.057.032.087.045.134.058.138.255.247.35.069.061.17.071.237.132.146.125.068.356.086.546a.865.865,0,0,1,.03.314c-.045.167-.246.225-.415.26s-.365.113-.387.283a.329.329,0,0,0,.249.32c.138.049.291.049.431.09s.279.156.276.3c0,.072-.029.162.03.2s.113,0,.172.006a.17.17,0,0,1,.111.224.425.425,0,0,1-.193.2.653.653,0,0,0-.216.184c-.054.088-.062.2-.127.281-.143.184-.452.071-.664.174a1.457,1.457,0,0,1-.135.072.6.6,0,0,1-.2.018,1.111,1.111,0,0,0-.67.229c-.165.127-.412.238-.419.445a.648.648,0,0,1-.029.284.448.448,0,0,1-.208.144.86.86,0,0,0-.4.422.171.171,0,0,0-.013.132.163.163,0,0,0,.111.073.766.766,0,0,0,.7-.217,1.693,1.693,0,0,0,.384-.65.846.846,0,0,1,.15-.294.632.632,0,0,1,.453-.154,2.48,2.48,0,0,0,.488-.011,4.11,4.11,0,0,1,.588-.182c.2-.012.394.084.58.034.107-.027.228-.1.313-.027s.034.219-.06.279a1.986,1.986,0,0,1-.316.106.492.492,0,0,0-.25.221c.125.019.275.111.25.237a.2.2,0,0,1-.169.136.91.91,0,0,1-.225-.011,1.05,1.05,0,0,0-.66.161c-.037.023-.075.058-.069.1.007.058.08.074.138.077.408.016.816.013,1.225-.006a.87.87,0,0,0,.283-.049.29.29,0,0,0,.183-.208c.01-.058-.006-.117,0-.174a.415.415,0,0,1,.1-.182.4.4,0,0,1,.216-.155.261.261,0,0,1,.277.177.42.42,0,0,1-.045.346.7.7,0,0,0-.08.148c-.013.038-.018.08-.029.119a.8.8,0,0,1-.316.372,3.869,3.869,0,0,0-.545.546.6.6,0,0,0-.164.334,1,1,0,0,1,.005.224c-.052.2-.353.2-.465.374-.043.071-.049.159-.091.231a.382.382,0,0,1-.474.1c-.161-.068-.292-.2-.448-.277a.927.927,0,0,0-1.049.151.478.478,0,0,1-.138.109.653.653,0,0,1-.119.024.462.462,0,0,0-.364.343c-.034.147-.007.334-.132.418a.354.354,0,0,1-.233.033.422.422,0,0,0-.233.018.14.14,0,0,0-.062.2,1.128,1.128,0,0,0,.889-.087,2.461,2.461,0,0,0,.315-.367,1.877,1.877,0,0,1,1.126-.5.288.288,0,0,1,.265.043.2.2,0,0,1,0,.244.593.593,0,0,1-.21.161c-.167.093-.331.192-.491.3a.147.147,0,0,0-.045.041.142.142,0,0,0,0,.071c.033.184.145.34.167.537a4.236,4.236,0,0,1,0,.655,1.163,1.163,0,0,0,.334,1.019.966.966,0,0,0,.759.11c.267-.053.564-.213.589-.486a.288.288,0,0,0-.113-.27.778.778,0,0,0-.224-.083.728.728,0,0,1-.451-.555,1.268,1.268,0,0,1,.107-.729,2.788,2.788,0,0,1,.481-.72,2.325,2.325,0,0,0,.25-.3c.094-.141.151-.3.235-.444a3.463,3.463,0,0,0,.545-.913.693.693,0,0,1,.068-.224c.156-.238.633-.071.74-.334a.545.545,0,0,0,.028-.156c.045-.3.316-.5.487-.75a5.2,5.2,0,0,1,.4-.657c.175-.19.512-.276.677-.08.193.228,0,.6.131.862.035.069.09.127.128.194a.86.86,0,0,1,.087.4c.011.218.023.436.033.654a1.162,1.162,0,0,1-.019.392c-.095.34-.451.524-.752.712a4.038,4.038,0,0,0-.781.629,1.592,1.592,0,0,0-.507.934.154.154,0,0,0,.026.119.164.164,0,0,0,.129.024,1.263,1.263,0,0,0,.962-.386,1.113,1.113,0,0,1,.148-.211c.241-.227.684.028.953-.164.087-.064.151-.17.257-.2.125-.028.241.074.369.09.2.026.383-.157.578-.118.087.016.162.074.247.072.129,0,.264-.13.368-.054s.008.254-.083.363a1.129,1.129,0,0,0-.243.528.619.619,0,0,0,.164.585.33.33,0,0,0,.518-.125,1.142,1.142,0,0,1,.032-.221.182.182,0,0,1,.248-.074.18.18,0,0,1,.05.25.492.492,0,0,1,.44.236.968.968,0,0,0,.4.029,3.079,3.079,0,0,1,.631.063.2.2,0,0,1,.1.038c.085.07.015.209.04.318a.08.08,0,0,0,.029.049.092.092,0,0,0,.056.009.8.8,0,0,0,.229-.056.092.092,0,0,0,.045-.031.107.107,0,0,0,.009-.055c0-.091,0-.186.007-.279a.162.162,0,0,1,.123-.187.445.445,0,0,1,.49.029,1.012,1.012,0,0,1,.133.226.506.506,0,0,0,.482.241.317.317,0,0,1,.206.006c.042.025.064.076.1.115a.517.517,0,0,0,.456.126.66.66,0,0,1,.472.079.485.485,0,0,1,.108.133,5.264,5.264,0,0,0,.371.679.275.275,0,0,1,.066.1c.027.109-.014.132.069.221s.166.173.247.26a.57.57,0,0,0,.122.106.452.452,0,0,0,.465-.077c.131-.1.237-.231.379-.318a1.24,1.24,0,0,0,.189-.117.2.2,0,0,0,.07-.2c-.028-.08-.12-.115-.2-.135a2.266,2.266,0,0,0-.4-.059.222.222,0,0,1-.157-.045.177.177,0,0,1-.038-.143.784.784,0,0,1,.475-.6.17.17,0,0,0,.088-.069c.011-.024.011-.052.02-.076.03-.07.123-.085.2-.088.151,0,.3-.01.453-.017a.159.159,0,0,1,.1.017.137.137,0,0,1,.045.067c.084.228-.085.465-.116.706a2.417,2.417,0,0,0,.01.36,2.892,2.892,0,0,1-.021.39.834.834,0,0,1-.085.343,1.374,1.374,0,0,0-.1.159.556.556,0,0,0,.034.388.327.327,0,0,0,.381.272l.206.01a.206.206,0,0,0,.106-.016c.072-.042.062-.147.089-.228a.307.307,0,0,1,.291-.186.918.918,0,0,1,.357.09,1.073,1.073,0,0,1,.376.221c.057.064.1.145.165.206.045.042.1.071.145.112s.077.113.13.157c.1.083.234.1.26.255a.254.254,0,0,1-.1.242c-.046.036-.106.054-.153.091a.471.471,0,0,0-.125.176.768.768,0,0,0-.1.272.265.265,0,0,0,.112.254.372.372,0,0,0,.16.035.576.576,0,0,0,.4-.093,1.563,1.563,0,0,0,.2-.305.114.114,0,0,1,.061-.046.128.128,0,0,1,.071.014.558.558,0,0,0,.205.037.2.2,0,0,0,.087-.018.157.157,0,0,0,.064-.1c.026-.092.019-.2.091-.267a.314.314,0,0,1,.227-.058,1.477,1.477,0,0,1,.55.076.121.121,0,0,1,.048.033.1.1,0,0,1,.017.067.581.581,0,0,1-.056.344.619.619,0,0,1-.289.186c-.109.047-.215.1-.321.154a.165.165,0,0,0-.106.17.884.884,0,0,0,.03.366.238.238,0,0,0,.166.167.313.313,0,0,0,.238-.1.827.827,0,0,1,.378-.167,1.125,1.125,0,0,0,.411-.11.458.458,0,0,0,.192-.242.626.626,0,0,1,.039-.113.277.277,0,0,1,.142-.091.881.881,0,0,1,.231-.043.263.263,0,0,0,.141-.032.21.21,0,0,0,.051-.08,1.44,1.44,0,0,0,.154-.343.676.676,0,0,0-.16-.4,1.548,1.548,0,0,1-.23-.3.884.884,0,0,1-.05-.231c-.011-.1-.022-.2-.032-.305a.161.161,0,0,1,.123-.212c.076-.029.149-.061.225-.09a.733.733,0,0,0,.314-.193c.056-.071.084-.159.138-.232.067-.09.172-.147.234-.244a.684.684,0,0,0,.087-.321.447.447,0,0,0-.053-.331.3.3,0,0,0-.125-.085.476.476,0,0,0-.5.1,1.371,1.371,0,0,0-.206.317,1.4,1.4,0,0,1-.632.561.561.561,0,0,0-.224.154.9.9,0,0,1-.221.2.642.642,0,0,1-.334.042c-.165-.013-.257.119-.415.167a1.191,1.191,0,0,1-.286.035c-.359.019-.717.035-1.075.053a.865.865,0,0,1-.488-.071.51.51,0,0,1-.234-.361.746.746,0,0,1,.077-.43.939.939,0,0,0,.138-.337c.007-.128-.061-.252-.045-.379a.543.543,0,0,1,.284-.343,3.963,3.963,0,0,1,.519-.279,2.7,2.7,0,0,0,.319-.151c.294-.178.487-.484.785-.655a9.491,9.491,0,0,0,.931-.431.923.923,0,0,1,.3-.185,1.029,1.029,0,0,1,.359.019.509.509,0,0,0,.57-.379.164.164,0,0,1,.021-.087.137.137,0,0,1,.092-.045,1.231,1.231,0,0,1,.388-.006,1.227,1.227,0,0,0,.308.029.243.243,0,0,0,.228-.176.257.257,0,0,0-.2-.263,1.866,1.866,0,0,0-.359-.036.353.353,0,0,1-.3-.169.3.3,0,0,1,.141-.352.87.87,0,0,1,.4-.1.74.74,0,0,1,.455.062c.092.057.221.147.279.057.045-.074-.048-.16-.135-.179s-.188-.02-.234-.093c-.071-.116.083-.248.218-.255a.521.521,0,0,1,.375.13,3.141,3.141,0,0,1,.251.311.351.351,0,0,0,.349.138c.074-.029.023-.144-.048-.186s-.154-.106-.12-.179c.17-.051.3.139.388.292s.249.332.4.249c.07-.137-.072-.287-.211-.358s-.309-.136-.342-.288a.777.777,0,0,1,.82.266c.092.115.182.279.328.263a.462.462,0,0,0,.209-.119.2.2,0,0,1,.224-.042c.093.064.047.212.087.318a.2.2,0,0,0,.343.029c.054-.093.063-.255.171-.247.073,0,.1.09.145.151a.272.272,0,0,0,.364.067c.043-.029.085-.072.137-.067.119.013.072.231.176.3.064.037.144-.01.212-.047a.8.8,0,0,1,.838.052.725.725,0,0,1,.192.335.9.9,0,0,0,.118.217.447.447,0,0,0,.2.171.191.191,0,0,0,.23-.085.942.942,0,0,1,.027-.094c.051-.1.21-.061.273.029a1.1,1.1,0,0,1,.1.313.2.2,0,0,0,.067.106c.071.053.17.009.247-.037a.287.287,0,0,1,.247-.067.2.2,0,0,1,.105.186c0,.067-.01.146.036.2a.189.189,0,0,0,.208.021.5.5,0,0,1,.209-.061c.179.013.247.267.42.315.132.034.266-.067.4-.041.02.1.04.205.061.307a.239.239,0,0,0,.058.137c.051.044.128.037.189.066.151.07.161.331.324.36.067.012.146-.023.2.012.042.022.061.071.1.1a.523.523,0,0,0,.124.069.936.936,0,0,1,.225.228.36.36,0,0,0,.266.159,2.69,2.69,0,0,0,.915.26.269.269,0,0,1,.139.038c.095.074.061.241.157.308a.249.249,0,0,0,.1.035,1.924,1.924,0,0,1,.7.289.482.482,0,0,1,.182.192.191.191,0,0,1-.064.238.419.419,0,0,1-.218.014.326.326,0,0,0-.236.076.2.2,0,0,0-.054.229c.064.135.258.125.4.1a1.384,1.384,0,0,0,.366-.118c.221-.12.408-.376.655-.331.173.031.3.211.475.217s.35-.146.488-.049a.38.38,0,0,1,.112.246c.02.09.064.194.157.209s.215-.085.3-.027c.036.024.051.073.088.1a.232.232,0,0,0,.1.024,2.485,2.485,0,0,1,1.507.619.148.148,0,0,1,.059.089.154.154,0,0,1-.022.075.641.641,0,0,1-.527.273c-.205.014-.413-.025-.619-.019-.112,0-.25.038-.279.147s.088.223.2.272a1.094,1.094,0,0,0,.53.076,2.222,2.222,0,0,0,.845-.183.572.572,0,0,1,.17-.074.218.218,0,0,1,.186.372c-.065.061-.158.08-.221.144a.14.14,0,0,0-.039.064c-.02.1.113.164.215.17s.235.017.268.116c.046.135-.152.285-.069.4a.32.32,0,0,0,.1.068.36.36,0,0,1,.186.269,3.39,3.39,0,0,1,.475.013.244.244,0,0,1,.127.041.217.217,0,0,1,.061.121.783.783,0,0,1,0,.345c-.011.057-.027.13.016.173.022.02.051.029.074.048.077.066.006.186-.041.276a4.014,4.014,0,0,1-.171.381.92.92,0,0,1-.565.3,1.162,1.162,0,0,1-.324.053,1.2,1.2,0,0,1-.443-.121,1.5,1.5,0,0,1-.6-.364,1.844,1.844,0,0,0-.253-.3c-.156-.115-.4-.134-.461-.317a.839.839,0,0,0-.038-.154c-.048-.089-.167-.1-.268-.1s-.2,0-.306,0a.127.127,0,0,0-.084.018.185.185,0,0,0-.028.055.625.625,0,0,0,.008.562,2.751,2.751,0,0,0,.256.218.869.869,0,0,1,.164.655,5.049,5.049,0,0,0,.186,1.2.55.55,0,0,0,.087.231,1.414,1.414,0,0,1,.125.142c.072.132-.029.3.007.445s.225.286.181.442c-.011.045-.041.084-.054.129a.233.233,0,0,0,.156.259.663.663,0,0,0,.327.018.247.247,0,0,0,.212.3.579.579,0,0,0,.39-.114c.115-.072.3-.138.358-.016a.36.36,0,0,1,0,.192c-.01.068.02.154.083.154.044,0,.073-.035.1-.064a.862.862,0,0,1,.7-.257c-.032.2-.064.4-.095.6a.187.187,0,0,1-.028.093c-.069.1-.226.035-.326-.041s-.264-.132-.322-.024c-.028-.076-.086-.171-.163-.145-.1.028-.049.176-.073.278a.221.221,0,0,1-.286.132.431.431,0,0,1-.235-.252.678.678,0,0,0-.109-.207.249.249,0,0,0-.4.125c-.021.12.039.284-.068.344a.2.2,0,0,1-.118.016.83.83,0,0,1-.514-.249c-.1-.108-.173-.243-.279-.348a.389.389,0,0,0-.4-.121c-.164.07-.257.307-.435.283a.518.518,0,0,1-.211-.125,2.742,2.742,0,0,0-.283-.15,1.488,1.488,0,0,1-.406-.4c-.122-.158-.247-.314-.356-.481a6.766,6.766,0,0,0-.51-.764.752.752,0,0,1-.239-.376c-.018-.157.065-.36-.067-.442a.257.257,0,0,0-.137-.033c-.3,0-.655.08-.873-.131a.169.169,0,0,1-.064-.128.188.188,0,0,1,.045-.094,1.055,1.055,0,0,1,.3-.192.355.355,0,0,0,.215-.271.794.794,0,0,0-.544.037c-.207.094-.412.281-.627.215-.2-.063-.27-.3-.286-.5a.552.552,0,0,1,.058-.346.451.451,0,0,1,.4-.186,1.586,1.586,0,0,1,.449.112.48.48,0,0,0,.216.035.162.162,0,0,0,.143-.147c0-.113-.143-.158-.256-.172-.154-.02-.311-.038-.467-.057a.257.257,0,0,1-.185-.076.267.267,0,0,1-.038-.163,3.947,3.947,0,0,0-.146-.992c-.024-.084-.085-.113-.168-.147a.971.971,0,0,1-.243-.1c-.138-.108-.133-.331-.268-.443a.766.766,0,0,0-.19-.1.256.256,0,0,1-.148-.147c-.02-.081.025-.187-.038-.241s-.135-.016-.208-.019a.551.551,0,0,1-.262-.136.828.828,0,0,0-.38-.14.732.732,0,0,0-.511-.183c-.193-.011-.389.016-.581.01a.253.253,0,0,1-.192-.068c-.048-.06-.038-.147-.072-.218-.047-.115-.189-.154-.288-.231-.128-.1-.182-.273-.3-.391-.146-.148-.384-.2-.491-.375-.074-.119-.074-.272-.139-.4a.787.787,0,0,0-.307-.265c-.115-.072-.234-.142-.35-.213a1.057,1.057,0,0,0-.4-.169.757.757,0,0,0-.372.067,1.11,1.11,0,0,0-.689.748.477.477,0,0,0,.057.385.636.636,0,0,0,.315.2.92.92,0,0,1,.5.337,1.039,1.039,0,0,0,.107.2.488.488,0,0,0,.132.1,11.678,11.678,0,0,0,1.209.657,1.435,1.435,0,0,1,.541.334.751.751,0,0,0,.131.151.624.624,0,0,0,.357.074c.122.009.266.049.308.165.027.074.005.159.032.233a.691.691,0,0,0,.122.17c.083.119-.028.3-.018.446a3.01,3.01,0,0,1,.043.524.189.189,0,0,0,0,.06c.01.033.042.049.074.065a.6.6,0,0,1,.276.212c.048.083.05.189.1.269a.892.892,0,0,1,.072.1.2.2,0,0,1-.024.2.319.319,0,0,1-.177.109.635.635,0,0,0-.233.071c-.159.112-.092.4-.251.514-.055.038-.131.051-.17.105-.026.035-.029.08-.053.115-.054.079-.175.065-.271.046a2.347,2.347,0,0,0-.864-.006.263.263,0,0,1-.2-.016c-.058-.042-.067-.125-.118-.18a.228.228,0,0,0-.183-.054c-.066,0-.13.023-.2.026a1.264,1.264,0,0,1-.337-.061.416.416,0,0,0-.33.039c-.1.074-.235.024-.334.1-.048.037-.076.1-.131.12-.084.035-.17-.029-.251-.067a.441.441,0,0,0-.552.169c-.032.051-.053.109-.086.158-.138.2-.482.224-.54.462a.1.1,0,0,0,.007.083.108.108,0,0,0,.054.036c.369.157.8.053,1.183.173a1.513,1.513,0,0,0,.578.158c.179-.016.333-.138.512-.158a1.47,1.47,0,0,0,.2-.011.712.712,0,0,0,.167-.075,2.12,2.12,0,0,1,.929-.171,1.7,1.7,0,0,1,.931.18.2.2,0,0,1,.066.061.214.214,0,0,1,.021.1c.007.182.016.367.024.551a.276.276,0,0,1-.005.089c-.028.089-.122.114-.193.161-.109.072-.105.147-.107.274a.272.272,0,0,0,.047.186.615.615,0,0,0,.148.093.591.591,0,0,1,.15.343.838.838,0,0,0,.013.165c.037.128.192.211.189.346.168.026.2.244.358.3a.364.364,0,0,0,.358-.125.794.794,0,0,0,.271-.661.194.194,0,0,1,0-.128c.028-.051.1-.061.156-.067a1.538,1.538,0,0,1,.529.026.516.516,0,0,1,.375.347c.049.192-.048.425.08.576a.5.5,0,0,0,.163.109c.06.031.123.06.185.088a.268.268,0,0,1,.083.057.2.2,0,0,1,.032.109,2.4,2.4,0,0,0,.026.408,1.465,1.465,0,0,0,.144.292,1.192,1.192,0,0,1,.135.423.286.286,0,0,0,.18.271,1.047,1.047,0,0,0,.379.124.18.18,0,0,0,.093,0,.316.316,0,0,0,.064-.056.439.439,0,0,1,.517-.038.677.677,0,0,1,.292.458.262.262,0,0,0,.054.15.22.22,0,0,0,.137.038,2.183,2.183,0,0,0,.4-.021.3.3,0,0,0,.114-.032.309.309,0,0,0,.082-.09,1.029,1.029,0,0,0,.143-.469c0-.1,0-.212.077-.276a.279.279,0,0,1,.146-.053,2.663,2.663,0,0,1,.43-.037c.11,0,.24.017.292.115.027.051.024.113.048.166a.3.3,0,0,0,.324.126,1.564,1.564,0,0,1,.367-.061c.21.011.406.189.606.129.107-.031.213-.128.315-.081a.39.39,0,0,1,.113.121.385.385,0,0,0,.346.148.336.336,0,0,0,.276-.247c.014-.077,0-.161.014-.238a.332.332,0,0,1,.224-.249c.207-.059.289-.309.5-.327.234-.02.467.122.691.061.073-.018.137-.057.209-.073a.19.19,0,0,1,.2.048.14.14,0,0,0,.16-.08.137.137,0,0,0-.057-.167c-.082-.048-.2,0-.268-.071s-.026-.183.051-.234a.925.925,0,0,1,.263-.083c.088-.026.18-.087.189-.176.01-.109-.1-.209-.071-.314.006-.032.03-.06.038-.093a.263.263,0,0,0-.006-.1.833.833,0,0,0-.292-.555.369.369,0,0,1-.09-.064c-.074-.082-.023-.22-.071-.321s-.16-.132-.262-.158c-.326-.077-.65-.157-.974-.235-.061-.014-.13-.038-.146-.1s.059-.132.133-.148a.53.53,0,0,0,.215-.058c.111-.084.064-.265-.029-.368a2.132,2.132,0,0,0-.423-.3.592.592,0,0,1-.3-.4.191.191,0,0,1,.019-.112.275.275,0,0,1,.077-.067c.16-.1.392-.161.523-.022.032.033.055.077.086.11a.586.586,0,0,0,.366.088.856.856,0,0,1,.456.19.591.591,0,0,0,.144.1.733.733,0,0,0,.18.029.478.478,0,0,1,.334.223c.129.219.071.52.228.722.091.115.24.177.324.295a.683.683,0,0,1-.019.646.346.346,0,0,0-.037.157.354.354,0,0,0,.1.177,1.475,1.475,0,0,1,.315.584c.055.2.1.443.292.507a.246.246,0,0,1,.109.048.226.226,0,0,1,.044.122.272.272,0,0,0,.219.212.208.208,0,0,0,.228-.177.917.917,0,0,1,0-.108.2.2,0,0,1,.131-.144.324.324,0,0,1,.411.261c.016.107.008.095.112.068a1.021,1.021,0,0,1,.35.042.1.1,0,0,0,.07-.01.1.1,0,0,0,.026-.083c0-.061,0-.122,0-.181a.308.308,0,0,1,.011-.082.2.2,0,0,1,.181-.09,1.705,1.705,0,0,1,.714.1.418.418,0,0,1,.269.352c0,.146-.089.316.012.422a.281.281,0,0,0,.156.07c.093.023.206.037.266-.036.1-.127-.073-.367.061-.452a.161.161,0,0,1,.125-.013c.219.047.324.3.372.513a1,1,0,0,0,.253.6c.17.141.453.154.544.354a.316.316,0,0,0,.04.082.171.171,0,0,0,.175.022c.162-.056.287-.194.451-.254a1,1,0,0,1,.346-.036c.209,0,.416,0,.623,0a.349.349,0,0,1,.295.1c.072.106.016.266.1.36a.317.317,0,0,0,.109.068c.121.051.241.1.363.152a.764.764,0,0,0,.6.081.376.376,0,0,1,.446.117c.063.086.064.208.141.282a.343.343,0,0,0,.157.07,1.712,1.712,0,0,0,.326.045.521.521,0,0,0,.406-.128.445.445,0,0,0,.093-.275,2.216,2.216,0,0,0-.032-.293.083.083,0,0,1,0-.049.078.078,0,0,1,.052-.026c.115-.026.253-.044.33.044a.312.312,0,0,1,.055.121,2.036,2.036,0,0,1,.066.632.724.724,0,0,0,0,.174.178.178,0,0,0,.1.134.2.2,0,0,0,.2-.068c.053-.055.09-.122.144-.174.081-.076.2-.121.234-.227.03-.08.012-.2.092-.227.011-.14.119-.182.253-.216a3.345,3.345,0,0,1,.836-.07h.5a.288.288,0,0,1,.148.025c.084.048.1.161.109.257a1.149,1.149,0,0,1-.019.416c-.054.174-.2.335-.167.518a.143.143,0,0,1,0,.064c-.008.036-.044.056-.077.072a2.514,2.514,0,0,0-.632.422.194.194,0,0,0-.058.08.721.721,0,0,0,0,.1c-.013.129-.218.184-.206.312.006.079.1.123.175.141s.167.035.209.105c.054.09-.012.225-.008.326,0,.14.013.277.019.415a.322.322,0,0,1-.008.117c-.024.069-.09.112-.142.166a.378.378,0,0,0-.1.187.428.428,0,0,0,.206.4,2.4,2.4,0,0,0,.43.2.624.624,0,0,1,.346.308.806.806,0,0,1,.037.3,1.851,1.851,0,0,0,.165.884,5.01,5.01,0,0,0,.687.761.438.438,0,0,0,.185.161.393.393,0,0,0,.245-.027c.148-.05.3-.1.443-.146.035-.012.074-.028.079-.064.047-.366.616-.216.923-.414a1.891,1.891,0,0,0,.289-.254A9.756,9.756,0,0,1,618.3,836.1a1.456,1.456,0,0,1,.494-.208.947.947,0,0,1,.9.462,2.021,2.021,0,0,1,.267,1.032c.013.392.011.856.333,1.077.289.2.729.107.972.359a1.111,1.111,0,0,1,.2.422,2.751,2.751,0,0,0,1,1.328,1.2,1.2,0,0,1,.3.244.319.319,0,0,1,.042.359c-.073.111-.233.15-.282.276-.063.159.1.308.227.423a1.6,1.6,0,0,1,.514,1.184.236.236,0,0,1-.029.132c-.049.082-.163.087-.26.083a1.259,1.259,0,0,0-.663.117,1.353,1.353,0,0,0-.483,1.1c-.019.179.1.572.042.706a.555.555,0,0,1-.892.133.508.508,0,0,0-.668-.178c-.142.106-.231.29-.4.336s-.382-.078-.55.009c-.081.042-.137.131-.224.16-.135.045-.266-.07-.4-.118-.228-.077-.485.048-.716-.017-.369-.1-.488-.622-.851-.744-.161-.055-.343-.02-.5-.077a.813.813,0,0,1-.43-.669,1.565,1.565,0,0,0-.261-.782c-.361-.408-1.128-.248-1.444-.693-.061-.087-.1-.19-.165-.269-.212-.248-.6-.186-.919-.209a1.534,1.534,0,0,1-1.244-.845.789.789,0,0,0-.18-.28.874.874,0,0,0-.25-.111,3.321,3.321,0,0,1-.8-.649c-.267-.218-.7-.34-.931-.09a1.254,1.254,0,0,0-.161.247,1.273,1.273,0,0,1-1.381.568,2.273,2.273,0,0,0-.454-.113c-.241-.006-.43.151-.657.18a.22.22,0,0,1-.2-.07,1.092,1.092,0,0,1-.074-.169.478.478,0,0,0-.272-.188l-.308-.113a.548.548,0,0,0-.33-.051.5.5,0,0,0-.287.322.653.653,0,0,0-.062.212c-.005.049,0,.1-.008.153a.909.909,0,0,1-.082.208.778.778,0,0,0-.055.411.953.953,0,0,1,.034.392,2.385,2.385,0,0,0-.079.383,2.062,2.062,0,0,0,.026.284,2.4,2.4,0,0,1-.01.387,1.644,1.644,0,0,1-.112.578c-.119.268-.373.464-.476.74-.04.1-.056.21-.1.308a2.008,2.008,0,0,1-.2.263c-.1.129-.118.289-.214.424a1.048,1.048,0,0,1-.359.313.574.574,0,0,0-.2.131c-.086.111-.053.284-.132.4-.032.048-.078.08-.114.124-.107.129-.111.338-.25.434-.043.03-.1.044-.14.074a.474.474,0,0,0-.134.314.357.357,0,0,1-.17.289c-.209.087-.251.322-.276.546a1.587,1.587,0,0,0,.093.668.819.819,0,0,1,.052.206,1,1,0,0,0,.012.294c.04.1.148.157.171.257.015.072-.016.151.014.218a.243.243,0,0,0,.111.1c.149.093.3.184.451.276a.951.951,0,0,1,.374-.26,1.556,1.556,0,0,1,.536.007c.311.018.619-.085.934-.09a1.116,1.116,0,0,1,.863-.327c.125-.007.3.014.315.14a.258.258,0,0,1-.043.153c-.047.087-.092.17-.136.257a.3.3,0,0,1-.057.082.287.287,0,0,1-.113.05c-.151.042-.3.087-.457.13-.1.264-.21.531-.318.795s-.261.583-.547.638a.279.279,0,0,1-.478.157c-.163-.17-.057-.446-.06-.682,0-.424-.374-.739-.715-.994-.048-.037-.116-.074-.165-.039a.209.209,0,0,0-.05.069.377.377,0,0,1-.464.113,1.113,1.113,0,0,1-.388-.339.942.942,0,0,1-.154-.233.727.727,0,0,0-.073-.19c-.116-.165-.39-.091-.553-.212s-.131-.407-.028-.6a1,1,0,0,0,.2-.613.773.773,0,0,0-.193-.325.616.616,0,0,0-.342-.254.5.5,0,0,0-.379.133,3.65,3.65,0,0,1-.314.266c-.112.071-.256.122-.294.249-.013.04-.011.086-.027.124-.051.119-.244.114-.326.011a.433.433,0,0,1-.043-.373,1.2,1.2,0,0,1,.711-.821.853.853,0,0,0,.235-.11.264.264,0,0,0,.1-.2c0-.084-.043-.161.023-.237a.377.377,0,0,1,.146-.079,1.531,1.531,0,0,0,.56-.475.28.28,0,0,0,.066-.1.1.1,0,0,0-.028-.11c-.066-.051-.193.024-.233-.048a.105.105,0,0,1-.01-.063.434.434,0,0,1,.2-.322c.2-.125.485-.085.636-.262.063-.075.09-.173.144-.25.082-.114.223-.179.279-.3a.849.849,0,0,0,.037-.27,1.734,1.734,0,0,1,.147-.442.386.386,0,0,0,.023-.2.662.662,0,0,0-.075-.162,1.009,1.009,0,0,1-.084-.327.782.782,0,0,1,0-.3.693.693,0,0,1,.087-.171.992.992,0,0,1,.257-.268,2,2,0,0,0,.227-.148.251.251,0,0,0,.1-.238.433.433,0,0,0,.119-.228.332.332,0,0,0-.021-.252c-.033-.056-.091-.092-.13-.144-.1-.146-.026-.385-.162-.5a.335.335,0,0,1-.079-.066.193.193,0,0,1-.025-.07c-.017-.089-.034-.177-.052-.264a.57.57,0,0,0-.526-.481c-.063,0-.125.019-.19.022-.154.009-.3-.059-.459-.048s-.32.155-.261.3a.4.4,0,0,0,.066.093,1.211,1.211,0,0,1,.116.926.128.128,0,0,1-.034.085c-.042.035-.106.006-.15-.029a1.567,1.567,0,0,1-.353-.369c-.046-.071-.1-.152-.183-.164-.109-.016-.194.1-.212.209-.038.234.11.474.055.707-.025.107-.093.218-.055.321a.46.46,0,0,0,.08.116.6.6,0,0,1,.048.634,1.3,1.3,0,0,1-.2.244,4.673,4.673,0,0,0-.733,1.063,1.745,1.745,0,0,1-.191.328,3.8,3.8,0,0,0-.282.3c-.111.166-.127.4-.284.518-.119.089-.286.089-.406.176-.143.106-.182.3-.259.456-.063.123-.154.231-.208.357a.371.371,0,0,0,.024.391.8.8,0,0,0,.014.417,2.014,2.014,0,0,0,.181.321,1.47,1.47,0,0,1,.06,1.359,1.069,1.069,0,0,0-.105.253c-.036.147.014.311-.039.452s-.193.231-.225.373c-.016.076,0,.167-.05.229a.37.37,0,0,1-.128.083.448.448,0,0,0-.232.314c-.024.136-.068.183,0,.3a.649.649,0,0,1,.1.18.229.229,0,0,1-.181.242.728.728,0,0,1-.329-.018.583.583,0,0,0-.329,0c-.159.061-.244.24-.4.3a1.072,1.072,0,0,1-.363.029c-.121.007-.261.067-.283.187s.089.253.023.356a.253.253,0,0,1-.209.078l-.3.015a.4.4,0,0,0-.209.049.147.147,0,0,0-.056.189.249.249,0,0,1-.06-.322.9.9,0,0,1,.246-.262.908.908,0,0,0,.363-.745,1.329,1.329,0,0,0-.675.767.463.463,0,0,1,.029-.619c.148-.177.362-.285.526-.446.045-.045.09-.106.071-.166s-.055-.072-.084-.11a.36.36,0,0,1,.031-.391.753.753,0,0,0,.161-.379c0-.131-.1-.25-.09-.381,0-.073.033-.142.033-.211,0-.176-.183-.291-.347-.352-.145-.054-.334-.081-.427.042-.082.1-.055.283-.17.351a.214.214,0,0,1-.229-.045,1.248,1.248,0,0,1-.151-.2.812.812,0,0,0-.967-.244.274.274,0,0,1-.116.039.337.337,0,0,1-.135-.061.389.389,0,0,0-.427.029c-.1.076-.172.208-.3.215-.081,0-.154-.049-.236-.067-.354-.083-.242.254-.332.4a.4.4,0,0,1-.626.019c-.121-.148-.182-.4-.375-.4a.467.467,0,0,0-.208.088.865.865,0,0,1-.825,0c-.215-.121-.407-.342-.652-.308a2.067,2.067,0,0,0,.561-.111.265.265,0,0,0,.133-.081c.058-.08.02-.189.013-.286a1.134,1.134,0,0,1,.269-.632c.122-.2.191-.489.017-.644-.1-.09-.247-.109-.328-.214a.541.541,0,0,1-.032-.4c.019-.139,0-.312-.13-.364a1.3,1.3,0,0,0-.229-.024c-.151-.027-.241-.175-.315-.31a3.138,3.138,0,0,1-.394-.969.525.525,0,0,0-.049-.183c-.173-.311-.751.041-.979-.231-.141-.167-.027-.45-.154-.626-.1-.125.09-.361-.019-.474a.289.289,0,0,0-.13-.063,3.956,3.956,0,0,1-1.144-.75,1.133,1.133,0,0,0-.408-.224.422.422,0,0,0-.427.118,1.152,1.152,0,0,0-.115.214,1.373,1.373,0,0,1-.6.506.775.775,0,0,1-.333.12,1.373,1.373,0,0,1-.344-.063.861.861,0,0,0-.613.115,1.6,1.6,0,0,1-.978-.311.969.969,0,0,0-.214-.14c-.155-.056-.329,0-.489-.036a1.381,1.381,0,0,1-.259-.108c-.369-.162-.839-.1-1.136-.37-.1-.095-.23-.237-.355-.171-.221.117-.437-.027-.682-.076a1.238,1.238,0,0,0-.741.02.469.469,0,0,0-.265.613c.474.019.947.041,1.422.061a.554.554,0,0,1,.291.067.189.189,0,0,1,.063.261c-.2.06-.455.23-.358.417.045.086.146.12.226.173a.5.5,0,0,1,.209.535c.4.017.911.132.961.526.042.334-.293.579-.585.742-.654.373-1.31.74-1.965,1.109a.86.86,0,0,0-.347.289,1.236,1.236,0,0,0-.09.247,3.9,3.9,0,0,1-.729,1.073,1.188,1.188,0,0,0-.254,1.209,1.1,1.1,0,0,0,.475.437,2.572,2.572,0,0,0,1.45.3.689.689,0,0,1,.526.075c.058.05.1.119.159.157a.389.389,0,0,0,.237.032,3.707,3.707,0,0,0,1.764-.64,1.614,1.614,0,0,1,.652-.342.99.99,0,0,0,.333-.057.678.678,0,0,0,.2-.225,1.314,1.314,0,0,1,1.519-.424.511.511,0,0,1,.674-.115,6.175,6.175,0,0,1,.594.469,2.589,2.589,0,0,0,1.567.288,4.546,4.546,0,0,0,.917-.091,2.8,2.8,0,0,1,.552-.117.528.528,0,0,1,.487.226.3.3,0,0,1-.188.437,3.376,3.376,0,0,0,1.743.107,3.484,3.484,0,0,1,1.009-.155c.342.034.7.291.685.633a.692.692,0,0,0-.475.3.386.386,0,0,1,.331.171.765.765,0,0,0-.42.073.263.263,0,0,0-.1.368c.07.085.2.1.272.181.158.19-.131.485-.028.709a.346.346,0,0,0,.391.143c.147-.03.282-.107.43-.129.088.092,0,.25-.115.3a2.512,2.512,0,0,0-.357.137c-.241.178-.244.675-.542.659-.109-.007-.193.114-.2.221a.612.612,0,0,0,.085.311.691.691,0,0,1,.093.311.343.343,0,0,1-.417.3c-.063-.018-.119-.052-.183-.072a.176.176,0,0,0-.183.032.33.33,0,0,0-.047.093.865.865,0,0,1-.3.327c-.075.055-.149.113-.226.169a.287.287,0,0,1-.1.056c-.032.009-.069.009-.1.019-.131.039-.163.208-.225.334a.674.674,0,0,1-.485.341,1.56,1.56,0,0,1-.611-.027.173.173,0,0,1-.094-.041.15.15,0,0,1-.031-.087,1.774,1.774,0,0,0,0-.358.379.379,0,0,0-.271-.237,1.114,1.114,0,0,0-.374-.016.255.255,0,0,0-.17.051c-.019.021-.034.048-.061.058a.14.14,0,0,1-.056,0,.329.329,0,0,0-.274.181c-.1.153-.145.33-.234.487a.64.64,0,0,1-.186.215.331.331,0,0,1-.235.06,2.931,2.931,0,0,1-.675.058.351.351,0,0,0-.1-.013.5.5,0,0,0-.136.065.417.417,0,0,1-.333-.034,1.026,1.026,0,0,0-.325-.116.936.936,0,0,1-.181-.008.342.342,0,0,1-.13-.073,1.042,1.042,0,0,1-.173-.19.634.634,0,0,0-.126-.144c-.033-.071-.055-.126-.131-.106s-.119.073-.186.078-.131-.053-.2-.065a.3.3,0,0,0-.268.156.435.435,0,0,1-.164.172.329.329,0,0,1-.315-.087.755.755,0,0,0-.285-.183.321.321,0,0,0-.337.167.372.372,0,0,0,.138.486c.063.037.057.062.116.106a.583.583,0,0,1,.177.648c-.045.121-.132.219-.17.342a1.006,1.006,0,0,0,.012.488c.043.212.084.422.126.633a.917.917,0,0,0,.036.134.853.853,0,0,0,.063.132,9.9,9.9,0,0,0,.735.9,2.294,2.294,0,0,1,.472,1.048,1.85,1.85,0,0,0,.157.792,1.915,1.915,0,0,0,.27.283,1.453,1.453,0,0,1,.38.693.516.516,0,0,0,.145.324c.107.072.255.039.375.09a1.97,1.97,0,0,1,.237.172.717.717,0,0,0,.381.066,5.748,5.748,0,0,0,.848-.087,1.394,1.394,0,0,0,.5-.171c.257-.161.411-.462.683-.6a1.294,1.294,0,0,1,.726-.06,5.951,5.951,0,0,0,.885.065.869.869,0,0,1,.34.021,1.259,1.259,0,0,1,.3.208.882.882,0,0,0,1.007-.011,1.38,1.38,0,0,0,1.177-.363,1.4,1.4,0,0,1,.242-.2,2.32,2.32,0,0,1,.583-.094c.343-.08.583-.421.931-.493s.745.133,1.026-.078a1.325,1.325,0,0,0,.28-.4,1.1,1.1,0,0,1,.644-.461.99.99,0,0,0,.653-.333,1.136,1.136,0,0,1,.693-.215.664.664,0,0,1,.451-1.034,1.749,1.749,0,0,1,1.6-.072,1.565,1.565,0,0,0,.287.194c.085.029.178.029.265.052.358.09.513.515.529.882a2.778,2.778,0,0,0,.113,1.092,1.13,1.13,0,0,0,1.431.458.583.583,0,0,0,.312-.25c.093-.179.031-.41.131-.587s.346-.241.549-.318.421-.256.361-.465c.088-.118.239-.075.387-.09a1.935,1.935,0,0,0,.867-.394,1.292,1.292,0,0,0,.238-.192c.238-.278.172-.7.321-1.035.17-.37.6-.6.683-1a.535.535,0,0,1,.052-.172.349.349,0,0,1,.153-.113,3.372,3.372,0,0,1,.83-.259c.3-.051.648-.082.825-.332.061-.087.093-.189.148-.283a.665.665,0,0,1,.244-.235,2.677,2.677,0,0,0,.263-.126.256.256,0,0,0,.135-.242c-.019-.128-.064-.239.016-.344a.341.341,0,0,1,.171-.106.731.731,0,0,0,.292-.135,1.367,1.367,0,0,0,.176-.332c.05-.087.125-.158.181-.245a.3.3,0,0,0,.048-.285.314.314,0,0,0-.211-.154,1.986,1.986,0,0,1-.258-.072c-.232-.108-.326-.409-.562-.506a1.528,1.528,0,0,0-.269-.054.822.822,0,0,1-.34-.156.431.431,0,0,1-.174-.271.634.634,0,0,1,.161-.387,1.049,1.049,0,0,0,.231-.817.207.207,0,0,0-.035-.075c-.055-.062-.155-.037-.234-.036a.344.344,0,0,1-.277-.136.528.528,0,0,0-.115-.145.682.682,0,0,0-.1-.042.236.236,0,0,1-.042-.407.256.256,0,0,1,.276-.052c.061.028.124.1.182.062a.12.12,0,0,0,.04-.059.622.622,0,0,0,.042-.22.9.9,0,0,1,.007-.246.516.516,0,0,1,.113-.169.333.333,0,0,1,.189-.131.41.41,0,0,1,.158.029.6.6,0,0,0,.279,0,1.649,1.649,0,0,1,.758-.031.739.739,0,0,0,.282.025c.173-.034.282-.215.443-.295.244-.126.571,0,.793-.163.122-.088.182-.242.3-.325.29-.2.68.1,1.03.048.328-.044.533-.375.823-.54a1.713,1.713,0,0,1,.409-.144,15.83,15.83,0,0,1,3.4-.469,1.139,1.139,0,0,1,.5.067c.095.045.174.116.266.163.384.2.88-.024,1.271.156.373-.083.559-.507.891-.7.276-.159.673-.175.81-.46s-.077-.758.2-.934a.436.436,0,0,1,.521.133,4.472,4.472,0,0,0,.379.441c.157.124.367.174.5.321a1.78,1.78,0,0,1,.2.354,1.011,1.011,0,0,0,1.031.489c.529,0,1.025.03,1.553.033a.292.292,0,0,1,.115.016.288.288,0,0,1,.122.171,4.315,4.315,0,0,0,.447.833,1.95,1.95,0,0,0,.314.366,2.828,2.828,0,0,0,.533.325c.2.106.395.22.589.34a.462.462,0,0,1,.149.131c.083.143-.013.321-.085.471a.718.718,0,0,0,0,.719c.151.207.444.255.614.446a1.744,1.744,0,0,0,.238.291.631.631,0,0,0,.292.086,7.885,7.885,0,0,0,2.051-.075.23.23,0,0,1,.132.007.19.19,0,0,1,.08.095,1.092,1.092,0,0,1,.124.349.509.509,0,0,0,.046.17c.086.139.286.121.448.129a1.858,1.858,0,0,1,1.026.542.859.859,0,0,1,.208.222,4.4,4.4,0,0,1,.138.507c.109.267.4.4.6.608.114.127.193.284.317.4.341.33.938.286,1.255.637a1.785,1.785,0,0,1,.305.9c.063.312.218.662.53.736a1.237,1.237,0,0,1,.25.051.444.444,0,0,1,.148.592,3.915,3.915,0,0,1-.408.544c-.1.144,0,.272.065.439s.156.318.225.483a1.5,1.5,0,0,1,.106.646.776.776,0,0,0,.01.267.721.721,0,0,0,.173.248,2.465,2.465,0,0,1,.417,1.307c.089.449-.128.971.13,1.383.09.146.233.252.334.39a3.015,3.015,0,0,1,.316.929,1.919,1.919,0,0,0,.388.7c.228.263.539.49.6.83a4.163,4.163,0,0,1-.039.719,1,1,0,0,0,.144.492,4.951,4.951,0,0,1,.292.412,1.121,1.121,0,0,1,.09.564,2.752,2.752,0,0,1-.332,1.128.748.748,0,0,1-.491.445,1.214,1.214,0,0,0-.2.027c-.061.025-.115.093-.091.153s.1.079.159.087c.13.016.26.032.392.043a.23.23,0,0,1-.049.249.619.619,0,0,0-.149.226.5.5,0,0,0,.007.185.815.815,0,0,1-.1.469.632.632,0,0,0-.247.536,1.366,1.366,0,0,0,.07.425,1.089,1.089,0,0,1-.137,1.046c-.088.09-.2.155-.258.263a.586.586,0,0,0-.042.27c0,.263,0,.527.005.789a1.271,1.271,0,0,1-.072.531c-.024.052-.058.1-.079.16a.8.8,0,0,0-.033.333,2.749,2.749,0,0,1-.084,1.145,7.9,7.9,0,0,1-.734,1.01c-.408.665-.309,1.591-.845,2.158a1.2,1.2,0,0,0-.4.721,1.192,1.192,0,0,1-.034.491.845.845,0,0,1-.185.221,4.21,4.21,0,0,0-.833,1.311c-.044.1-.1.2-.2.23s-.2-.023-.277.034c-.048.039-.057.107-.086.159a.471.471,0,0,1-.3.178,1.659,1.659,0,0,1-.47.091c-.133,0-.265-.025-.4-.019a1.609,1.609,0,0,0-.876.508.487.487,0,0,1-.186.119c-.206.062-.414-.119-.63-.1-.233.02-.374.256-.507.449a4.792,4.792,0,0,1-1.191,1.085.923.923,0,0,1-.8.252c-.022-.007-.042,0-.063-.01a.559.559,0,0,0-.066-.017c-.025,0-.051,0-.078,0-.078-.017-.156-.038-.235-.06-.218-.056-.437-.108-.656-.156s-.443-.082-.668-.109a5.508,5.508,0,0,0-.658-.044,4.4,4.4,0,0,0-.645.044,2.965,2.965,0,0,0-.609.157,2.728,2.728,0,0,0-.571.295,2.556,2.556,0,0,1-.509.322,6.065,6.065,0,0,1-.7.131,1.213,1.213,0,0,0-.829.741,4.192,4.192,0,0,0-.145.693,2.971,2.971,0,0,1-2.343,2.324,3.217,3.217,0,0,0-.638.137,2.223,2.223,0,0,1-.424.178c-.138.026-.279,0-.417.029-.427.09-.569.619-.626,1.053q-.169,1.256-.335,2.513a3.364,3.364,0,0,0-.028,1.1,5.8,5.8,0,0,0,.581,1.306,4.11,4.11,0,0,1,.383,1.941,1.9,1.9,0,0,1-.785,1.6c-.414.239-1.02.292-1.17.746-.117.356.138.809-.1,1.1-.112.136-.3.183-.438.287a1.277,1.277,0,0,0-.293.333,7.219,7.219,0,0,0-.959,1.719,2.261,2.261,0,0,1-.284.678c-.1.139-.246.244-.335.392-.3.5.122,1.193-.164,1.7a1.838,1.838,0,0,1-.363.4,4.991,4.991,0,0,0-1.117,2.23,1.714,1.714,0,0,0-.109.623,2.069,2.069,0,0,0,.437.892,4.9,4.9,0,0,1,.773,2.066l.212-.29a8.986,8.986,0,0,1,.107,1.593,5.4,5.4,0,0,1,.008.7,3.378,3.378,0,0,1-.057.485,4.82,4.82,0,0,1-1.178,2.009c-.334.4-.664.8-1,1.2a2.194,2.194,0,0,0-1.248,1.109,13.948,13.948,0,0,0-1.486,3.361,1.666,1.666,0,0,1-.409.823c-.192.167-.46.233-.637.417-.308.324-.234.886-.548,1.2s-.844.218-1.256.389a2.034,2.034,0,0,0-.659.516l-2.884,2.99a5.46,5.46,0,0,1-2.423,1.726c-.649.164-1.338.082-2,.217-1.052.215-2.074.974-3.1.656-.478-.145-.864-.511-1.341-.645a5.226,5.226,0,0,0-1.3-.057,7.012,7.012,0,0,1-3.925-1.914c-.4-.315-.843-.867-.524-1.27.169-.212.525-.474.313-.644a2.918,2.918,0,0,1-2.527-1.036,1.292,1.292,0,0,1-.329-.728c-.04-.87,1.251-1.565.87-2.35-.273-.568-1.1-.458-1.685-.7a4.452,4.452,0,0,1-1.163-1.016,10.468,10.468,0,0,0-2.381-1.346,2.859,2.859,0,0,1-1.7-2.012c-.064-.606.188-1.257-.076-1.809-.106-.221-.288-.4-.393-.62-.324-.674.138-1.454.638-2.007a3.081,3.081,0,0,0,1.1-1.887c0-.395-.172-.823.036-1.159.25-.4.889-.394,1.141-.793.564-.886-1.517-1.844-.971-2.743a1.894,1.894,0,0,1-1.31-.709,1.287,1.287,0,0,0-.675-1.2c-.4-.225-.862-.323-1.25-.564-.5-.307-.851-.817-1.332-1.159-.244-.174-.52-.3-.757-.489-.526-.412-.849-1.105-1.479-1.332-.228-.39-.422-.7-.652-1.087a1,1,0,0,0-.391-.436,1.643,1.643,0,0,0-.514-.079,2.577,2.577,0,0,1-1.11-.511,7.067,7.067,0,0,1-1.522-1.237c-.6-.708-.9-1.632-1.532-2.315-.386-.42-.877-.734-1.243-1.17a4.865,4.865,0,0,1-.882-2.08,20.133,20.133,0,0,1-.482-3.546.412.412,0,0,1,.04-.246.394.394,0,0,1,.268-.141c1.919-.4,3.751,1.133,5.713,1.113a3,3,0,0,1,1.263.1c.371.167.685.556,1.088.492a1.24,1.24,0,0,0,.53-.305,4.049,4.049,0,0,1,2.638-.851c.062,0,.074-.06.068-.12a.153.153,0,0,0-.117-.12c-.041-.01-.082-.01-.121-.023a.415.415,0,0,1-.2-.171l-.177-.233a.418.418,0,0,0-.106-.109c-.1-.058-.228-.025-.337-.059a.6.6,0,0,1-.308-.339.572.572,0,0,1-.074-.207.587.587,0,0,1,.173-.4,1.355,1.355,0,0,1,.33-.334c.141-.086.3-.12.452-.193a.448.448,0,0,0,.289-.365c.189-.172.229-.385.4-.578.149-.166.4-.206.564-.357s.22-.375.406-.474c.109-.055.24-.052.355-.1a1.1,1.1,0,0,0,.46-.481.676.676,0,0,1,.534-.371c.138.007.317.072.385-.046a.222.222,0,0,0,.026-.125c0-.157,0-.314,0-.469a.512.512,0,0,0,.629-.214.947.947,0,0,0,.083-.7,1.072,1.072,0,0,1-.042-.313,1.649,1.649,0,0,1,.176-.428,7.061,7.061,0,0,0,.1-.943,1.526,1.526,0,0,1,.3-.556,2.679,2.679,0,0,1,.656-.631,3.17,3.17,0,0,0,.842-.558,1.746,1.746,0,0,0,.2-1.317,2,2,0,0,0,.427-1.27,1.638,1.638,0,0,1,.063-.83c.088-.16.25-.277.316-.449a3.516,3.516,0,0,0,.061-.532,1.294,1.294,0,0,1,.531-.67.671.671,0,0,0,.187-.2c.08-.158.021-.35.046-.526a1.1,1.1,0,0,1,.482-.636.519.519,0,0,0,.234-.31c.022-.191-.162-.332-.242-.507a.838.838,0,0,1,.173-.788,2.009,2.009,0,0,0,.423-.719c.063-.291-.047-.61.077-.879a1.407,1.407,0,0,1,.242-.315,2.427,2.427,0,0,0,.6-1.495,3.553,3.553,0,0,1,1.046-1.88,4.635,4.635,0,0,0,.327-.414,1.574,1.574,0,0,0-.144-1.848,7.063,7.063,0,0,0-.334.664c-.27.645-.337,1.363-.63,2-.1.213-.254.435-.486.446a.516.516,0,0,1-.462-.365,2.693,2.693,0,0,1-.095-.62,2.375,2.375,0,0,0-.414-1.089c-.045-.063-.109-.13-.186-.114s-.111.132-.115.225a3.812,3.812,0,0,0,.064.818,1.607,1.607,0,0,1,.035.832,1.321,1.321,0,0,1-.271.4l-.541.616a1.451,1.451,0,0,0-.188.253,1.538,1.538,0,0,0-.111.325,6.313,6.313,0,0,1-1.206,2.355.467.467,0,0,0-.149.475,1.545,1.545,0,0,1-.058.854c-.269.58-1.077.694-1.449,1.211s-.2,1.232-.435,1.813a4.446,4.446,0,0,0-.264.6,1.856,1.856,0,0,0,.032.719,1.353,1.353,0,0,1-.023.718.51.51,0,0,1-.575.329,2.665,2.665,0,0,0-.966.776c-.1.161-.169.341-.261.5-.387.681-1.2,1.079-1.467,1.814-.114.31-.12.652-.252.954-.18.407-.571.7-.724,1.116a17.6,17.6,0,0,0-.367,3.063,2.183,2.183,0,0,1-1.891,2.015,1.624,1.624,0,0,1-.568.025c-.487-.089-.82-.567-1.291-.724a7.485,7.485,0,0,0-1.244-.087,1.516,1.516,0,0,1-.989-.623,1.438,1.438,0,0,0-.4-.5c-.313-.176-.734.028-1.055-.134-.3-.147-.434-.577-.765-.625-.1-.015-.195.007-.292-.008-.25-.041-.388-.312-.616-.425a1.238,1.238,0,0,0-.393-.086,8.138,8.138,0,0,1-1.567-.4c-.3-.1-.656-.275-.646-.588.007-.281.017-.5-.206-.677-.091-.072-.2-.115-.294-.186-.176-.131-.283-.353-.479-.454-.273-.143-.6-.009-.912-.027-.513-.033-.934-.492-1.451-.5a.615.615,0,0,1-.389-.058c-.156-.121-.095-.363-.134-.559a.773.773,0,0,0-.876-.485.259.259,0,0,1-.158-.016c-.086-.049-.075-.173-.064-.271a1.04,1.04,0,0,0-.187-.714,2.35,2.35,0,0,0-.935-.577c-.334-.159-.676-.427-.691-.8-.012-.339.26-.625.3-.959a1.158,1.158,0,0,0-.31-.849,1.426,1.426,0,0,0-.746-.523c-.2-.047-.42-.04-.562-.181a.706.706,0,0,1-.09-.632c.079-.065-.082-.26-.177-.3s-.209-.043-.279-.117a.361.361,0,0,1-.057-.29,2.529,2.529,0,0,1,.292-.91.258.258,0,0,1,.147-.148.525.525,0,0,1,.17.016c.355.029.453-.558.8-.641.079-.02.169-.01.248-.036.2-.072.254-.35.434-.469.248-.167.588.042.877-.026a2.177,2.177,0,0,0,.3-.129c.346-.132.825-.028,1.021-.344a.807.807,0,0,0,.079-.43c0-.5-.006-1-.006-1.5a.426.426,0,0,1,.065-.287.3.3,0,0,1,.394-.026.866.866,0,0,1,.26.341c.283.533.569,1.066.853,1.6a1.444,1.444,0,0,1,.156.382.579.579,0,0,0,.051.2.4.4,0,0,0,.172.137,2.536,2.536,0,0,0,.927.355c.242.023.486-.023.727,0,.437.05.814.329,1.244.415a.567.567,0,0,0,.208.007.769.769,0,0,0,.188-.081,1.882,1.882,0,0,1,1.005-.2.52.52,0,0,0-.248-.665.932.932,0,0,1-.27-.122.453.453,0,0,1-.035-.5.832.832,0,0,0,.109-.521c-.022-.064-.062-.131-.037-.191s.066-.079.11-.109a.551.551,0,0,0,.2-.573c.117-.142.368-.062.453.1a.794.794,0,0,1,.011.537,1.545,1.545,0,0,0,.037,1.205,4.246,4.246,0,0,0,.759-1.649,1.874,1.874,0,0,1,.162-.536,1.334,1.334,0,0,1,.632-.487,1.282,1.282,0,0,1,.428-1.193c.235-.2.564-.317.691-.6.052-.117.063-.252.124-.364.122-.237.427-.33.554-.564a1.439,1.439,0,0,1,.125-.254c.087-.106.237-.133.359-.2s.227-.221.142-.332c-.1-.134-.359-.044-.446-.185s.108-.286.17-.439a.377.377,0,0,0-.272-.47.683.683,0,0,0-.572.164,2,2,0,0,1-.185-.475c-.071-.157-.287-.282-.408-.159s-.026.432-.2.482c-.143.04-.237-.163-.385-.193s-.26.124-.307.266-.078.306-.206.384a2.617,2.617,0,0,1-.284.094.626.626,0,0,0-.256.326q-.2.445-.412.885a.655.655,0,0,1-.324.385c-.047.017-.1.021-.145.041-.159.068-.2.267-.24.433s-.149.36-.32.346c-.059-.006-.119-.036-.173-.018-.071.017-.1.092-.138.152a.537.537,0,0,1-.46.25.6.6,0,0,0-.26.011c-.1.045-.14.157-.216.233-.2.2-.554.073-.8.2-.2.106-.279.342-.442.5a1.3,1.3,0,0,1-1.036.2,2.044,2.044,0,0,1-1.432-.53.9.9,0,0,0-.186-.2.593.593,0,0,0-.328-.079,1.635,1.635,0,0,0-1.512.59c-.122.2-.168.433-.274.639-.206.4-.639.361-1.034.427-.5.083-1.008.148-1.515.191a1.5,1.5,0,0,1-.4-.005c-.12-.026-.233-.08-.352-.106a1.4,1.4,0,0,0-.35-.01c-.264.013-.527.028-.79.041a4.28,4.28,0,0,1-.465.007c-.434-.025-.807-.289-1.229-.307a2.01,2.01,0,0,1-.454-.02c-.118-.033-.218-.1-.335-.142-.438-.144-.906.241-1.358.148-.382-.079-.67-.485-1.059-.453a1.037,1.037,0,0,1-.236.021.568.568,0,0,1-.242-.13.963.963,0,0,0-.424-.195.443.443,0,0,0-.423.156c-.08.114-.1.282-.217.353-.055.031-.119.035-.176.068-.14.08-.136.3-.254.411-.137.131-.385.088-.506.232-.072.089-.078.222-.164.294-.12.1-.313.015-.442.1-.157.1-.107.355-.23.5-.16.181-.506.065-.664.248-.036.043-.058.1-.1.135a.328.328,0,0,1-.132.065,1.14,1.14,0,0,1-.84-.154c-.256-.141-.479-.334-.731-.484a.118.118,0,0,0-.111-.022.105.105,0,0,0-.047.059.629.629,0,0,0,.2.668,3.838,3.838,0,0,0,.621.4,2.457,2.457,0,0,1,.285.277c.1.085.328.157.275.332a.35.35,0,0,0-.048,0,1.279,1.279,0,0,1-.995.777,2.06,2.06,0,0,0-.443.112c-.151.07-.266.2-.413.276a.924.924,0,0,1-1.163-.547,3.047,3.047,0,0,1-.121-1.422.874.874,0,0,0-.091-.547.605.605,0,0,0-.877-.022,1.4,1.4,0,0,0-.364.907,3.393,3.393,0,0,1-.173.978c-.2.469-.559.869-.276,1.4.048.09.109.169.152.26a1.158,1.158,0,0,1,.017.816c-.078.267-.2.524-.249.8a2.886,2.886,0,0,1-.093.453,1.1,1.1,0,0,1-.466.529.571.571,0,0,0-.257.228.621.621,0,0,0-.025.223,1.328,1.328,0,0,1-.16.6,1.7,1.7,0,0,0-.217.418c-.021.086-.021.174-.033.26a1.9,1.9,0,0,1-.153.479,2.078,2.078,0,0,1-.329.591,2.042,2.042,0,0,1-.639.419c-.331.161-.431.522-.645.82a1.13,1.13,0,0,0-.2.371,1.845,1.845,0,0,0,.014.572,1.52,1.52,0,0,1-.5,1.217,4.414,4.414,0,0,0-.4.343,1.693,1.693,0,0,0-.256.442,6.881,6.881,0,0,0-.269.649,2.441,2.441,0,0,1-.122.324,1.963,1.963,0,0,1-.235.337c-.279.356-.527.735-.777,1.112a1.569,1.569,0,0,0-.22.422,2.91,2.91,0,0,1-.079.3.676.676,0,0,1-.179.23.819.819,0,0,1-.693.2.6.6,0,0,1-.472-.51c-.015-.186.071-.366.072-.552a1.23,1.23,0,0,0-.145-.491,2.607,2.607,0,0,0-.591-.914.391.391,0,0,1-.144-.37c.014-.079.047-.169.006-.242s-.145-.1-.161-.185c-.041-.2-.143-.452-.349-.465a.139.139,0,0,1-.1-.026.14.14,0,0,1-.023-.064,1.292,1.292,0,0,1,.018-.417,1.11,1.11,0,0,0,.063-.575c-.061-.183-.255-.3-.3-.488a.591.591,0,0,1,.142-.481.379.379,0,0,0,.1-.194c.009-.121-.107-.208-.173-.311-.161-.253,0-.584,0-.884a2.214,2.214,0,0,1-.016-.508,2.818,2.818,0,0,1,.148-.337c.074-.2.051-.419.133-.613a4.16,4.16,0,0,1,.374-.519,1.145,1.145,0,0,0,.081-.922,2.586,2.586,0,0,0-.472-.822,1.265,1.265,0,0,1-1-1.551l-.686-.093a3.3,3.3,0,0,0-.887-2.536,18.969,18.969,0,0,1-1.891-2.743,13.762,13.762,0,0,1-.826-2.324q-.258-.89-.512-1.781a.628.628,0,0,0-.244-.4c-.292-.161-.6.223-.638.555a4.159,4.159,0,0,1-.953-1.6,3.624,3.624,0,0,0-.19-.769.576.576,0,0,0-.635-.355.731.731,0,0,0-.3.239c-.337.4-.577.88-.932,1.267a15.01,15.01,0,0,1-1.624,1.25A9.014,9.014,0,0,0,518.578,867.8Zm65.849-24.49a1.6,1.6,0,0,1,.765.2c.1.055.2.14.2.25,0,.142-.162.212-.259.315a.931.931,0,0,0-.145.62c-.006.218-.062.474-.263.558a.619.619,0,0,1-.416-.029.851.851,0,0,1-.6-.394.434.434,0,0,0-.072-.146c-.108-.111-.3,0-.443-.064-.1-.047-.151-.176-.256-.182a.309.309,0,0,0-.183.08.476.476,0,0,1-.47.042.328.328,0,0,1-.152-.417c.294-.1.618-.054.911-.147a2.06,2.06,0,0,0,.6-.357.938.938,0,0,0,.44-.587A.312.312,0,0,1,584.427,843.308Zm-75.939,13.734c.223.36.448.718.675,1.078a1.289,1.289,0,0,1,.188.388,1.212,1.212,0,0,1-.031.549,1.1,1.1,0,0,1-.23.542.708.708,0,0,1-.956-.122.772.772,0,0,1-.116-.322,7.542,7.542,0,0,1-.1-1.238,2.588,2.588,0,0,1,.183-1.26A.835.835,0,0,1,508.488,857.042Zm-.718,29.409a1.152,1.152,0,0,0,.5-.063c.248-.154.173-.531.272-.811a3.652,3.652,0,0,1,.278-.477c.176-.344.162-.816.489-1.019a1.55,1.55,0,0,1,.823-.079,1.416,1.416,0,0,0,.918-.365c.208-.193.382-.464.661-.518a1.186,1.186,0,0,0,.191-.029c.265-.077.327-.418.474-.651a.846.846,0,0,1,1.14-.244,2.165,2.165,0,0,0,.354.247.872.872,0,0,0,.286.052c.186.013.372.025.559.04.257.018.562.069.666.306a.5.5,0,0,1-.129.517,1.832,1.832,0,0,1-.464.317c-.061.035-.124.073-.185.111a6.677,6.677,0,0,0-.853.664c-.133.121-.264.247-.394.373a1.705,1.705,0,0,0-.189.188.169.169,0,0,1-.169.084.311.311,0,0,0-.232.059,1.8,1.8,0,0,0-.187.167,4.558,4.558,0,0,0-.308.383q-.4.543-.805,1.086a6.566,6.566,0,0,0-.643.986c-.169.338-.275.7-.42,1.053a5.52,5.52,0,0,1-.936,1.513.7.7,0,0,1-.233.2.773.773,0,0,1-.352.038,1.353,1.353,0,0,1-.747-.186,1.31,1.31,0,0,1-.381-.629,18.29,18.29,0,0,1-.61-2.1,1.42,1.42,0,0,1-.041-.647A.764.764,0,0,1,507.77,886.451Zm-2.739-38.632a.566.566,0,0,1,.184-.286,2.275,2.275,0,0,0,.251-.237,1.031,1.031,0,0,0,.147-.3,3.635,3.635,0,0,1,.266-.815,1.069,1.069,0,0,1,.236-.26.687.687,0,0,0,.13-.128.573.573,0,0,0,.07-.257,1.72,1.72,0,0,1,.376-.825v0a.053.053,0,0,1,.071,0,.131.131,0,0,1,.045.065.94.94,0,0,1,.111.349.833.833,0,0,1-.057.318,3.334,3.334,0,0,0-.244,1.185.877.877,0,0,1,.006.212.788.788,0,0,1-.14.322c-.162.258-.324.519-.486.775l.01.039A2.639,2.639,0,0,1,505.031,847.819Zm-1.99,39.39c.153.083.371.026.491.153.08.086.087.231.188.289.131.077.283-.058.355-.19a.151.151,0,0,1,.051-.072c.071-.043.153.04.173.118s.033.171.1.214c.085.054.2-.009.3.029.174.073.06.359.169.513a.519.519,0,0,0,.1.093,1.075,1.075,0,0,1,.4.658.156.156,0,0,0,.055.118c.065.042.143-.025.218-.023.14,0,.164.213.28.289a.342.342,0,0,0,.3,0l.46-.142a.392.392,0,0,1,.216-.025c.14.04.184.21.257.335.113.19.326.3.445.487a.638.638,0,0,1,.082.405,1.028,1.028,0,0,1-.185.407.475.475,0,0,1-.09.125.45.45,0,0,1-.273.085.851.851,0,0,1-.414-.178c-.142-.1-.285-.195-.429-.291a3.038,3.038,0,0,1-.427-.326c-.136-.125-.244-.274-.368-.409a2.767,2.767,0,0,0-1-.692,1.312,1.312,0,0,1-.494-.272c-.081-.09-.129-.2-.21-.29-.06-.065-.142-.115-.2-.188-.1-.13-.1-.309-.178-.456a.928.928,0,0,0-.231-.257c-.051-.169-.093-.34-.139-.511Zm-1.784-9.64a1.6,1.6,0,0,0,.188-1.06,5.93,5.93,0,0,1-.236-1.02,1,1,0,0,0-.036-.293c-.048-.127-.162-.226-.218-.355a.739.739,0,0,1,.087-.634,3.184,3.184,0,0,0,.306-.589,1.755,1.755,0,0,0,.048-.4c.018-.429.034-.856.051-1.285a1.949,1.949,0,0,0-.013-.432c-.085-.453-.479-.793-.6-1.237a2.21,2.21,0,0,1-.012-.829c.087.024.179.05.267.072a1.543,1.543,0,0,1,.056-.618.406.406,0,0,1,.168-.248.363.363,0,0,1,.4.116,1.227,1.227,0,0,1,.317.712,7.009,7.009,0,0,1,.021.792,5.313,5.313,0,0,0,.225,1.468.8.8,0,0,0,.165.331c.068.069.156.114.218.19.141.164.107.41.134.626.062.5.4.869.376,1.373-.009.263-.018.526-.031.788a1.424,1.424,0,0,0,.113.768c.065.118.165.213.24.325a2.13,2.13,0,0,1,.246.785,3.226,3.226,0,0,0,.642,1.536,1.92,1.92,0,0,1,.248.3,1.72,1.72,0,0,0,.165.307c.073.081.174.128.252.208a.733.733,0,0,1,.118.6,1.3,1.3,0,0,0,0,.632c.032.087.088.165.115.254a.871.871,0,0,1-.092.564,4.379,4.379,0,0,1-.37.771,1,1,0,0,0-.134.248c-.078.278.158.541.25.818a.855.855,0,0,1-.053.659.269.269,0,0,1-.149.147.333.333,0,0,1-.135,0,1.084,1.084,0,0,1-.7-.321,2.736,2.736,0,0,1-.245-.645,1.021,1.021,0,0,0-.549-.544,1.711,1.711,0,0,0-.339-.133c-.15-.026-.293.063-.444.036a.407.407,0,0,1-.277-.264,3.726,3.726,0,0,1-.106-.388c-.064-.205-.186-.388-.259-.589a11.753,11.753,0,0,1-.126-1.733,3.674,3.674,0,0,0-.325-.848c-.033-.244-.068-.487-.1-.733C501.166,877.721,501.214,877.645,501.257,877.568Zm82.4-79.85a.257.257,0,0,1-.054-.019l.286.048A1.105,1.105,0,0,1,583.66,797.718Zm29.3,29.109a.157.157,0,0,1-.068.048,1.667,1.667,0,0,1-.279.109,1.8,1.8,0,0,1-.556.027l-.56-.03a1.144,1.144,0,0,1-.209-.022.847.847,0,0,1-.151-.055c-.471-.189-1.233-.36-1.4-.911a.362.362,0,0,0-.051-.125.31.31,0,0,0-.176-.09,1.119,1.119,0,0,1-.783-.487c-.071-.151-.073-.328-.143-.478-.08-.177-.253-.315-.266-.511s.136-.346.212-.52a.455.455,0,0,1,.062-.125.314.314,0,0,1,.25-.09.821.821,0,0,1,.64.258c.133.157.2.379.374.483a.2.2,0,0,0,.116.029c.08-.015.118-.106.166-.172a.4.4,0,0,1,.334-.165.393.393,0,0,1,.319.189.559.559,0,0,0,.066.1.721.721,0,0,0,.081.052.377.377,0,0,1,.183.275.511.511,0,0,1,.253.049.243.243,0,0,1,.136.209.537.537,0,0,1-.117.244c-.048.08-.074.192-.005.254s.184.029.259.079.07.192.069.3a.088.088,0,0,0,.018.066.106.106,0,0,0,.048.019.752.752,0,0,1,.251.067c.093.056.147.159.238.22.186.124.473.031.632.19a.53.53,0,0,1,.093.417A.166.166,0,0,1,612.96,826.828Zm-29.075-26.609c-.214-.029-.4.125-.6.219s-.491.095-.561-.111c.064-.17.128-.34.194-.507l.4.057c-.056-.16.1-.329.275-.347a.856.856,0,0,1,.477.141.392.392,0,0,1,.269-.452,1.156,1.156,0,0,1,.578-.01.618.618,0,0,1-.172-.395c.009-.147.182-.282.3-.2.031-.231-.358-.257-.483-.453a.271.271,0,0,1,.019-.3,71.022,71.022,0,0,1,21.965,7.8,1.147,1.147,0,0,1-.5.124c-.322.006-.645-.077-.965-.039.175.173.053.5-.162.611a1.2,1.2,0,0,1-.724.048l-2.271-.32a.385.385,0,0,1-.077.534.5.5,0,0,0-.591.074c-.167.135-.285.319-.454.451a1.938,1.938,0,0,1-1.543.16.725.725,0,0,1-.418-.172c-.2-.208-.086-.546,0-.822s.09-.666-.186-.754c-.1.324-.533.4-.86.318a2.693,2.693,0,0,0-.982-.215c-.182.176-.016.5.211.609s.5.106.726.22.375.451.183.615a.53.53,0,0,1-.494.014,2.213,2.213,0,0,1-1.017-.518.772.772,0,0,1-.069-1.04c-.294-.038-.587-.079-.881-.119-.016-.147-.031-.3-.045-.446a.825.825,0,0,1-.475.066.3.3,0,0,0-.34-.377c-.116.366-.292.791-.669.86a.559.559,0,0,1-.6-.7,1.819,1.819,0,0,1-.725.158.567.567,0,0,0-.321-.51.931.931,0,0,0-.244.4c-.127,0-.254,0-.379-.007-.023-.212-.045-.423-.067-.635-.2.2-.549.026-.748-.183s-.432-.466-.713-.406a1.2,1.2,0,0,0-.428.292c-.139.107-.361.163-.473.031s-.032-.34-.1-.5a.544.544,0,0,0-.305-.241,6.591,6.591,0,0,0-3.063-.828,3.138,3.138,0,0,1-1.092,0c-.349-.1-.655-.5-.5-.826a1.837,1.837,0,0,0,1.136.34c-.194-.17-.388-.34-.581-.512a.45.45,0,0,0,.654-.146c.109-.283-.323-.6-.523-.37.013-.186.024-.372.036-.555-.315.1-.629.2-.944.292C584.2,800.626,584.1,800.247,583.885,800.219Zm21.2,21.734-.9-.24c-.132-.035-.286-.1-.3-.231a.253.253,0,0,1,.052-.167.461.461,0,0,1,.744.038.437.437,0,0,0,.084.13c.138.115.365-.092.517,0,.13.081.1.323.241.373.064.021.131-.007.2,0,.184.026.2.282.17.464a.983.983,0,0,1,.716.248c-.018.132-.035.263-.054.392.137.029.273.054.409.082-.039.1-.074.191-.111.287.086.057.092.173.106.274a1.038,1.038,0,0,0,.609.789c.123.052.279.1.3.238a.287.287,0,0,1-.1.221,1.032,1.032,0,0,1-.432.291c-.114.036-.188-.079-.284.007a.307.307,0,0,0-.109.17.319.319,0,0,0,.235.359.357.357,0,0,1,.122.032c.07.042.074.138.086.219a1.219,1.219,0,0,0,.43.645.577.577,0,0,0,.225.157c.27.081.563-.249.812-.118a.516.516,0,0,1,.2.267c.084.194.171.388.256.583a.467.467,0,0,0,.167.234.478.478,0,0,0,.238.038c.141,0,.284,0,.423,0,.087,0,.193.011.228.09a.192.192,0,0,1-.006.14.553.553,0,0,1-.459.353c.088.152-.12.31-.292.345s-.4.085-.42.26.227.282.414.268a4.585,4.585,0,0,0,.9-.249,1.04,1.04,0,0,1,.9.084.65.65,0,0,1,.234.363c.045.2-.074.465-.276.449a1.323,1.323,0,0,1-.28-.116c-.249-.09-.5.113-.689.3-.069-.171-.309-.167-.493-.129a4.463,4.463,0,0,0-.91.275c-.24.107-.467.246-.717.335a1.02,1.02,0,0,1-.772,0,.3.3,0,0,1-.118-.093c-.109-.159.065-.358.221-.473l-.963-.349a.987.987,0,0,1-.555-.364c-.113-.2-.012-.517.215-.517.1,0,.207.061.3.026.127-.047.14-.225.1-.355a.707.707,0,0,1-.082-.393.789.789,0,0,0,.047-.158c0-.106-.092-.183-.164-.26a1.584,1.584,0,0,1-.265-1.075.852.852,0,0,0-.1-.446c-.071-.109-.193-.207-.172-.333a.607.607,0,0,1,.071-.152c.159-.324-.186-.716-.073-1.057.034-.095.1-.194.063-.287-.03-.077-.123-.116-.16-.193s.008-.183,0-.276c-.016-.176-.212-.269-.379-.327-.273-.093-.542-.189-.814-.282a.965.965,0,0,1-.338-.172.322.322,0,0,1-.1-.341.381.381,0,0,1,.409-.183,2.432,2.432,0,0,0,.478.054c.159-.02.324-.161.284-.318C605.37,822.045,605.216,821.988,605.081,821.952Zm-2.773-8.6c-.068-.067-.089-.17-.153-.238-.1-.114-.282-.108-.425-.165a.483.483,0,0,1-.288-.4,1.372,1.372,0,0,0-.011-.215.738.738,0,0,0-.109-.205.711.711,0,0,1-.116-.446.5.5,0,0,1,.241-.379.833.833,0,0,1,.472-.048.294.294,0,0,0,.247-.051.441.441,0,0,0,.061-.1.381.381,0,0,1,.267-.176c.1-.013.2.016.3.009s.216-.072.219-.173a.353.353,0,0,0-.091-.189.384.384,0,0,1-.08-.329.3.3,0,0,1,.379-.162.4.4,0,0,1,.229.369c0,.164-.073.359.049.465a.255.255,0,0,0,.254.029,1.3,1.3,0,0,0,.228-.138.141.141,0,0,1,.07-.026c.092,0,.1.135.143.212.06.1.2.1.294.172.125.095.148.3.3.355a.6.6,0,0,0,.238,0c.079-.006.174.022.194.1a.178.178,0,0,1-.088.174.611.611,0,0,0-.165.125c-.092.126,0,.3.031.449a1.166,1.166,0,0,1-.05.529.328.328,0,0,1-.072.161c-.085.093-.213.061-.321.035-.058-.016-.074.035-.122.064a.718.718,0,0,1-.151.062,1.143,1.143,0,0,1-.223.044q-.682.077-1.366.157A.457.457,0,0,1,602.308,813.351Z" transform="translate(-499.235 -795.503)" fill="#5652cc"/>
        <g id="Group_4297" data-name="Group 4297">
          <g id="Group_4291" data-name="Group 4291" transform="translate(71.482)">
            <path id="Path_5579" data-name="Path 5579" d="M697.986,927.284a1.244,1.244,0,0,0,.359-.053c11.974-3.6,22.234-12.8,29.673-26.6,7.042-13.069,10.921-29.43,10.921-46.071s-3.879-33-10.922-46.069c-7.44-13.806-17.7-23-29.672-26.6a1.246,1.246,0,1,0-.717,2.387c11.325,3.4,21.075,12.183,28.194,25.4,6.851,12.713,10.624,28.654,10.624,44.887s-3.772,32.177-10.622,44.888c-7.119,13.21-16.869,21.992-28.2,25.4a1.246,1.246,0,0,0,.358,2.44Z" transform="translate(-696.74 -781.837)" fill="#807dfb"/>
          </g>
          <g id="Group_4292" data-name="Group 4292" transform="translate(31.766 0)">
            <path id="Path_5580" data-name="Path 5580" d="M1024.5,927.286a1.246,1.246,0,0,0,.358-2.44c-11.331-3.4-21.083-12.185-28.2-25.395-6.851-12.71-10.624-28.652-10.625-44.887s3.773-32.178,10.623-44.89c7.12-13.213,16.873-21.995,28.2-25.4a1.246,1.246,0,1,0-.717-2.387c-11.978,3.6-22.242,12.794-29.682,26.6-7.043,13.069-10.921,29.431-10.921,46.072s3.879,33,10.923,46.07c7.44,13.8,17.7,23,29.68,26.6A1.244,1.244,0,0,0,1024.5,927.286Z" transform="translate(-983.534 -781.839)" fill="#807dfb"/>
          </g>
          <g id="Group_4293" data-name="Group 4293" transform="translate(71.482 0)">
            <path id="Path_5581" data-name="Path 5581" d="M984.783,927.285a1.246,1.246,0,0,0,1.246-1.246V783.084a1.246,1.246,0,1,0-2.492,0V926.039A1.246,1.246,0,0,0,984.783,927.285Z" transform="translate(-983.537 -781.838)" fill="#807dfb"/>
          </g>
          <g id="Group_4294" data-name="Group 4294" transform="translate(0 71.475)">
            <path id="Path_5582" data-name="Path 5582" d="M468.5,1300.6h0l142.96-.007a1.246,1.246,0,1,0,0-2.492h0l-142.96.007a1.246,1.246,0,1,0,0,2.492Z" transform="translate(-467.25 -1298.101)" fill="#807dfb"/>
          </g>
          <g id="Group_4295" data-name="Group 4295" transform="translate(24.282 17.811)">
            <path id="Path_5583" data-name="Path 5583" d="M691.08,936.312h0a60.233,60.233,0,0,0,48.187-23.827,1.246,1.246,0,0,0-1.979-1.514,58.156,58.156,0,0,1-92.417.009,1.246,1.246,0,1,0-1.979,1.514A60.245,60.245,0,0,0,691.08,936.312Z" transform="translate(-642.636 -910.482)" fill="#807dfb"/>
          </g>
          <g id="Group_4296" data-name="Group 4296" transform="translate(24.28 101.808)">
            <path id="Path_5584" data-name="Path 5584" d="M643.9,1543.026a1.244,1.244,0,0,0,.99-.489,57.768,57.768,0,0,1,46.208-22.848h.02a57.747,57.747,0,0,1,46.189,22.846,1.246,1.246,0,1,0,1.979-1.515,60.223,60.223,0,0,0-48.167-23.824H691.1a60.238,60.238,0,0,0-48.187,23.825,1.246,1.246,0,0,0,.989,2Z" transform="translate(-642.653 -1517.197)" fill="#807dfb"/>
          </g>
          <path id="Path_5585" data-name="Path 5585" d="M619.21,862.313a71.48,71.48,0,1,0-71.478,71.48A71.479,71.479,0,0,0,619.21,862.313Z" transform="translate(-475.004 -789.593)" fill="none" stroke="#9996f7" stroke-linecap="round" stroke-linejoin="round" stroke-width="18"/>
        </g>
      </g>
    </g>
    <g id="Location_marks" data-name="Location marks" transform="translate(117.33 67.075)">
      <g id="Group_4299" data-name="Group 4299" transform="translate(0 0)">
        <path id="Path_5586" data-name="Path 5586" d="M1125.183,802.044a6.789,6.789,0,0,0-2.77-13.293l-2.077-9.968A16.973,16.973,0,0,1,1138,804.7l-9.35,13.96-3.462-16.618Z" transform="translate(-1106.823 -778.424)" fill="#eb6c21"/>
        <path id="Path_5587" data-name="Path 5587" d="M1210.71,788.331a16.922,16.922,0,0,1,10.737-7.315l2.077,9.968h0a6.789,6.789,0,1,0,2.77,13.293l3.462,16.617h0l-14.149-9.064A16.979,16.979,0,0,1,1210.71,788.331Z" transform="translate(-1207.934 -780.657)" fill="#fa8745"/>
      </g>
      <g id="Group_4300" data-name="Group 4300" transform="translate(38.677 57.785)">
        <path id="Path_5588" data-name="Path 5588" d="M953.011,1212.551a10.945,10.945,0,0,1,5.2-6.6l3.22,5.745h0a4.391,4.391,0,1,0,4.294,7.661l5.367,9.577L960.6,1226.1A10.982,10.982,0,0,1,953.011,1212.551Z" transform="translate(-952.598 -1204.547)" fill="#e9edf7"/>
        <path id="Path_5589" data-name="Path 5589" d="M935.073,1210.618a4.391,4.391,0,0,0-4.294-7.661l-3.22-5.745a10.978,10.978,0,0,1,15.934,12.553l-3.053,10.43h0l-5.368-9.577Z" transform="translate(-921.946 -1195.807)" fill="#fff"/>
      </g>
      <g id="Group_4301" data-name="Group 4301" transform="translate(101.267 25.869)">
        <path id="Path_5590" data-name="Path 5590" d="M487.5,974.676a5.148,5.148,0,0,0,.332,7.274l-8.68,9.507-.71-12.724a12.873,12.873,0,0,1,21.539-10.092l-5.206,5.7A5.15,5.15,0,0,0,487.5,974.676Z" transform="translate(-478.425 -965.274)" fill="#fac9ad"/>
        <path id="Path_5591" data-name="Path 5591" d="M456.813,1002.9h0a5.149,5.149,0,0,0,6.943-7.605h0l5.207-5.7a12.873,12.873,0,0,1-8.094,22.366l-12.735.45h0Z" transform="translate(-447.41 -986.226)" fill="#fa9962"/>
      </g>
    </g>
    <g id="Woman" transform="translate(44.351 41.749)">
      <g id="Group_4302" data-name="Group 4302" transform="translate(18.969 78.11)">
        <path id="Path_5592" data-name="Path 5592" d="M1446.485,1993.752a2.051,2.051,0,0,0-1.749,1.658l-1.326,0a7.249,7.249,0,0,1-.6-5.023c.435-1.778.891-1.351,1.352-.888,1.052.859,5.351,1.15,5.691-.3,1.11.17,12.53,3.479,12.529,4.536,0,1.712-1.346,1.7-2.261,1.7C1449.31,1995.418,1450.744,1994.757,1446.485,1993.752Z" transform="translate(-1419.038 -1874.263)" fill="#362e94"/>
        <path id="Path_5593" data-name="Path 5593" d="M1492.934,1966.08c-.368-1.629-5.077-2.86-4.838-.008a3.846,3.846,0,0,1-.249,1.814h0c1.053.859,10.888,3.92,12.514,1.811C1499.232,1969.089,1492.931,1967.809,1492.934,1966.08Z" transform="translate(-1463.286 -1852.96)" fill="#f7d3c9"/>
        <path id="Path_5594" data-name="Path 5594" d="M1564.816,1159.689c5.771,42.921,5.771,84.161,5.771,112.81H1565.5c-1.4-3.49-9.344-33.385-9.344-49.7-4.514-13.791-14.331-56.237-15.313-63.109Z" transform="translate(-1540.847 -1159.689)" fill="#362e94"/>
      </g>
      <g id="Group_4303" data-name="Group 4303" transform="translate(8.763 78.11)">
        <path id="Path_5595" data-name="Path 5595" d="M1690.418,1993.752a2.051,2.051,0,0,0-1.749,1.658l-1.326,0a7.251,7.251,0,0,1-.6-5.023c.435-1.778.891-1.351,1.352-.888,1.052.859,5.351,1.15,5.691-.3,1.11.17,12.53,3.479,12.529,4.536,0,1.712-1.346,1.7-2.261,1.7C1693.243,1995.418,1694.677,1994.757,1690.418,1993.752Z" transform="translate(-1686.537 -1874.263)" fill="#362e94"/>
        <path id="Path_5596" data-name="Path 5596" d="M1736.867,1966.08c-.368-1.629-5.076-2.86-4.838-.008a3.846,3.846,0,0,1-.249,1.814h0c1.053.859,10.888,3.92,12.514,1.811C1743.165,1969.089,1736.864,1967.809,1736.867,1966.08Z" transform="translate(-1730.784 -1852.96)" fill="#f7d3c9"/>
        <path id="Path_5597" data-name="Path 5597" d="M1606.1,1159.689c-3.6,11.307-1.42,36.766-.283,59.632-4.043,14.344-3.627,40.279-3.627,53.178h5.083c2.855-7.1,23.336-99.3,25.265-112.81Z" transform="translate(-1601.087 -1159.689)" fill="#423eaf"/>
      </g>
      <path id="Path_5598" data-name="Path 5598" d="M1625.559,644.962c-1.064,1.4,10.583,3.9,11.407,3.47.406-.213.373-1.864.1-2.635-1.677-2.218-1.111-4.113-.991-5.4,3.129.754,4.406-.818,4.6-5.331a2.4,2.4,0,0,0,1.494-.307c.057-.617-1-2.136-.875-3.546a21.709,21.709,0,0,0,.105-5.011c-.23-2.331-2.625-6.281-8.04-6.313-6.338-.037-8.254,4.231-8.561,9.679C1624.454,635.612,1632.308,636.12,1625.559,644.962Z" transform="translate(-1605.076 -616.509)" fill="#f7d3c9"/>
      <g id="Group_4304" data-name="Group 4304" transform="translate(29.036 32.342)">
        <path id="Path_5599" data-name="Path 5599" d="M1366.462,829.1c3.815,6.691,8.749,21.133,11.513,24.181,2.721,3,20.716,2.66,26.379.983a20.455,20.455,0,0,0,1.66,3.837c-3.229,1.672-22.494,7.745-30.258,6.848-6.569-.759-10.644-6.052-13.55-12.6S1366.462,829.1,1366.462,829.1Z" transform="translate(-1361.512 -829.104)" fill="#c4cae9"/>
        <path id="Path_5600" data-name="Path 5600" d="M1280.886,977.637c2.775-.843,3.618-1.291,3.623-.621s-3.034,2.493-2.783,2.438c.42.337.854.661,1.313.962L1288,983.6a26.638,26.638,0,0,1-7.07,2.2c-3.051.5-3.034-.546-5.009-.532a10.312,10.312,0,0,1-1.66-3.837C1277.243,981.254,1278.111,978.48,1280.886,977.637Z" transform="translate(-1231.424 -956.258)" fill="#f7d3c9"/>
        <path id="Path_5601" data-name="Path 5601" d="M1363.74,1009.532s-2.3-5.256-2.4-5.622c-1.173.132-3.519.958-3.61.909.283,1.035,2.173,6.746,2.333,6.833C1360.616,1011.477,1363.74,1009.532,1363.74,1009.532Z" transform="translate(-1318.714 -979.709)" fill="#d1d7f3"/>
      </g>
      <g id="Group_4305" data-name="Group 4305" transform="translate(13.78 28.147)">
        <path id="Path_5602" data-name="Path 5602" d="M1563.074,850.671h29.158c-1.531-5.907-3.073-12.587-1.626-18.386,1.046-4.193,4.556-7.986,4.307-9.006-1.46-5.972-10.775-16.554-13.634-21.43a11.192,11.192,0,0,1-.236,2.4c-2.873-.87-7.38-2.128-11.267-3.237C1561.949,812.321,1563.662,838,1563.074,850.671Z" transform="translate(-1563.074 -800.707)" fill="#dde2f8"/>
        <path id="Path_5603" data-name="Path 5603" d="M1685.763,804.426l-1.746,3.732-7.252-6.3Z" transform="translate(-1669.651 -801.438)" fill="#fff"/>
        <path id="Path_5604" data-name="Path 5604" d="M1591.48,867.638c-3.611-15.915-.536-21.434,1.3-24.731a6.518,6.518,0,0,0,1.14-3.029c0-2.123-4.064-8.405-8.971-15.786-.812-1.221-1.568-2.358-2.177-3.3-.026.16-.051.318-.084.5l-.475-.143c.6.929,1.349,2.054,2.185,3.311,3.528,5.306,8.858,13.325,8.86,15.42a6.026,6.026,0,0,1-1.056,2.706c-1.88,3.375-5.025,9.021-1.384,25.127h.338Z" transform="translate(-1564.719 -817.748)" fill="#ced3f8"/>
        <path id="Path_5605" data-name="Path 5605" d="M1647.881,800.418l2,2.579a18.454,18.454,0,0,0-2.092-3.8,3.877,3.877,0,0,0-.6-.4C1647.313,799.124,1647.881,800.418,1647.881,800.418Z" transform="translate(-1629.679 -798.802)" fill="#fff"/>
      </g>
      <g id="Group_4306" data-name="Group 4306" transform="translate(0 29.762)">
        <path id="Path_5606" data-name="Path 5606" d="M1711.4,811.836c-5.426,6.359-17.793,19.934-17.793,29.536,0,7.914,9.7,24.644,13.139,28.086,1.324-1.324,3.622-3.96,3.622-3.96-4.959-7.407-7.043-18.594-7.145-23.386,1.032-3.168,6.4-9.511,11.689-14.8s6.938-8.128,6.009-11.471S1714.458,808.252,1711.4,811.836Z" transform="translate(-1693.607 -810.473)" fill="#e9edf7"/>
        <path id="Path_5607" data-name="Path 5607" d="M1749.624,1211.6a3.558,3.558,0,0,1,3.064,1.114c-1.068.557-7.244,3.066-7.244,3.066Z" transform="translate(-1732.304 -1156.068)" fill="#f7d3c9"/>
        <path id="Path_5608" data-name="Path 5608" d="M1766.636,1191.018s4.488-4.69,4.826-4.953a28.579,28.579,0,0,0-2.4-3.494c-.957.746-5.891,5-5.912,5.207C1763.571,1188.277,1766.636,1191.018,1766.636,1191.018Z" transform="translate(-1753.53 -1131.055)" fill="#ced3f8"/>
      </g>
      <path id="Path_5609" data-name="Path 5609" d="M1662.451,603.2c.516,2.625-1.388,6.222-6.316,7.085-5.915,1.034-5.047,4.557-3.891,6.819,1.977,3.868-3.639,9.45-7.831,12.051-5.624,3.491-12.588,2.734-16.653-1.209-5.81-5.633,1.924-8.969,8.023-8.962,2.758,0,7.014-2.427,6.561-6.077a23.158,23.158,0,0,1,.505-9.372c1.8-5.49,5.952-8.45,11.04-7.983S1661.54,598.583,1662.451,603.2Z" transform="translate(-1625.572 -595.5)" fill="#362e94"/>
    </g>
    <g id="Secondary_shapes" data-name="Secondary shapes" transform="translate(6.058 0)">
      <path id="Path_5610" data-name="Path 5610" d="M1481.352,295.885l4.691-1.863a1.1,1.1,0,0,1,1.094.159l3.96,3.13a1.1,1.1,0,0,1,.408,1.027l-.732,4.995a1.1,1.1,0,0,1-.685.866l-4.691,1.864a1.1,1.1,0,0,1-1.093-.16l-3.96-3.131a1.1,1.1,0,0,1-.408-1.027l.731-4.995A1.106,1.106,0,0,1,1481.352,295.885Z" transform="translate(-1396.08 -293.944)" fill="#fcba06"/>
      <path id="Path_5611" data-name="Path 5611" d="M2110.818,1589.754l-2.617,6.916a1.04,1.04,0,0,1-1.778.29l-4.681-5.724a1.04,1.04,0,0,1,.637-1.685l7.3-1.193A1.04,1.04,0,0,1,2110.818,1589.754Z" transform="translate(-2101.506 -1409.14)" fill="#807dfb"/>
      <path id="Path_5612" data-name="Path 5612" d="M406.964,1871.4l-2.954,7.353a1.114,1.114,0,0,1-1.912.272l-4.891-6.235a1.115,1.115,0,0,1,.72-1.792l7.846-1.117A1.114,1.114,0,0,1,406.964,1871.4Z" transform="translate(-161.678 -1651.69)" fill="#807dfb"/>
    </g>
  </g>
</svg>
