<svg xmlns="http://www.w3.org/2000/svg" width="177.68" height="33.42" viewBox="0 0 177.68 33.42">
  <g id="Group_96" data-name="Group 96" transform="translate(-603.575 -597)">
    <g id="Group_84" data-name="Group 84" transform="translate(634.971 606.692)">
      <path id="Path_455" data-name="Path 455" d="M97.536,42.335a7.358,7.358,0,0,1-2.521,2.16,7.784,7.784,0,0,1-3.721.827,9.1,9.1,0,0,1-3.454-.647,8.02,8.02,0,0,1-2.725-1.8,8.287,8.287,0,0,1-1.788-2.761,9.874,9.874,0,0,1,.018-7.061,8.011,8.011,0,0,1,1.828-2.734,8.3,8.3,0,0,1,2.763-1.762,9.332,9.332,0,0,1,3.467-.628,8.992,8.992,0,0,1,1.687.166,8.352,8.352,0,0,1,1.64.492,6.8,6.8,0,0,1,1.432.808A5.227,5.227,0,0,1,97.271,30.5l-1.8,1.4a4.521,4.521,0,0,0-1.7-1.393A5.222,5.222,0,0,0,91.4,29.96a6.1,6.1,0,0,0-2.577.524A5.833,5.833,0,0,0,86.87,31.92a6.515,6.515,0,0,0-1.25,2.115,7.414,7.414,0,0,0-.441,2.56,7.836,7.836,0,0,0,.425,2.619,6.31,6.31,0,0,0,1.223,2.117,5.654,5.654,0,0,0,1.939,1.417,6.158,6.158,0,0,0,2.553.516,5.591,5.591,0,0,0,2.52-.558,4.871,4.871,0,0,0,1.873-1.635Z" transform="translate(-82.683 -27.926)" fill="#4f4d77"/>
      <path id="Path_456" data-name="Path 456" d="M126.873,44.041q-.023-.7-.068-1.239l2.056,0q.046.421.068.97t.022.9h.07a3.825,3.825,0,0,1,1.353-1.577,3.512,3.512,0,0,1,2-.594,3.352,3.352,0,0,1,.855.094l-.094,2.034a4.059,4.059,0,0,0-.993-.118,2.985,2.985,0,0,0-1.364.29,2.789,2.789,0,0,0-.96.782,3.316,3.316,0,0,0-.567,1.134,4.819,4.819,0,0,0-.186,1.344l-.006,5.822-2.172,0,.009-8.7q0-.444-.022-1.146" transform="translate(-110.049 -36.902)" fill="#4f4d77"/>
      <path id="Path_457" data-name="Path 457" d="M150.49,30.616a1.319,1.319,0,0,1-.425,1,1.436,1.436,0,0,1-1.02.4,1.378,1.378,0,0,1-1.008-.41,1.348,1.348,0,0,1-.412-.994,1.4,1.4,0,0,1,1.423-1.425,1.42,1.42,0,0,1,1.02.41,1.358,1.358,0,0,1,.423,1.018m-.362,15.08-2.172,0,.011-11.082,2.172,0Z" transform="translate(-122.962 -28.703)" fill="#4f4d77"/>
      <path id="Path_458" data-name="Path 458" d="M166.028,40.027l-2.911,0-.006,5.758a2.2,2.2,0,0,0,.368,1.434,1.47,1.47,0,0,0,1.178.432,3.51,3.51,0,0,0,.647-.063,2.605,2.605,0,0,0,.624-.192l.068,1.8a5.223,5.223,0,0,1-.867.221,5.759,5.759,0,0,1-.982.081,3.108,3.108,0,0,1-2.368-.868,3.643,3.643,0,0,1-.818-2.6l.006-6.009-2.1,0,0-1.8,2.1,0,0-3.18,2.149,0,0,3.18,2.911,0Z" transform="translate(-129.933 -32.308)" fill="#4f4d77"/>
      <path id="Path_459" data-name="Path 459" d="M192.078,48.315c0,.125,0,.25,0,.374a3.166,3.166,0,0,1-.024.374l-8.712-.009a3.3,3.3,0,0,0,.31,1.312,3.454,3.454,0,0,0,.773,1.069,3.788,3.788,0,0,0,4.39.477,3.939,3.939,0,0,0,1.272-1.191l1.524,1.24a5.469,5.469,0,0,1-2.07,1.733,6.561,6.561,0,0,1-4.957.13,5.321,5.321,0,0,1-1.824-1.182,5.473,5.473,0,0,1-1.2-1.837,6.261,6.261,0,0,1-.437-2.386,6.423,6.423,0,0,1,.431-2.372,5.348,5.348,0,0,1,3-3.06,6.134,6.134,0,0,1,4.435-.031,4.517,4.517,0,0,1,1.666,1.147,5.181,5.181,0,0,1,1.052,1.813,7.258,7.258,0,0,1,.368,2.4m-2.218-.891a4.245,4.245,0,0,0-.218-1.228,2.841,2.841,0,0,0-.577-.994,2.71,2.71,0,0,0-.947-.667,3.317,3.317,0,0,0-1.328-.247,3.471,3.471,0,0,0-1.306.244,3.385,3.385,0,0,0-1.063.665,3.515,3.515,0,0,0-.741.993,3.2,3.2,0,0,0-.336,1.227Z" transform="translate(-143.739 -36.935)" fill="#4f4d77"/>
      <path id="Path_460" data-name="Path 460" d="M217.108,44.131q-.023-.7-.068-1.239l2.057,0q.046.421.068.97t.022.9h.07a3.824,3.824,0,0,1,1.353-1.577,3.512,3.512,0,0,1,2-.594,3.351,3.351,0,0,1,.855.094l-.094,2.034a4.059,4.059,0,0,0-.993-.118,2.985,2.985,0,0,0-1.364.291,2.788,2.788,0,0,0-.96.782,3.318,3.318,0,0,0-.567,1.134,4.821,4.821,0,0,0-.186,1.344l-.006,5.822-2.172,0,.009-8.7q0-.444-.022-1.146" transform="translate(-166.015 -36.958)" fill="#4f4d77"/>
      <path id="Path_461" data-name="Path 461" d="M240.725,30.706a1.319,1.319,0,0,1-.425,1,1.436,1.436,0,0,1-1.02.4,1.378,1.378,0,0,1-1.008-.41,1.348,1.348,0,0,1-.412-.994,1.4,1.4,0,0,1,1.423-1.425,1.42,1.42,0,0,1,1.02.41,1.358,1.358,0,0,1,.423,1.018m-.362,15.08-2.172,0L238.2,34.7l2.172,0Z" transform="translate(-178.928 -28.758)" fill="#4f4d77"/>
      <path id="Path_462" data-name="Path 462" d="M258.419,46.838A2.219,2.219,0,0,0,257.681,45a3.041,3.041,0,0,0-1.963-.6,4.28,4.28,0,0,0-1.745.36,4.434,4.434,0,0,0-1.376.922l-1.154-1.4a5.815,5.815,0,0,1,1.977-1.214,6.987,6.987,0,0,1,2.508-.442,5.61,5.61,0,0,1,2.045.341,3.874,3.874,0,0,1,1.42.925,3.8,3.8,0,0,1,.83,1.38,5.158,5.158,0,0,1,.276,1.707l-.005,4.84q0,.561.034,1.181a6.081,6.081,0,0,0,.126,1.017l-1.965,0a6.985,6.985,0,0,1-.183-1.59h-.069a4.224,4.224,0,0,1-1.515,1.378,4.5,4.5,0,0,1-2.161.489,5.584,5.584,0,0,1-1.352-.177,3.9,3.9,0,0,1-1.282-.574,3.219,3.219,0,0,1-.958-1.053,3.161,3.161,0,0,1-.379-1.614,2.858,2.858,0,0,1,.672-2,4.235,4.235,0,0,1,1.757-1.121,9.81,9.81,0,0,1,2.45-.5q1.364-.115,2.75-.114Zm-.533,1.893q-.81,0-1.676.068a7.678,7.678,0,0,0-1.572.279,2.964,2.964,0,0,0-1.167.63,1.443,1.443,0,0,0-.463,1.122,1.568,1.568,0,0,0,.2.818,1.639,1.639,0,0,0,.52.538,2.076,2.076,0,0,0,.716.293,3.953,3.953,0,0,0,.809.083,2.972,2.972,0,0,0,2.346-.921,3.376,3.376,0,0,0,.823-2.326v-.585Z" transform="translate(-186.947 -36.977)" fill="#4f4d77"/>
      <path id="Path_463" data-name="Path 463" d="M285.482,45.754l-2.288,0,.014-14.52-5.245-.005,0-2.034,12.779.013,0,2.034-5.246-.005Z" transform="translate(-203.801 -28.706)" fill="#fc7a30"/>
      <path id="Path_464" data-name="Path 464" d="M314.048,46.894a2.219,2.219,0,0,0-.738-1.837,3.04,3.04,0,0,0-1.963-.6,4.28,4.28,0,0,0-1.745.36,4.436,4.436,0,0,0-1.376.922l-1.154-1.4a5.815,5.815,0,0,1,1.977-1.214,6.987,6.987,0,0,1,2.508-.442,5.609,5.609,0,0,1,2.045.341,3.874,3.874,0,0,1,1.42.925,3.8,3.8,0,0,1,.83,1.38,5.16,5.16,0,0,1,.276,1.707l0,4.84q0,.561.034,1.181a6.077,6.077,0,0,0,.126,1.017l-1.965,0a6.982,6.982,0,0,1-.183-1.59h-.069a4.224,4.224,0,0,1-1.515,1.378,4.5,4.5,0,0,1-2.161.489,5.584,5.584,0,0,1-1.352-.177,3.9,3.9,0,0,1-1.282-.574,3.218,3.218,0,0,1-.958-1.053,3.16,3.16,0,0,1-.379-1.614,2.858,2.858,0,0,1,.672-2,4.235,4.235,0,0,1,1.757-1.121,9.811,9.811,0,0,1,2.45-.5q1.364-.115,2.75-.114Zm-.533,1.893q-.81,0-1.676.068a7.678,7.678,0,0,0-1.572.279,2.963,2.963,0,0,0-1.167.63,1.443,1.443,0,0,0-.463,1.122,1.568,1.568,0,0,0,.2.818,1.639,1.639,0,0,0,.52.538,2.076,2.076,0,0,0,.716.293,3.952,3.952,0,0,0,.809.083,2.972,2.972,0,0,0,2.346-.921,3.377,3.377,0,0,0,.823-2.326v-.585Z" transform="translate(-221.449 -37.012)" fill="#fc7a30"/>
      <path id="Path_465" data-name="Path 465" d="M339.851,44.253q-.023-.7-.068-1.239l2.056,0q.046.421.068.97t.022.9H342a3.824,3.824,0,0,1,1.353-1.577,3.512,3.512,0,0,1,2-.594,3.352,3.352,0,0,1,.855.094l-.094,2.034a4.059,4.059,0,0,0-.993-.118,2.985,2.985,0,0,0-1.364.291,2.789,2.789,0,0,0-.96.782,3.317,3.317,0,0,0-.567,1.134,4.821,4.821,0,0,0-.186,1.344l-.006,5.822-2.172,0,.009-8.7q0-.444-.022-1.146" transform="translate(-242.143 -37.033)" fill="#fc7a30"/>
      <path id="Path_466" data-name="Path 466" d="M370.345,48.564a6.047,6.047,0,0,1-.453,2.361A5.552,5.552,0,0,1,366.757,54a6.508,6.508,0,0,1-4.668-.005,5.486,5.486,0,0,1-1.87-1.217,5.7,5.7,0,0,1-1.235-1.86,6.045,6.045,0,0,1-.448-2.362,5.963,5.963,0,0,1,.453-2.349,5.5,5.5,0,0,1,3.111-3.036,6.511,6.511,0,0,1,4.668,0,5.713,5.713,0,0,1,1.882,1.206,5.513,5.513,0,0,1,1.246,1.836,5.965,5.965,0,0,1,.449,2.351m-2.265.009a4.719,4.719,0,0,0-.242-1.516,3.842,3.842,0,0,0-.706-1.271,3.4,3.4,0,0,0-1.147-.875,3.908,3.908,0,0,0-3.13,0,3.4,3.4,0,0,0-1.148.873,3.847,3.847,0,0,0-.708,1.27,4.841,4.841,0,0,0,0,3.031,3.974,3.974,0,0,0,.706,1.283,3.332,3.332,0,0,0,1.147.887,3.912,3.912,0,0,0,3.13,0,3.333,3.333,0,0,0,1.148-.885,3.989,3.989,0,0,0,.708-1.282,4.714,4.714,0,0,0,.245-1.515" transform="translate(-253.774 -37.045)" fill="#fc7a30"/>
      <path id="Path_467" data-name="Path 467" d="M397.846,43.073q.046.421.068.947t.022.877h.07a3.235,3.235,0,0,1,.567-.83,4.115,4.115,0,0,1,.821-.677,4.031,4.031,0,0,1,1.017-.455,4.076,4.076,0,0,1,1.156-.162,4.221,4.221,0,0,1,1.825.364,3.7,3.7,0,0,1,1.27.972,3.941,3.941,0,0,1,.749,1.427,6.135,6.135,0,0,1,.241,1.754l-.006,6.874-2.172,0,.006-6.149a7.652,7.652,0,0,0-.1-1.286A3.13,3.13,0,0,0,403,45.65a2.086,2.086,0,0,0-.762-.749,2.47,2.47,0,0,0-1.248-.282,2.617,2.617,0,0,0-2.115.992,4.038,4.038,0,0,0-.823,2.653l-.006,5.892-2.172,0,.009-8.7q0-.444-.022-1.146t-.068-1.239Z" transform="translate(-276.88 -37.068)" fill="#fc7a30"/>
      <path id="Path_468" data-name="Path 468" d="M423.21,49.573a3.582,3.582,0,0,0,.878.118,1.47,1.47,0,0,0,.786-.186,1.259,1.259,0,0,0,.463-.5,2.307,2.307,0,0,0,.22-.748,7.008,7.008,0,0,0,.059-.923l.012-12.439,2.172,0L427.788,47.4a8.084,8.084,0,0,1-.152,1.59,3.653,3.653,0,0,1-.544,1.332,2.714,2.714,0,0,1-1.087.922,4.054,4.054,0,0,1-1.78.337,4.868,4.868,0,0,1-.647-.047c-.231-.032-.431-.063-.6-.094ZM428.173,30.9a1.313,1.313,0,0,1-.428,1,1.455,1.455,0,0,1-1.029.4,1.434,1.434,0,0,1-1.028-.41,1.323,1.323,0,0,1-.426-.994,1.35,1.35,0,0,1,.428-1.017,1.5,1.5,0,0,1,2.057,0,1.353,1.353,0,0,1,.426,1.018" transform="translate(-293.742 -28.876)" fill="#fc7a30"/>
      <path id="Path_469" data-name="Path 469" d="M449.526,47.029a2.219,2.219,0,0,0-.737-1.837,3.041,3.041,0,0,0-1.964-.6,4.28,4.28,0,0,0-1.745.36,4.434,4.434,0,0,0-1.376.922l-1.154-1.4a5.815,5.815,0,0,1,1.977-1.214,6.988,6.988,0,0,1,2.508-.442,5.609,5.609,0,0,1,2.045.341,3.873,3.873,0,0,1,1.42.925,3.8,3.8,0,0,1,.83,1.38,5.159,5.159,0,0,1,.276,1.707l0,4.84q0,.561.034,1.181a6.08,6.08,0,0,0,.126,1.017l-1.965,0a6.984,6.984,0,0,1-.183-1.59h-.069a4.224,4.224,0,0,1-1.515,1.378,4.5,4.5,0,0,1-2.161.489,5.585,5.585,0,0,1-1.352-.177,3.9,3.9,0,0,1-1.282-.574,3.219,3.219,0,0,1-.958-1.053,3.161,3.161,0,0,1-.379-1.614,2.858,2.858,0,0,1,.672-2,4.235,4.235,0,0,1,1.757-1.121,9.81,9.81,0,0,1,2.45-.5q1.364-.115,2.75-.114Zm-.533,1.893q-.81,0-1.676.068a7.679,7.679,0,0,0-1.572.279,2.964,2.964,0,0,0-1.167.63,1.443,1.443,0,0,0-.463,1.122,1.567,1.567,0,0,0,.2.818,1.639,1.639,0,0,0,.52.538,2.077,2.077,0,0,0,.716.293,3.952,3.952,0,0,0,.809.083,2.972,2.972,0,0,0,2.346-.921,3.377,3.377,0,0,0,.823-2.326v-.585Z" transform="translate(-305.476 -37.095)" fill="#fc7a30"/>
    </g>
    <g id="Group_94" data-name="Group 94" transform="translate(603.575 597)">
      <path id="Path_476" data-name="Path 476" d="M34.023,5.58A4.391,4.391,0,0,1,32.338,5a3.491,3.491,0,0,1-1.2-1.19,3.331,3.331,0,0,1-.47-1.6,3.971,3.971,0,0,1,.324-1.69L31.213,0l.579.079a4.39,4.39,0,0,1,1.685.579,3.48,3.48,0,0,1,1.2,1.191,3.3,3.3,0,0,1,.471,1.6,3.972,3.972,0,0,1-.324,1.69l-.22.522Z" transform="translate(-19.023)" fill="#fc7a30"/>
      <path id="Path_477" data-name="Path 477" d="M15.929,10.059a7.22,7.22,0,0,1,.333-2.366,6.258,6.258,0,0,1,1.63-2.622,6.608,6.608,0,0,1,2.73-1.562,8.331,8.331,0,0,1,3.342-.253l.59.07.072.568a7.43,7.43,0,0,1-.27,3.214,6.258,6.258,0,0,1-1.63,2.622A6.606,6.606,0,0,1,20,11.291a7.867,7.867,0,0,1-1.853.308q.132.118.259.241l0,0A10.37,10.37,0,0,1,20.74,15.21a9.984,9.984,0,0,1,.814,3.963,11.807,11.807,0,0,1-2.242,6.614,38.835,38.835,0,0,1-4.506,5.239l-.966,1c-.289.3-.574.609-.855.925L10.76,35.445l-2.22-2.5c-.281-.316-.566-.623-.854-.927l-.964-1A38.932,38.932,0,0,1,2.228,25.77,11.806,11.806,0,0,1,0,19.152a9.992,9.992,0,0,1,.822-3.961,10.381,10.381,0,0,1,2.342-3.363l0,0a10.844,10.844,0,0,1,3.5-2.247,11.174,11.174,0,0,1,8.237.008,10.89,10.89,0,0,1,1.024.472" transform="translate(0 -2.025)" fill="#fc7a30"/>
      <path id="Path_478" data-name="Path 478" d="M47.3,11.13a5.016,5.016,0,0,0-.223,1.736,5.605,5.605,0,0,0,1.805-.211,4.371,4.371,0,0,0,1.8-1.034A4.139,4.139,0,0,0,51.77,9.887a4.991,4.991,0,0,0,.223-1.736,5.6,5.6,0,0,0-1.8.211,4.371,4.371,0,0,0-1.8,1.034A4.138,4.138,0,0,0,47.3,11.13" transform="translate(-29.202 -5.171)" fill="#fff"/>
      <path id="Path_479" data-name="Path 479" d="M35.588,6.66a2.576,2.576,0,0,0,.471.221,2.292,2.292,0,0,0,.038-.505,1.925,1.925,0,0,0-.271-.925v0a2.035,2.035,0,0,0-.7-.69,2.564,2.564,0,0,0-.471-.221,2.292,2.292,0,0,0-.038.505,1.928,1.928,0,0,0,.271.926,2.033,2.033,0,0,0,.7.693" transform="translate(-21.472 -2.879)" fill="#fff"/>
      <path id="Path_480" data-name="Path 480" d="M17.729,24.983a9.08,9.08,0,0,0-6.659-.006,8.734,8.734,0,0,0-2.825,1.813l0,0a8.362,8.362,0,0,0-1.891,2.713,8.074,8.074,0,0,0-.661,3.2,9.811,9.811,0,0,0,1.865,5.48,35.527,35.527,0,0,0,4.069,4.739c.251.26.509.527.912.952.312.329.6.637.836.9l1,1.13,1.007-1.129c.238-.266.525-.573.838-.9.418-.44.662-.691.914-.951A35.484,35.484,0,0,0,21.215,38.2a9.812,9.812,0,0,0,1.877-5.476,8.071,8.071,0,0,0-.654-3.2,8.357,8.357,0,0,0-1.885-2.717l0,0a8.726,8.726,0,0,0-2.821-1.819" transform="translate(-3.53 -15.455)" fill="#fff"/>
      <path id="Path_481" data-name="Path 481" d="M19.329,31.869A5.5,5.5,0,0,1,23.152,33.4a5.064,5.064,0,0,1-.008,7.359,5.563,5.563,0,0,1-7.65-.007,5.064,5.064,0,0,1,.008-7.359,5.5,5.5,0,0,1,3.827-1.52" transform="translate(-8.333 -20.172)" fill="#fc7a30"/>
      <path id="Path_482" data-name="Path 482" d="M24.082,37.255a3.449,3.449,0,0,0-4.743,0,3.14,3.14,0,0,0,0,4.562,3.449,3.449,0,0,0,4.743,0,3.14,3.14,0,0,0,0-4.562" transform="translate(-10.785 -22.634)" fill="#fff"/>
      <rect id="Rectangle_41" data-name="Rectangle 41" width="5.926" height="1.737" rx="0.5" transform="matrix(0.001, -1, 1, 0.001, 10.05, 27.132)" fill="#fc7a30"/>
      <rect id="Rectangle_42" data-name="Rectangle 42" width="1.671" height="6.08" rx="0.5" transform="matrix(0.001, -1, 1, 0.001, 7.881, 25.003)" fill="#fc7a30"/>
      <rect id="Rectangle_43" data-name="Rectangle 43" width="24.691" height="33.42" transform="translate(0 0)" fill="none"/>
    </g>
  </g>
</svg>
